<svg version="1.1" xmlns="http://www.w3.org/2000/svg" viewBox="0 0 742.2813114954179 471.6259090191413" width="742.2813114954179" height="471.6259090191413">
  <!-- svg-source:excalidraw -->
  
  <defs>
    <style class="style-fonts">
      @font-face {
        font-family: "Virgil";
        src: url("https://excalidraw.com/Virgil.woff2");
      }
      @font-face {
        font-family: "Cascadia";
        src: url("https://excalidraw.com/Cascadia.woff2");
      }
    </style>
  </defs>
  <rect x="0" y="0" width="742.2813114954179" height="471.6259090191413" fill="#ffffff"></rect><g stroke-linecap="round"><g transform="translate(143.49791154670038 10.205115009556835) rotate(0 120.31044216267492 225.60783950001382)" fill-rule="evenodd"><path d="M-0.51 1.6 L-133.22 227.35 L-16.37 449.76 L262.14 448.77 L371.95 222.4 L237.13 2.8 L-1.61 -0.03" stroke="none" stroke-width="0" fill="#fcecbc" fill-rule="evenodd"></path><path d="M1.57 1.25 C-43.22 71.07, -83.17 143.91, -131.94 227.07 M0.61 -0.21 C-41.3 65.94, -80.74 132.46, -132.52 225.14 M-131.89 225.55 C-97.34 291.96, -63.28 359.28, -14.07 449.22 M-133.5 224.97 C-102.25 284.11, -72.17 343.34, -14.89 449.9 M-16.11 451.2 C94.68 451.77, 200.26 451.46, 264.36 447.61 M-14.82 450.14 C86.03 447.34, 186.92 446.72, 263.92 449.32 M262.81 449.63 C305.4 366.25, 347.07 280.77, 371.8 224.01 M262.47 448.46 C306.33 364.17, 348.65 277.41, 372.88 222.63 M373.29 221.77 C324.03 141.9, 273.03 59.64, 237.68 1.85 M374.12 222.24 C337.98 166.94, 302.55 109.03, 239.69 1.08 M239.93 1.55 C159.45 3.06, 77.36 3.27, 0.34 1.13 M239.49 2 C184.74 2.74, 130.14 2.36, -0.83 0.47 M0 0 C0 0, 0 0, 0 0 M0 0 C0 0, 0 0, 0 0" stroke="#000000" stroke-width="1" fill="none"></path></g></g><mask></mask><g stroke-linecap="round" transform="translate(178.71223613796337 177.06264804401053) rotate(0 83.5 56)"><path d="M0.64 -0.79 L168.39 1.69 L168.84 110.2 L1.99 113.91" stroke="none" stroke-width="0" fill="#ffffff"></path><path d="M-1.28 1.53 C64.52 1.2, 129.71 0.94, 166.06 1.13 M-0.81 0.66 C39.58 0.72, 78.41 -0.04, 166.34 0.43 M167.63 -1.31 C164.92 29.11, 166.19 55.33, 167.35 111.71 M166.11 -0.87 C168.82 33.83, 168.3 65.14, 167.43 112.72 M168.75 111.89 C128.14 109.66, 87.63 109.19, -0.95 113.76 M166.15 111.73 C101.74 110.93, 35.7 111.37, -0.47 111.03 M-1.41 110.09 C-1.23 71.71, 1.07 31.86, -0.25 -1.24 M-0.09 111.94 C-1.53 83.81, -0.07 53.94, 0.63 -0.87" stroke="#000000" stroke-width="1" fill="none"></path></g><g stroke-linecap="round"><g transform="translate(179.71223613796337 240.06264804401053) rotate(0 84.39851762913167 -0.4352092822745135)"><path d="M1.53 -0.51 C48.96 0.71, 98.1 0.13, 168.13 -1.25 M0.66 -0.06 C50.27 0.48, 99.37 0.7, 167.43 -0.44" stroke="#000000" stroke-width="1" fill="none"></path></g></g><mask></mask><g stroke-linecap="round"><g transform="translate(179.71223613796337 264.06264804401053) rotate(0 82.52032459713519 0.6059920556588168)"><path d="M-0.51 -0.45 C32.99 -1.58, 65.76 0.67, 164.75 1.97 M-0.06 0.41 C45.9 -0.88, 92.9 0.46, 165.56 1.63" stroke="#000000" stroke-width="1" fill="none"></path></g></g><mask></mask><g transform="translate(219.71223613796337 198.06264804401053) rotate(0 43 9)"><text x="43" y="14" font-family="Helvetica, Segoe UI Emoji" font-size="16px" fill="#000000" text-anchor="middle" style="white-space: pre;" direction="ltr">CoffeeShop</text></g><g stroke-linecap="round" transform="translate(563.4548474011963 181.68261411721903) rotate(0 83.5 55.99999999999994)"><path d="M1.91 0.83 L168.37 1.55 L166.33 112.79 L-0.55 113.91" stroke="none" stroke-width="0" fill="#e1f9bd"></path><path d="M1.13 -1.25 C47.12 0.42, 92.68 2.11, 166.88 0.83 M0.43 -0.44 C35.1 0.81, 71.26 0.44, 166.17 0.25 M166.71 -0.1 C167.72 31.13, 164.16 61.04, 168.64 113.54 M167.72 -0.64 C166.55 35.96, 166.79 73.77, 167.26 111.63 M168.76 113.89 C123.51 109.91, 75.44 110.66, 1.26 112.01 M166.03 112.65 C109.49 110.7, 49.67 110.26, -0.16 112.29 M-1.24 111.2 C0.52 68.52, -1.06 22.62, -1.48 1.8 M-0.87 112.32 C-0.54 71.03, 0.7 29.59, -0.9 1" stroke="#000000" stroke-width="1" fill="none"></path></g><g stroke-linecap="round"><g transform="translate(564.4548474011963 244.68261411721892) rotate(0 83.28710011392832 -0.8904005661606789)"><path d="M-1.25 -0.03 C43.75 -2.57, 89.55 -1.06, 167.83 -1.75 M-0.44 -0.37 C44.06 -0.41, 88.04 -1.56, 167.25 -0.2" stroke="#000000" stroke-width="1" fill="none"></path></g></g><mask></mask><g stroke-linecap="round"><g transform="translate(564.4548474011963 268.6826141172189) rotate(0 82.71499194577336 0.984207613853755)"><path d="M-0.03 -0.36 C40.4 2.87, 83.92 2.88, 164.25 1.31 M-0.37 -0.29 C39.2 0.55, 76.92 1.92, 165.8 1.04" stroke="#000000" stroke-width="1" fill="none"></path></g></g><mask></mask><g transform="translate(591.1916886718964 195.68261411721892) rotate(0 59 18)"><text x="59" y="14" font-family="Helvetica, Segoe UI Emoji" font-size="16px" fill="#000000" text-anchor="middle" style="white-space: pre;" direction="ltr">OrdersDatabase</text><text x="59" y="32" font-family="Helvetica, Segoe UI Emoji" font-size="16px" fill="#000000" text-anchor="middle" style="white-space: pre;" direction="ltr">Adapter</text></g><g stroke-linecap="round" transform="translate(368.4771079758202 62.682614117219146) rotate(0 83.5 56)"><path d="M-0.67 0.79 L166.45 1.91 L168.03 112.24 L1.8 112.31" stroke="none" stroke-width="0" fill="#ffffff"></path><path d="M-1.63 1.33 C39.53 1.13, 77.54 -0.39, 165.68 0.87 M0.32 -0.65 C41.84 0.74, 85.16 -0.47, 167.18 -0.15 M165.23 -1.74 C169.64 34.6, 168.59 64.17, 167.87 113.45 M167.88 -0.05 C167.97 26.04, 167.4 52.21, 166.52 112.88 M165.3 111.46 C102.37 110.93, 36.19 111.82, -0.94 110.05 M166.29 111.05 C105.9 111.44, 46.11 111.95, -0.12 111.38 M-0.17 111.88 C-2.27 84.71, 0.65 54.07, 1.27 -1.74 M0.85 112.92 C-0.45 75.82, 1.4 38.07, 0.69 0.77" stroke="#000000" stroke-width="1" fill="none"></path></g><g stroke-linecap="round"><g transform="translate(369.4771079758202 125.68261411721915) rotate(0 83.60754157043993 -0.46887210942804813)"><path d="M1.33 -0.12 C50.68 -0.39, 99.03 0.04, 167.87 -0.89 M-0.65 -0.83 C44.12 -0.73, 86.8 -0.35, 166.85 -0.05" stroke="#000000" stroke-width="1" fill="none"></path></g></g><mask></mask><g stroke-linecap="round"><g transform="translate(369.4771079758202 149.68261411721915) rotate(0 82.55927099660039 1.4189894505009306)"><path d="M-0.12 0.83 C45.02 -1.23, 92.24 0.9, 165.11 1.25 M-0.83 0.25 C44.75 0.67, 90.07 2.02, 165.95 2.89" stroke="#000000" stroke-width="1" fill="none"></path></g></g><mask></mask><g transform="translate(398.7139492465203 75.68261411721915) rotate(0 54.5 18)"><text x="54.5" y="14" font-family="Helvetica, Segoe UI Emoji" font-size="16px" fill="#000000" text-anchor="middle" style="white-space: pre;" direction="ltr">&lt;&lt; interface &gt;&gt;</text><text x="54.5" y="32" font-family="Helvetica, Segoe UI Emoji" font-size="16px" fill="#000000" text-anchor="middle" style="white-space: pre;" direction="ltr">Orders</text></g><g transform="translate(230.66762824841044 92.06264804401053) rotate(0 41 9)"><text x="0" y="14" font-family="Helvetica, Segoe UI Emoji" font-size="16px" fill="#000000" text-anchor="start" style="white-space: pre;" direction="ltr">&lt;&lt; uses &gt;&gt;</text></g><g stroke-linecap="round"><g transform="translate(650.717978451713 174.19771440484305) rotate(0 -55.27517510165126 -27.44992106343483)"><path d="M0 0 C-0.16 -15.74, -0.32 -31.48, -0.55 -53.52 M-0.55 -53.52 C-24.39 -53.82, -48.23 -54.12, -110.55 -54.9" stroke="#000000" stroke-width="1.5" fill="none" stroke-dasharray="8 9"></path></g><g transform="translate(650.717978451713 174.19771440484305) rotate(0 -55.27517510165126 -27.44992106343483)"><path d="M-110.55 -54.9 L-96.88 -61.07 L-97.04 -48.39 L-110.55 -54.9" stroke="none" stroke-width="0" fill="#000000" fill-rule="evenodd"></path><path d="M-110.55 -54.9 C-106.53 -56.71, -102.51 -58.53, -96.88 -61.07 M-96.88 -61.07 C-96.91 -58.32, -96.95 -55.57, -97.04 -48.39 M-97.04 -48.39 C-102.2 -50.88, -107.36 -53.36, -110.55 -54.9 M-110.55 -54.9 C-110.55 -54.9, -110.55 -54.9, -110.55 -54.9" stroke="#000000" stroke-width="1.5" fill="none"></path></g></g><mask></mask><g transform="translate(541.6676234265542 86.68480998449138) rotate(0.25162866300128894 65 9)"><text x="0" y="14" font-family="Helvetica, Segoe UI Emoji" font-size="16px" fill="#000000" text-anchor="start" style="white-space: pre;" direction="ltr">&lt;&lt; implements &gt;&gt;</text></g><g stroke-linecap="round"><g transform="translate(262.0433511256497 175.68261411721937) rotate(0 49.898457730993414 -26.845260136295224)"><path d="M0 0 C-0.19 -11.26, -0.37 -22.52, -0.88 -53 M-0.88 -53 C27.58 -53.19, 56.04 -53.39, 100.67 -53.69" stroke="#000000" stroke-width="1.5" fill="none" stroke-dasharray="8 9"></path></g><g transform="translate(262.0433511256497 175.68261411721937) rotate(0 49.898457730993414 -26.845260136295224)"><path d="M72.55 -43.24 C78.53 -45.46, 84.5 -47.68, 100.67 -53.69" stroke="#000000" stroke-width="1.5" fill="none"></path></g><g transform="translate(262.0433511256497 175.68261411721937) rotate(0 49.898457730993414 -26.845260136295224)"><path d="M72.41 -63.76 C78.42 -61.62, 84.42 -59.48, 100.67 -53.69" stroke="#000000" stroke-width="1.5" fill="none"></path></g></g><mask></mask><g stroke-linecap="round"><g transform="translate(394.7767589934974 288.6668292074021) rotate(0 80.43603863194585 20.58172176405799)" fill-rule="evenodd"><path d="M-0.14 1.03 L-1.3 41.28 L122.74 40.18 L123.33 58.36 L160.52 18.88 L122.76 -19.34 L122.45 -0.19 L-1.38 -0.97" stroke="none" stroke-width="0" fill="#ffffff" fill-rule="evenodd"></path><path d="M1.01 0.1 C-2.52 14.29, -1.98 25.75, 0.99 40.23 M-0.38 -0.58 C-0.62 12.76, -1.84 26.09, -1.68 40.54 M-1.95 39.85 C27.64 41.86, 53.66 39.83, 121.78 40.58 M-1.01 39.15 C39.78 39.67, 78.22 40.41, 121.45 40.13 M123.54 38.07 C121.37 45.84, 122.54 48.14, 121.34 59.5 M121.33 40.72 C122.56 45.37, 122.81 50.44, 121.83 60.85 M123.9 61.69 C134.3 46.11, 147.76 33.96, 162.39 20.95 M122.33 60.7 C133.86 48.18, 147.92 35.54, 162.7 19.57 M162.82 21.19 C148.68 7.99, 139.48 -2.7, 122.05 -19.7 M161.98 19.42 C151.7 8.03, 140.4 -2.57, 122.57 -20.04 M121.38 -20.52 C123.26 -11.5, 121.46 -5.65, 123.96 1.22 M122.05 -20.45 C121.5 -15.15, 122.57 -9.6, 122.65 -0.94 M122.18 0.75 C81.99 -2.22, 43.91 0.71, 1.38 0.53 M121.53 0.61 C84.56 -0.46, 49.94 -0.16, -0.7 -0.11 M0 0 C0 0, 0 0, 0 0 M0 0 C0 0, 0 0, 0 0" stroke="#000000" stroke-width="1" fill="none"></path></g></g><mask></mask><g transform="translate(409.74617854364806 299.63355839387737) rotate(0 50.5 9)"><text x="50.5" y="14" font-family="Helvetica, Segoe UI Emoji" font-size="16px" fill="#000000" text-anchor="middle" style="white-space: pre;" direction="ltr">flow of control</text></g><g stroke-linecap="round"><g transform="translate(339.3346582599788 371.946297211063) rotate(180 80.76625652052462 20.202029425650835)" fill-rule="evenodd"><path d="M-1.5 1.93 L-0.32 39.47 L122.47 38.42 L120.96 61.11 L162.23 20.75 L122.66 -22 L120.35 1.66 L-1.52 1.22" stroke="none" stroke-width="0" fill="#fff" fill-rule="evenodd"></path><path d="M0.18 -1.23 C1.47 11.04, -1.99 21.33, 0.08 41.99 M-0.64 -0.21 C-0.82 10.69, -1.22 22.21, 0 39.65 M-1.09 40.29 C47.16 39.81, 94.54 37.39, 121.49 39.12 M-1.3 39.34 C34.7 39.09, 70.51 40.18, 121.01 40.41 M123.65 39.89 C121.66 48.29, 121.14 54.32, 123.44 61.39 M121.44 40.8 C121.67 44.3, 122.18 49.67, 121.15 59.51 M122.88 58.51 C133.55 50.33, 142.34 39.6, 160.93 18.89 M122.01 59.85 C136.37 45.05, 150.57 31.2, 161.35 19.77 M162.13 20.21 C146.42 5.58, 131.86 -10.2, 120.88 -20.98 M162.83 19.59 C146.53 4.48, 131.08 -11.28, 122.65 -20.64 M123.85 -18.66 C121.96 -16.14, 122.35 -9.52, 122 -0.47 M121.92 -19.05 C122.79 -16.33, 122.91 -9.95, 121.69 0.2 M123.28 -0.35 C83.2 -1.77, 48.1 0.69, 1.67 1.72 M122.41 -0.89 C88.34 -0.59, 54.72 -0.56, -0.66 0.43 M0 0 C0 0, 0 0, 0 0 M0 0 C0 0, 0 0, 0 0" stroke="#000000" stroke-width="1" fill="none"></path></g></g><mask></mask><g transform="translate(388.24617854364806 383.63355839387737) rotate(0 51 9)"><text x="51" y="14" font-family="Helvetica, Segoe UI Emoji" font-size="16px" fill="#000000" text-anchor="middle" style="white-space: pre;" direction="ltr">dependencies</text></g></svg>