<svg version="1.1" xmlns="http://www.w3.org/2000/svg" viewBox="0 0 761.3071427524901 472.1523686005646" width="761.3071427524901" height="472.1523686005646">
  <!-- svg-source:excalidraw -->
  
  <defs>
    <style class="style-fonts">
      @font-face {
        font-family: "Virgil";
        src: url("https://excalidraw.com/Virgil.woff2");
      }
      @font-face {
        font-family: "Cascadia";
        src: url("https://excalidraw.com/Cascadia.woff2");
      }
    </style>
  </defs>
  <rect x="0" y="0" width="761.3071427524901" height="472.1523686005646" fill="#ffffff"></rect><g stroke-linecap="round"><g transform="translate(376.5225166794371 11.032243166021203) rotate(0 120.62278347055599 225.0439411342611)" fill-rule="evenodd"><path d="M1.35 -1.47 L-132.27 227.55 L-13.76 451.52 L262.9 448.11 L372.03 222.31 L237.09 2.46 L0.98 0.02" stroke="none" stroke-width="0" fill="#fcecbc" fill-rule="evenodd"></path><path d="M-0.66 -0.87 C-26.25 48.46, -54.03 92.28, -132.83 224.56 M0.39 -0.18 C-44.42 74.97, -89.47 150.6, -133.11 226.43 M-133.54 226.68 C-88 306.79, -43.59 389.39, -15.91 450.05 M-132.33 226.44 C-104.04 278.78, -77.29 332.98, -14.65 450.46 M-15.76 451.11 C93.09 451.19, 201.48 450.46, 262.53 449.47 M-15.4 450.45 C51.18 450.33, 116.55 449.42, 262.74 448.93 M263.76 447.53 C290.72 391.6, 319.9 331.98, 373.67 222.72 M262.53 447.89 C294.78 382.75, 326.85 314.74, 373.74 223.54 M374.78 222.87 C341 169.08, 308.42 116.44, 238.31 2.75 M372.7 222.74 C319.62 134.82, 266.51 47.73, 238.69 0.56 M237.89 -0.25 C151.55 0.32, 66.24 0.68, -0.21 -1.03 M239 1.29 C176.34 2.9, 115.45 1.9, 0.53 -0.73 M0 0 C0 0, 0 0, 0 0 M0 0 C0 0, 0 0, 0 0" stroke="#000000" stroke-width="1" fill="none"></path></g></g><mask></mask><g transform="translate(81.1117765316958 79.36680086081003) rotate(0.25162866300128894 40.5 9)"><text x="0" y="14" font-family="Helvetica, Segoe UI Emoji" font-size="16px" fill="#000000" text-anchor="start" style="white-space: pre;" direction="ltr">&lt;&lt; uses &gt;&gt;</text></g><g stroke-linecap="round" transform="translate(10 180.88977620047478) rotate(0 83.5 55.99999999999994)"><path d="M-1.92 1.75 L166.89 0.52 L166.26 111.38 L-1.21 111.05" stroke="none" stroke-width="0" fill="#e1f9bd"></path><path d="M-0.28 1.95 C52.95 -0.73, 107.29 -0.44, 167.71 0.3 M-0.06 -0.38 C41.98 -0.14, 84.95 1.36, 167.69 0.33 M167.88 -1.2 C168.4 40.63, 165.2 84.46, 165.74 112.33 M167.79 -0.34 C167.14 30.94, 168.03 60.53, 167.89 111.96 M166.49 111.55 C133.09 112.56, 98.95 114.41, -1.25 111.97 M166.94 112.41 C119.05 112.76, 72.2 113.54, -0.44 111.63 M-1.67 112.49 C-0.75 79.77, 0 51.06, -0.1 1.79 M0.82 112.77 C1.29 78.89, 1.43 48.44, -0.64 0.64" stroke="#000000" stroke-width="1" fill="none"></path></g><g stroke-linecap="round"><g transform="translate(11 243.88977620047467) rotate(0 83.47452070191503 -0.06875679543259139)"><path d="M1.95 -0.61 C41.5 0.4, 84.93 0.94, 167.3 -0.9 M-0.38 -0.59 C57.85 -0.07, 117.71 0.79, 167.33 0.76" stroke="#000000" stroke-width="1" fill="none"></path></g></g><mask></mask><g stroke-linecap="round"><g transform="translate(11 267.88977620047467) rotate(0 83.07841152884066 0.5827865719945748)"><path d="M-0.61 -1.64 C40.86 -2.48, 82.1 -0.34, 165.1 2.99 M-0.59 -0.51 C45.96 2.17, 92.95 2.06, 166.76 1.65" stroke="#000000" stroke-width="1" fill="none"></path></g></g><mask></mask><g transform="translate(41.2368412707001 201.88977620047478) rotate(0 55.5 9)"><text x="55.5" y="14" font-family="Helvetica, Segoe UI Emoji" font-size="16px" fill="#000000" text-anchor="middle" style="white-space: pre;" direction="ltr">OrderController</text></g><g stroke-linecap="round" transform="translate(209 61.889776200474785) rotate(0 83.5 56)"><path d="M-0.74 -0.62 L165.79 -0.95 L168.76 113.89 L1.44 110.71" stroke="none" stroke-width="0" fill="#ffffff"></path><path d="M0.17 -1.35 C67.09 1.67, 131.85 2.36, 166.56 -0.12 M-0.17 0.99 C44.5 1.18, 88.38 0.5, 167.64 0.44 M165.6 0.13 C166.74 27.21, 167.35 55.34, 168.97 113.57 M167.16 0.65 C167.07 29.7, 165.18 58.85, 167.76 111.74 M166.06 113.13 C119.41 111.37, 73.95 109.77, 1.33 111.88 M166.34 112.43 C109.55 111.05, 52.71 111.74, -0.65 111.17 M0.35 111.71 C0.12 77.43, -0.04 37.51, -1.74 1.64 M0.43 112.72 C-0.97 70.39, -1.29 28.38, -0.05 0.26" stroke="#000000" stroke-width="1" fill="none"></path></g><g stroke-linecap="round"><g transform="translate(210 124.88977620047478) rotate(0 83.04444815777242 0.05469665933651413)"><path d="M-1.35 0.71 C45.32 -1.04, 91.04 -0.58, 166.88 -0.75 M0.99 0.69 C40.63 1.05, 80.25 0.93, 167.44 -0.6" stroke="#000000" stroke-width="1" fill="none"></path></g></g><mask></mask><g stroke-linecap="round"><g transform="translate(210 148.8897762004749) rotate(0 83.04724602028728 1.1935462910804517)"><path d="M0.71 0.3 C35.28 2.55, 71.91 1.87, 165.25 0.83 M0.69 0.33 C42.08 -1.5, 83.27 -0.21, 165.4 2.9" stroke="#000000" stroke-width="1" fill="none"></path></g></g><mask></mask><g transform="translate(239.7368412707001 74.88977620047478) rotate(0 54 18)"><text x="54" y="14" font-family="Helvetica, Segoe UI Emoji" font-size="16px" fill="#000000" text-anchor="middle" style="white-space: pre;" direction="ltr">&lt;&lt; interface &gt;&gt;</text><text x="54" y="32" font-family="Helvetica, Segoe UI Emoji" font-size="16px" fill="#000000" text-anchor="middle" style="white-space: pre;" direction="ltr">PlacingOrders</text></g><g stroke-linecap="round" transform="translate(411.7368412707001 177.8897762004749) rotate(0 83.5 56)"><path d="M1.76 1.89 L168.44 -1.29 L165.3 111.46 L1.26 112.01" stroke="none" stroke-width="0" fill="#ffffff"></path><path d="M-0.9 0.99 C38.37 -0.37, 76.87 -1.42, 165.98 -0.35 M0.76 -0.35 C67.29 -0.1, 132.7 0.36, 166.24 -0.7 M166.35 1.57 C168.26 35.93, 165.6 67.23, 168.99 112.31 M166.01 -0.64 C168.77 40.59, 167.78 81.52, 166.64 111.53 M166.64 110.37 C108.76 111.86, 48.69 110.22, -0.69 110.68 M166.71 112.32 C108.98 110.55, 52.52 111.18, -0.96 112.18 M-0.26 110.23 C-1.68 81.67, 1.6 48.65, -1.94 0.87 M-0.96 112.88 C0.67 70.56, 0.35 28.28, -0.61 -0.48" stroke="#000000" stroke-width="1" fill="none"></path></g><g stroke-linecap="round"><g transform="translate(412.7368412707001 240.8897762004749) rotate(0 83.14956828020513 0.2954815355694791)"><path d="M0.99 -0.44 C55.94 0, 110.94 -0.27, 166.65 1.98 M-0.35 0.64 C62.13 -1.88, 124.28 -2.04, 166.3 0.07" stroke="#000000" stroke-width="1" fill="none"></path></g></g><mask></mask><g stroke-linecap="round"><g transform="translate(412.7368412707001 264.8897762004749) rotate(0 83.76995781809092 1.4131101683080942)"><path d="M-0.44 -0.12 C51.49 -1.37, 103.47 0.09, 167.98 3.39 M0.64 0.44 C54.62 2.15, 109.67 1.21, 166.07 1.37" stroke="#000000" stroke-width="1" fill="none"></path></g></g><mask></mask><g transform="translate(453.2368412707001 198.8897762004749) rotate(0 42.5 9)"><text x="42.5" y="14" font-family="Helvetica, Segoe UI Emoji" font-size="16px" fill="#000000" text-anchor="middle" style="white-space: pre;" direction="ltr">CoffeeShop</text></g><g stroke-linecap="round"><g transform="translate(92.28541475789825 174.47389057765577) rotate(0 53.86996898044299 -28.305438907100836)"><path d="M0 0 C0.32 -19.56, 0.63 -39.12, 0.91 -55.96 M0.91 -55.96 C29.19 -56.14, 57.47 -56.31, 107.74 -56.61" stroke="#000000" stroke-width="1.5" fill="none" stroke-dasharray="8 9"></path></g><g transform="translate(92.28541475789825 174.47389057765577) rotate(0 53.86996898044299 -28.305438907100836)"><path d="M79.61 -46.18 C89.44 -49.83, 99.27 -53.47, 107.74 -56.61" stroke="#000000" stroke-width="1.5" fill="none"></path></g><g transform="translate(92.28541475789825 174.47389057765577) rotate(0 53.86996898044299 -28.305438907100836)"><path d="M79.49 -66.7 C89.36 -63.17, 99.23 -59.65, 107.74 -56.61" stroke="#000000" stroke-width="1.5" fill="none"></path></g></g><mask></mask><g stroke-linecap="round"><g transform="translate(451.3284991191522 171.8897762004749) rotate(0 -34.59165784845209 -27.43000121138715)"><path d="M0 0 C0.11 -15.01, 0.23 -30.01, 0.41 -54 M0.41 -54 C-25.06 -54.31, -50.54 -54.63, -69.59 -54.86" stroke="#000000" stroke-width="1.5" fill="none" stroke-dasharray="8 9"></path></g><g transform="translate(451.3284991191522 171.8897762004749) rotate(0 -34.59165784845209 -27.43000121138715)"><path d="M-69.59 -54.86 L-55.92 -61.03 L-56.08 -48.35 L-69.59 -54.86" stroke="none" stroke-width="0" fill="#000000" fill-rule="evenodd"></path><path d="M-69.59 -54.86 C-65.79 -56.58, -61.99 -58.29, -55.92 -61.03 M-55.92 -61.03 C-55.98 -56.42, -56.03 -51.81, -56.08 -48.35 M-56.08 -48.35 C-61.46 -50.95, -66.85 -53.54, -69.59 -54.86 M-69.59 -54.86 C-69.59 -54.86, -69.59 -54.86, -69.59 -54.86" stroke="#000000" stroke-width="1.5" fill="none"></path></g></g><mask></mask><g transform="translate(428.2366098215971 84.88977620047501) rotate(0 64.5 9)"><text x="0" y="14" font-family="Helvetica, Segoe UI Emoji" font-size="16px" fill="#000000" text-anchor="start" style="white-space: pre;" direction="ltr">&lt;&lt; implements &gt;&gt;</text></g><g stroke-linecap="round"><g transform="translate(213.4140028232623 284.00575732333255) rotate(0 80.91152028366923 19.68726118281495)" fill-rule="evenodd"><path d="M-1.74 -1.44 L-0.4 39.21 L120.14 40 L123.4 59.17 L160.25 21.43 L121.25 -21.41 L121.06 -1.81 L1.77 0.14" stroke="none" stroke-width="0" fill="#ffffff" fill-rule="evenodd"></path><path d="M-1.99 0.22 C0.6 9.56, -0.64 20.76, 0.97 39.43 M-0.81 0.52 C-0.87 8.24, 0.13 15.84, -1.69 39.13 M-2.1 41.68 C43.97 39.33, 91.28 41.6, 121.58 41.84 M-1.96 40.08 C27.3 39.41, 54.2 41.1, 122.01 40.01 M120.6 38.92 C120.64 47.37, 123.86 51.82, 123.9 61.27 M122.07 40.13 C121.38 44.15, 121.42 48.88, 121.01 59.64 M120.81 58.69 C132.11 51.8, 137.47 42.89, 163.8 21.04 M121.42 60.12 C135.8 44.93, 151.35 29.76, 161.67 19.88 M163.92 19.31 C150.73 10.29, 139.38 -1.5, 122.65 -21.9 M162.45 19.66 C147.16 6.81, 133.94 -7.1, 122.63 -19.23 M121.84 -20.3 C123.64 -12.71, 123.83 -5.62, 123.26 0.2 M121.27 -20.95 C121.63 -14.91, 122.23 -8.18, 122.33 0.9 M120.91 0.56 C84.68 -0.79, 47.96 -0.2, 0.75 -1.03 M121.34 -0.33 C82.06 -0.76, 43.85 0.65, -0.38 -0.1 M0 0 C0 0, 0 0, 0 0 M0 0 C0 0, 0 0, 0 0" stroke="#000000" stroke-width="1" fill="none"></path></g></g><mask></mask><g transform="translate(228.88342237341294 294.9724865098078) rotate(0 50 9)"><text x="50" y="14" font-family="Helvetica, Segoe UI Emoji" font-size="16px" fill="#000000" text-anchor="middle" style="white-space: pre;" direction="ltr">flow of control</text></g><g stroke-linecap="round"><g transform="translate(259.9719020897437 375.2852253269932) rotate(0 80.77726082131267 20.752012092620134)" fill-rule="evenodd"><path d="M1.59 -1.53 L-1.2 40.72 L122.09 40.99 L123.16 60.98 L163.77 18.1 L120.16 -21.87 L123.4 -0.17 L-1.24 -0.46" stroke="none" stroke-width="0" fill="#ffffff" fill-rule="evenodd"></path><path d="M-1.69 1.63 C0.94 8.71, 1.36 18.19, 0.83 40.49 M0.4 -0.02 C-0.69 12.58, -1.51 25.45, -0.89 39.11 M-2.15 38.28 C29.56 39.86, 62.86 38.74, 123.16 38.2 M-1.48 40.76 C27.33 40.56, 54.36 39.53, 121.42 40.51 M121.92 41.14 C123.7 45.62, 123.2 54.48, 120.25 58.15 M121.91 40.84 C123.16 46.32, 121.3 51.6, 122.14 60.37 M121.72 61.58 C131.62 49.14, 142.76 40.37, 163.7 21.03 M121.65 59.15 C137.87 43.73, 154.13 29.19, 162.95 19.69 M160.39 21.27 C153.98 12.09, 141.39 3.09, 123.92 -20.07 M162.4 19.47 C148.01 5.52, 134.33 -6.95, 121.17 -19.75 M120.88 -18.75 C123.52 -13.89, 123.77 -11.75, 121.96 1.44 M121.97 -19.18 C121.23 -14.2, 122.48 -7.2, 121.31 -0.98 M121.76 -0.89 C87.05 -0.85, 53.77 2.45, 0.44 -1.17 M122.85 -0.04 C92.84 -2.1, 65.1 -1.33, -0.37 0.65 M0 0 C0 0, 0 0, 0 0 M0 0 C0 0, 0 0, 0 0" stroke="#000000" stroke-width="1" fill="none"></path></g></g><mask></mask><g transform="translate(270.38342237341294 385.9724865098078) rotate(0 50.5 9)"><text x="50.5" y="14" font-family="Helvetica, Segoe UI Emoji" font-size="16px" fill="#000000" text-anchor="middle" style="white-space: pre;" direction="ltr">dependencies</text></g></svg>