<svg version="1.1" xmlns="http://www.w3.org/2000/svg" viewBox="0 0 760.1606884659295 472.2060173166833" width="760.1606884659295" height="472.2060173166833">
  <!-- svg-source:excalidraw -->
  
  <defs>
    <style class="style-fonts">
      @font-face {
        font-family: "Virgil";
        src: url("https://excalidraw.com/Virgil.woff2");
      }
      @font-face {
        font-family: "Cascadia";
        src: url("https://excalidraw.com/Cascadia.woff2");
      }
    </style>
  </defs>
  <rect x="0" y="0" width="760.1606884659295" height="472.2060173166833" fill="#ffffff"></rect><g stroke-linecap="round"><g transform="translate(143.01794426492324 10.992288631607153) rotate(0 120.77461636017051 225.1107200267345)" fill-rule="evenodd"><path d="M-0.57 0.88 L-131.6 227.17 L-15.78 448.83 L261.8 448.3 L374.35 224.13 L237.63 1.68 L-0.4 -0.57" stroke="none" stroke-width="0" fill="#fcecbc" fill-rule="evenodd"></path><path d="M-1.03 -0.89 C-50.25 83.98, -99.79 169, -132.71 226.63 M-0.5 -0.4 C-30.11 54.18, -61.84 108.12, -133.02 226.34 M-132.01 225.87 C-91.21 304.96, -48.93 381.02, -15.55 448.81 M-132.22 225.18 C-85.9 313.56, -39.7 400.22, -14.91 449.89 M-14.5 450.85 C53.45 452.23, 123.13 449.37, 264.38 447.99 M-15.27 450.37 C46.04 450.55, 106.65 450.25, 263.84 448.18 M264.31 449.97 C295.42 381.45, 328.03 314.15, 374.27 223.02 M263.65 448.12 C302.77 369.58, 340.85 290.26, 373.43 222.4 M374.57 221.62 C337.01 165.25, 301.35 104.48, 240.61 0.12 M374.11 223.64 C332.39 156.05, 291.05 90.12, 238.86 1.96 M238.96 2.12 C159.52 -0.34, 83.05 -2.71, -0.32 0.73 M239.41 1.83 C156.75 -0.45, 72.86 -1.2, 0.82 0.81 M0 0 C0 0, 0 0, 0 0 M0 0 C0 0, 0 0, 0 0" stroke="#000000" stroke-width="1" fill="none"></path></g></g><mask></mask><g stroke-linecap="round" transform="translate(178.23226885618624 154.8498216660605) rotate(0 83.5 56)"><path d="M0.13 1.05 L168.48 -1.67 L167.02 113.98 L0.8 112.84" stroke="none" stroke-width="0" fill="#ffffff"></path><path d="M-1.12 -1.48 C58.63 0.37, 118.71 1.39, 168.24 -1.21 M-0.5 0.25 C65.04 1.44, 129.27 0.98, 167.88 0.45 M167.28 -0.34 C167.8 42.57, 166.09 81.24, 165.6 113.85 M166.43 0.7 C168.95 34.58, 167.2 68.12, 166.93 111.5 M168.18 110.49 C123.62 111.18, 75.55 113.76, -0.78 110.39 M167.56 111.7 C132.43 110.07, 97.54 111.7, -0.54 112.01 M1.69 112.78 C1.03 68.49, 1.86 25.9, 0.08 0.95 M-0.58 111.64 C-0.74 87.17, -1.85 63.6, -0.68 -0.3" stroke="#000000" stroke-width="1" fill="none"></path></g><g stroke-linecap="round"><g transform="translate(179.23226885618624 217.8498216660605) rotate(0 82.98456743825227 0.10019879564856637)"><path d="M-1.48 -1.56 C51.04 -0.73, 103.8 2.18, 165.79 1.71 M0.25 0.66 C44.36 1.36, 87.86 1.72, 167.45 0.67" stroke="#000000" stroke-width="1" fill="none"></path></g></g><mask></mask><g stroke-linecap="round"><g transform="translate(179.23226885618624 241.8498216660605) rotate(0 83.07468835636973 0.3240343378856778)"><path d="M-1.56 -0.7 C37.43 2.02, 79.45 0.96, 167.71 1.26 M0.66 0.4 C39.95 0, 79.76 0.99, 166.67 1.35" stroke="#000000" stroke-width="1" fill="none"></path></g></g><mask></mask><g transform="translate(219.23226885618624 175.8498216660605) rotate(0 43 9)"><text x="43" y="14" font-family="Helvetica, Segoe UI Emoji" font-size="16px" fill="#000000" text-anchor="middle" style="white-space: pre;" direction="ltr">CoffeeShop</text></g><g stroke-linecap="round" transform="translate(563.9748801194173 153.8498216660605) rotate(0 83.5 56)"><path d="M0.02 1.98 L167.8 0.84 L168.92 110.48 L-0.02 113.84" stroke="none" stroke-width="0" fill="#e1f9bd"></path><path d="M-1.67 0.32 C38.95 -0.62, 77.13 -0.15, 165.75 -1 M0.52 -0.06 C55.13 -0.21, 109.17 -1.32, 167.59 0.14 M166.82 -0.96 C166.46 33.52, 167.95 65.2, 168.85 110.85 M166.15 -0.17 C167.95 40.91, 167.69 82.1, 167.18 112.59 M165.12 113.47 C128.7 109.46, 90.15 110.45, -1.28 113.12 M167.31 112.77 C121.35 110.59, 77.66 109.57, 0.65 112.84 M0.74 113.09 C0.13 75.01, -1.63 37.66, 0.98 -1.16 M-0.98 112.06 C-0.82 82.14, -0.08 53.4, 0.74 -0.83" stroke="#000000" stroke-width="1" fill="none"></path></g><g stroke-linecap="round"><g transform="translate(564.9748801194173 216.8498216660605) rotate(0 83.53798045776784 0.8280961990187734)"><path d="M0.32 1.24 C35.86 3.1, 73.41 0.14, 166 0.5 M-0.06 0.88 C61.59 -0.19, 121.62 -0.27, 167.14 -0.17" stroke="#000000" stroke-width="1" fill="none"></path></g></g><mask></mask><g stroke-linecap="round"><g transform="translate(564.9748801194173 240.8498216660605) rotate(0 83.68929351400584 1.0559601970016956)"><path d="M1.24 -1.21 C45.67 -0.47, 86.69 -0.21, 166.5 3.32 M0.88 0.45 C57.12 0.14, 113.48 1.61, 165.83 2.77" stroke="#000000" stroke-width="1" fill="none"></path></g></g><mask></mask><g transform="translate(588.7117213901174 168.8498216660605) rotate(0 59 18)"><text x="59" y="14" font-family="Helvetica, Segoe UI Emoji" font-size="16px" fill="#000000" text-anchor="middle" style="white-space: pre;" direction="ltr">OrdersDatabase</text><text x="59" y="32" font-family="Helvetica, Segoe UI Emoji" font-size="16px" fill="#000000" text-anchor="middle" style="white-space: pre;" direction="ltr">Adapter</text></g><g stroke-linecap="round" transform="translate(367.99714069404126 63.46978773926958) rotate(0 83.5 56)"><path d="M1.92 -1.52 L166.98 1.84 L166.37 113.82 L1.7 113.95" stroke="none" stroke-width="0" fill="#ffffff"></path><path d="M1.71 -0.74 C51.51 0.01, 106 2.33, 167.8 1.03 M0.67 -0.65 C49.62 -0.62, 97.89 0.01, 167.74 -0.09 M167.1 1.86 C168.07 27.08, 167.61 58.26, 167.88 110.3 M166.68 -0.72 C167.1 32.32, 166.17 64.17, 166.44 111.06 M165.18 111.38 C103.36 111.78, 41.68 111.28, -1.71 112.63 M167.89 111 C104.73 112.87, 41.55 111.98, 0.05 112.37 M-1.67 113.55 C0.94 71.12, -0.77 32.81, -1.2 -1.96 M0.07 112.53 C1.5 76.9, 0.77 44.45, 0.4 0.42" stroke="#000000" stroke-width="1" fill="none"></path></g><g stroke-linecap="round"><g transform="translate(368.99714069404126 126.46978773926958) rotate(0 83.64993085339665 -0.3289642231538892)"><path d="M-0.74 -1.25 C59.48 -0.93, 122.28 -0.63, 168.03 -0.13 M-0.65 0.59 C64.96 -1.29, 130.41 -0.38, 166.91 -0.48" stroke="#000000" stroke-width="1" fill="none"></path></g></g><mask></mask><g stroke-linecap="round"><g transform="translate(368.99714069404126 150.46978773926958) rotate(0 82.31222430989146 1.3796627707779408)"><path d="M-1.25 -1 C40.28 2.41, 80.34 2.6, 165.87 3.76 M0.59 0.14 C57.16 2.54, 115.39 2.37, 165.52 1.3" stroke="#000000" stroke-width="1" fill="none"></path></g></g><mask></mask><g transform="translate(398.23398196474136 76.46978773926958) rotate(0 54.5 18)"><text x="54.5" y="14" font-family="Helvetica, Segoe UI Emoji" font-size="16px" fill="#000000" text-anchor="middle" style="white-space: pre;" direction="ltr">&lt;&lt; interface &gt;&gt;</text><text x="54.5" y="32" font-family="Helvetica, Segoe UI Emoji" font-size="16px" fill="#000000" text-anchor="middle" style="white-space: pre;" direction="ltr">Orders</text></g><g transform="translate(230.18766096663148 92.8498216660605) rotate(0 41 9)"><text x="0" y="14" font-family="Helvetica, Segoe UI Emoji" font-size="16px" fill="#000000" text-anchor="start" style="white-space: pre;" direction="ltr">&lt;&lt; uses &gt;&gt;</text></g><g stroke-linecap="round"><g transform="translate(650.3208244635289 146.36492195368464) rotate(0 -55.3165817484487 -13.139938026830578)"><path d="M0 0 C-0.15 -5.92, -0.3 -11.83, -0.63 -24.9 M-0.63 -24.9 C-40.12 -25.39, -79.61 -25.89, -110.63 -26.28" stroke="#000000" stroke-width="1.5" fill="none" stroke-dasharray="8 9"></path></g><g transform="translate(650.3208244635289 146.36492195368464) rotate(0 -55.3165817484487 -13.139938026830578)"><path d="M-110.63 -26.28 L-96.96 -32.45 L-97.12 -19.77 L-110.63 -26.28" stroke="none" stroke-width="0" fill="#000000" fill-rule="evenodd"></path><path d="M-110.63 -26.28 C-107.38 -27.75, -104.14 -29.21, -96.96 -32.45 M-96.96 -32.45 C-97.02 -27.9, -97.07 -23.35, -97.12 -19.77 M-97.12 -19.77 C-102.42 -22.32, -107.73 -24.88, -110.63 -26.28 M-110.63 -26.28 C-110.63 -26.28, -110.63 -26.28, -110.63 -26.28" stroke="#000000" stroke-width="1.5" fill="none"></path></g></g><mask></mask><g transform="translate(541.1876561447752 87.4719836065417) rotate(0.25162866300128894 65 9)"><text x="0" y="14" font-family="Helvetica, Segoe UI Emoji" font-size="16px" fill="#000000" text-anchor="start" style="white-space: pre;" direction="ltr">&lt;&lt; implements &gt;&gt;</text></g><g stroke-linecap="round"><g transform="translate(261.3146046394113 153.4697877392698) rotate(0 50.14723693545466 -15.345260136295337)"><path d="M0 0 C-0.2 -9.75, -0.41 -19.49, -0.63 -30 M-0.63 -30 C28.09 -30.2, 56.8 -30.39, 100.92 -30.69" stroke="#000000" stroke-width="1.5" fill="none" stroke-dasharray="8 9"></path></g><g transform="translate(261.3146046394113 153.4697877392698) rotate(0 50.14723693545466 -15.345260136295337)"><path d="M72.8 -20.24 C81.94 -23.63, 91.07 -27.03, 100.92 -30.69" stroke="#000000" stroke-width="1.5" fill="none"></path></g><g transform="translate(261.3146046394113 153.4697877392698) rotate(0 50.14723693545466 -15.345260136295337)"><path d="M72.66 -40.76 C81.84 -37.49, 91.02 -34.22, 100.92 -30.69" stroke="#000000" stroke-width="1.5" fill="none"></path></g></g><mask></mask><g stroke-linecap="round" transform="translate(176.5860001095598 321.6001281316212) rotate(0 83.5 56)"><path d="M1.64 -0.27 L168.87 -1.14 L165.39 111.68 L-0.92 111.35" stroke="none" stroke-width="0" fill="#ffffff"></path><path d="M0.66 1.7 C45.04 1.07, 91.54 -0.3, 167.73 -0.6 M0.54 0.04 C65.85 -1.48, 132.26 -1.78, 166.09 -0.53 M166.23 -1.75 C165.68 35.42, 165.9 68.91, 166.7 113.81 M167.02 -0.3 C167.14 26.65, 166.15 53.91, 167.11 112.51 M167.13 112.31 C130.77 110.46, 96.87 112.5, 1.28 112.92 M167.52 112.55 C117.93 112.81, 70.23 112.63, 0.32 111.29 M1.89 113.64 C0.59 76.87, 1.55 39.29, -0.73 0.91 M0.25 112.55 C0.91 90.09, 0.04 66.39, -0.93 0.28" stroke="#000000" stroke-width="1" fill="none"></path></g><g stroke-linecap="round"><g transform="translate(177.5860001095598 384.6001281316212) rotate(0 83.25682874582708 0.22304091155592687)"><path d="M1.7 -1.4 C63.51 -1.89, 125.1 0.18, 166.4 1.92 M0.04 -0.27 C41.27 -0.88, 82.7 -1.81, 166.47 0.03" stroke="#000000" stroke-width="1" fill="none"></path></g></g><mask></mask><g stroke-linecap="round"><g transform="translate(177.5860001095598 408.6001281316212) rotate(0 83.2593229226768 0.11940389228936965)"><path d="M-1.4 0.56 C43.33 -1.69, 90.06 -0.93, 167.92 1 M-0.27 -0.47 C59.94 -0.11, 118.91 0.85, 166.03 1.06" stroke="#000000" stroke-width="1" fill="none"></path></g></g><mask></mask><g transform="translate(239.0860001095598 342.6001281316212) rotate(0 21.5 9)"><text x="21.5" y="14" font-family="Helvetica, Segoe UI Emoji" font-size="16px" fill="#000000" text-anchor="middle" style="white-space: pre;" direction="ltr">Order</text></g><g stroke-linecap="round"><g transform="translate(259.66068846593043 271.6001281316212) rotate(0 0 23.5)"><path d="M0 0 C0 15.89, 0 31.78, 0 47" stroke="#000000" stroke-width="1.5" fill="none" stroke-dasharray="8 9"></path></g><g transform="translate(259.66068846593043 271.6001281316212) rotate(0 0 23.5)"><path d="M-8.04 24.92 C-5.32 32.38, -2.6 39.85, 0 47" stroke="#000000" stroke-width="1.5" fill="none"></path></g><g transform="translate(259.66068846593043 271.6001281316212) rotate(0 0 23.5)"><path d="M8.04 24.92 C5.32 32.38, 2.6 39.85, 0 47" stroke="#000000" stroke-width="1.5" fill="none"></path></g></g><mask></mask><g transform="translate(281.1606884659295 283.6001281316212) rotate(0 41 9)"><text x="0" y="14" font-family="Helvetica, Segoe UI Emoji" font-size="16px" fill="#000000" text-anchor="start" style="white-space: pre;" direction="ltr">&lt;&lt; uses &gt;&gt;</text></g><g stroke-linecap="round" transform="translate(567.4013655432527 320.6001281316212) rotate(0 83.5 56)"><path d="M-1.95 0.44 L168.01 -0.73 L167.09 112.7 L1.63 111.04" stroke="none" stroke-width="0" fill="#e1f9bd"></path><path d="M0.19 0.57 C59.66 0.04, 116.2 -1.28, 167.97 -1.86 M-0.68 0.53 C58.68 -2.02, 118.96 -1.06, 166.98 -0.02 M165.95 0.23 C169.52 29.39, 166.8 57.02, 166.71 112.66 M166.79 0.61 C168.07 42.22, 167.02 83.97, 167.54 111.27 M166.92 111.39 C127.12 114.06, 88.04 112.03, -0.11 112.74 M166.18 112.82 C127.81 113.76, 89.43 112.8, -0.84 112.86 M-0.69 111.46 C-2.33 84.92, -0.18 59.82, 0.12 1.06 M0.57 111.12 C-0.81 72.47, -0.11 33.43, -0.46 0.76" stroke="#000000" stroke-width="1" fill="none"></path></g><g stroke-linecap="round"><g transform="translate(568.4013655432527 383.6001281316212) rotate(0 83.75471641682088 0.17081899475306273)"><path d="M0.57 0.82 C65.68 -1.62, 128.98 0.81, 165.14 1.12 M0.53 -0.78 C46.28 1.17, 93.9 1.11, 166.98 -0.39" stroke="#000000" stroke-width="1" fill="none"></path></g></g><mask></mask><g stroke-linecap="round"><g transform="translate(568.4013655432527 407.6001281316212) rotate(0 83.17081899475306 1.2836960162967443)"><path d="M0.82 1.06 C58.52 -0.01, 120.93 -0.89, 167.12 1.59 M-0.78 -0.38 C66.07 0.49, 132.06 0.69, 165.61 2.95" stroke="#000000" stroke-width="1" fill="none"></path></g></g><mask></mask><g transform="translate(609.9013655432527 341.6001281316212) rotate(0 41.5 9)"><text x="41.5" y="14" font-family="Helvetica, Segoe UI Emoji" font-size="16px" fill="#000000" text-anchor="middle" style="white-space: pre;" direction="ltr">OrderEntity</text></g><g stroke-linecap="round"><g transform="translate(649.2256868640243 270.1001281316212) rotate(0 0.0952421542178854 23.5)"><path d="M0 0 C0.07 17.62, 0.14 35.25, 0.19 47" stroke="#000000" stroke-width="1.5" fill="none" stroke-dasharray="8 9"></path></g><g transform="translate(649.2256868640243 270.1001281316212) rotate(0 0.0952421542178854 23.5)"><path d="M-7.94 24.95 C-4.89 33.22, -1.84 41.49, 0.19 47" stroke="#000000" stroke-width="1.5" fill="none"></path></g><g transform="translate(649.2256868640243 270.1001281316212) rotate(0 0.0952421542178854 23.5)"><path d="M8.14 24.88 C5.16 33.18, 2.18 41.47, 0.19 47" stroke="#000000" stroke-width="1.5" fill="none"></path></g></g><mask></mask><g transform="translate(668.1606884659295 279.6001281316212) rotate(0 41 9)"><text x="0" y="14" font-family="Helvetica, Segoe UI Emoji" font-size="16px" fill="#000000" text-anchor="start" style="white-space: pre;" direction="ltr">&lt;&lt; uses &gt;&gt;</text></g><g stroke-linecap="round"><g transform="translate(561.6606884659304 229.60287475634323) rotate(0 -107 74.49862668763899)"><path d="M0 0 C-51.99 0.34, -103.98 0.67, -154 1 M-154 1 C-154 57.26, -154 113.52, -154 149 M-154 149 C-168.28 149, -182.56 149, -214 149" stroke="#000000" stroke-width="1.5" fill="none" stroke-dasharray="8 9"></path></g><g transform="translate(561.6606884659304 229.60287475634323) rotate(0 -107 74.49862668763899)"><path d="M-185.81 138.74 C-195.33 142.2, -204.84 145.66, -214 149" stroke="#000000" stroke-width="1.5" fill="none"></path></g><g transform="translate(561.6606884659304 229.60287475634323) rotate(0 -107 74.49862668763899)"><path d="M-185.81 159.26 C-195.33 155.79, -204.84 152.33, -214 149" stroke="#000000" stroke-width="1.5" fill="none"></path></g></g><mask></mask><g transform="translate(411.1606884659295 202.6001281316212) rotate(0 41 9)"><text x="0" y="14" font-family="Helvetica, Segoe UI Emoji" font-size="16px" fill="#000000" text-anchor="start" style="white-space: pre;" direction="ltr">&lt;&lt; uses &gt;&gt;</text></g></svg>