<svg version="1.1" xmlns="http://www.w3.org/2000/svg" viewBox="0 0 761.3705089798968 471.97739832686193" width="761.3705089798968" height="471.97739832686193">
  <!-- svg-source:excalidraw -->
  
  <defs>
    <style class="style-fonts">
      @font-face {
        font-family: "Virgil";
        src: url("https://excalidraw.com/Virgil.woff2");
      }
      @font-face {
        font-family: "Cascadia";
        src: url("https://excalidraw.com/Cascadia.woff2");
      }
    </style>
  </defs>
  <rect x="0" y="0" width="761.3705089798968" height="471.97739832686193" fill="#ffffff"></rect><g stroke-linecap="round"><g transform="translate(377.3298608962914 11.490092737210034) rotate(0 120.3397921770279 224.49860642622093)" fill-rule="evenodd"><path d="M1.46 -1.08 L-131.07 224.45 L-15.98 451.75 L263.23 449.96 L374.96 221.37 L240.52 3.32 L0.52 1.82" stroke="none" stroke-width="0" fill="#fcecbc" fill-rule="evenodd"></path><path d="M-1.16 -1.49 C-44.7 75.51, -90.87 153.29, -132.92 226.25 M0.49 0.57 C-31.47 54.26, -64.39 109.05, -132.58 226.43 M-132.89 226.46 C-101.63 283.95, -70.81 341.46, -15.05 449.47 M-133.36 226.42 C-108.43 272.82, -83.57 319.17, -15.3 450.49 M-14.3 450.22 C48.65 449.63, 115.09 450.15, 263.79 449.71 M-14.17 450.14 C48.3 450.76, 111.56 449.65, 264.01 448.45 M262.95 448.47 C297.09 378.42, 332.42 309.6, 372.33 223.07 M264.03 448.46 C292.62 389.91, 322.46 331.53, 373.93 223.37 M372.76 221.93 C321.69 137.31, 268.51 49.51, 238.79 0.22 M374.04 222.99 C329.03 150.58, 285.56 78.47, 238.31 1.29 M239.83 2.21 C167.9 0.97, 97.54 0.53, 0.66 -1.02 M239.05 2.05 C158.05 0.65, 77.1 1.26, 0.51 0.67 M0 0 C0 0, 0 0, 0 0 M0 0 C0 0, 0 0, 0 0" stroke="#000000" stroke-width="1" fill="none"></path></g></g><mask></mask><g transform="translate(81.91912074854918 79.82465043199863) rotate(0.25162866300128894 40.5 9)"><text x="0" y="14" font-family="Helvetica, Segoe UI Emoji" font-size="16px" fill="#000000" text-anchor="start" style="white-space: pre;" direction="ltr">&lt;&lt; uses &gt;&gt;</text></g><g stroke-linecap="round" transform="translate(10.80734421685338 148.3476257716634) rotate(0 83.5 56)"><path d="M1.51 -0.77 L165.72 0.82 L168.79 112.93 L1.91 111.65" stroke="none" stroke-width="0" fill="#e1f9bd"></path><path d="M-0.42 0.03 C33.01 3.25, 69.68 2.33, 165.84 0.13 M0.73 -0.94 C56.57 -1.88, 114.06 -0.21, 166.61 -0.6 M168.9 0.37 C168.86 39.88, 166.72 81.2, 165.17 112.57 M166.24 0.23 C165.98 30.51, 165.81 62.2, 166.33 111.5 M165.24 112.9 C111.96 114.28, 56.83 113.76, -1.48 112.61 M167.34 112.84 C121.5 112.23, 75.12 112.25, 0.11 112.33 M0.27 111.67 C1.82 82.43, -1.09 50.45, -0.81 -1.65 M-0.89 111.8 C-0.42 78.78, -0.4 46.05, 0.97 -0.52" stroke="#000000" stroke-width="1" fill="none"></path></g><g stroke-linecap="round"><g transform="translate(11.80734421685338 211.3476257716634) rotate(0 83.09444159734994 -0.5032947845757008)"><path d="M0.03 -1.81 C39.66 0.41, 76.71 -0.81, 167.13 0.8 M-0.94 -0.22 C59.68 -0.73, 121.69 -1.6, 166.4 0.65" stroke="#000000" stroke-width="1" fill="none"></path></g></g><mask></mask><g stroke-linecap="round"><g transform="translate(11.80734421685338 235.3476257716634) rotate(0 82.4967052154243 1.276272808201611)"><path d="M-1.81 1.69 C34.33 1.16, 67.39 0.94, 166.8 3.23 M-0.22 -0.68 C62.27 3.3, 123.17 2.45, 166.65 2.05" stroke="#000000" stroke-width="1" fill="none"></path></g></g><mask></mask><g transform="translate(42.04418548755348 169.3476257716634) rotate(0 55.5 9)"><text x="55.5" y="14" font-family="Helvetica, Segoe UI Emoji" font-size="16px" fill="#000000" text-anchor="middle" style="white-space: pre;" direction="ltr">OrderController</text></g><g stroke-linecap="round" transform="translate(209.80734421685338 62.34762577166339) rotate(0 83.5 56)"><path d="M1.79 0.93 L168.91 -0.35 L165.6 112.53 L1.07 111.21" stroke="none" stroke-width="0" fill="#ffffff"></path><path d="M0.06 0.77 C49.17 -1.28, 101.46 -0.18, 168.44 1.46 M0.49 0.99 C33.97 0.52, 69.36 1.18, 167.5 0.95 M166.66 -0.57 C166.18 36.24, 167.5 70.37, 168.92 110.47 M166.36 0.68 C165.8 35.71, 166.78 72.72, 167.18 111.12 M167.7 113.45 C107.94 114.26, 51.4 115.23, 0.52 112.69 M167.99 111.82 C102.91 111.99, 38.36 111.48, -0.08 112.13 M-1.29 112.15 C-1.71 78.58, -0.97 50.38, -0.33 -1.78 M0.67 112.51 C0.23 80.15, 0.02 48.96, -0.64 0.41" stroke="#000000" stroke-width="1" fill="none"></path></g><g stroke-linecap="round"><g transform="translate(210.80734421685338 125.34762577166339) rotate(0 84.61281051114202 -0.7307903950169248)"><path d="M0.77 -1.16 C35.14 0.75, 71.24 1.39, 168.46 -1.89 M0.99 -0.39 C45.82 -0.16, 92.9 -0.31, 167.95 0.18" stroke="#000000" stroke-width="1" fill="none"></path></g></g><mask></mask><g stroke-linecap="round"><g transform="translate(210.80734421685338 149.34762577166384) rotate(0 82.5115393800661 1.0931349874540501)"><path d="M-1.16 0.13 C64.61 1.36, 129.05 2.36, 164.11 1.56 M-0.39 -0.6 C39.25 -1.14, 77.7 0.23, 166.18 2.9" stroke="#000000" stroke-width="1" fill="none"></path></g></g><mask></mask><g transform="translate(240.54418548755348 75.34762577166339) rotate(0 54 18)"><text x="54" y="14" font-family="Helvetica, Segoe UI Emoji" font-size="16px" fill="#000000" text-anchor="middle" style="white-space: pre;" direction="ltr">&lt;&lt; interface &gt;&gt;</text><text x="54" y="32" font-family="Helvetica, Segoe UI Emoji" font-size="16px" fill="#000000" text-anchor="middle" style="white-space: pre;" direction="ltr">PlacingOrders</text></g><g stroke-linecap="round" transform="translate(415.5441854875544 152.3476257716634) rotate(0 83.5 56)"><path d="M-1.4 0.53 L168.07 -0.79 L168.64 112.09 L1.07 112.91" stroke="none" stroke-width="0" fill="#ffffff"></path><path d="M0.8 1.23 C57.95 1.35, 111.13 -0.55, 165.65 0.97 M0.65 0.05 C67.2 1.95, 133.57 1.91, 166.49 -0.17 M166.49 -0.97 C167.9 28.86, 166.44 59.82, 166.49 110.72 M167.32 0.31 C166.43 40.29, 166.7 82.55, 167.99 112.35 M166.56 113.58 C105.32 113.2, 44.29 114.37, -0.4 113.97 M166.75 111.82 C119.9 112.68, 72.79 113.35, 0.64 111.35 M-0.07 113.92 C0.12 75.8, 0.05 44.47, 0.03 1.35 M0.75 111.61 C-1.72 73.1, -0.19 33.86, 0.96 -0.17" stroke="#000000" stroke-width="1" fill="none"></path></g><g stroke-linecap="round"><g transform="translate(416.5441854875544 215.3476257716634) rotate(0 84.01149231661111 0.34363083411199113)"><path d="M1.23 1.44 C41.86 -2.55, 80.36 -2.02, 167.97 1.99 M0.05 0.5 C44.6 -0.9, 88.21 -1.59, 166.83 -0.29" stroke="#000000" stroke-width="1" fill="none"></path></g></g><mask></mask><g stroke-linecap="round"><g transform="translate(416.5441854875544 239.3476257716634) rotate(0 84.245615134947 0.9089931270076477)"><path d="M1.44 1.46 C49.02 -0.85, 100.45 1.18, 167.99 1.23 M0.5 0.95 C39.99 1.3, 79.1 0.71, 165.71 1.08" stroke="#000000" stroke-width="1" fill="none"></path></g></g><mask></mask><g transform="translate(457.0441854875544 173.3476257716634) rotate(0 42.5 9)"><text x="42.5" y="14" font-family="Helvetica, Segoe UI Emoji" font-size="16px" fill="#000000" text-anchor="middle" style="white-space: pre;" direction="ltr">CoffeeShop</text></g><g stroke-linecap="round"><g transform="translate(93.48112542280842 141.93174014884426) rotate(0 53.6757857564146 -11.805438907100779)"><path d="M0 0 C0.19 -8.3, 0.37 -16.6, 0.52 -22.96 M0.52 -22.96 C33.08 -23.16, 65.65 -23.36, 107.35 -23.61" stroke="#000000" stroke-width="1.5" fill="none" stroke-dasharray="8 9"></path></g><g transform="translate(93.48112542280842 141.93174014884426) rotate(0 53.6757857564146 -11.805438907100779)"><path d="M79.22 -13.18 C89.39 -16.95, 99.55 -20.72, 107.35 -23.61" stroke="#000000" stroke-width="1.5" fill="none"></path></g><g transform="translate(93.48112542280842 141.93174014884426) rotate(0 53.6757857564146 -11.805438907100779)"><path d="M79.1 -33.7 C89.31 -30.05, 99.52 -26.41, 107.35 -23.61" stroke="#000000" stroke-width="1.5" fill="none"></path></g></g><mask></mask><g stroke-linecap="round"><g transform="translate(453.0935358149054 146.3476257716634) rotate(0 -35.27467516367642 -14.430001211386866)"><path d="M0 0 C-0.2 -10.42, -0.41 -20.84, -0.55 -28 M-0.55 -28 C-25.08 -28.3, -49.61 -28.6, -70.55 -28.86" stroke="#000000" stroke-width="1.5" fill="none" stroke-dasharray="8 9"></path></g><g transform="translate(453.0935358149054 146.3476257716634) rotate(0 -35.27467516367642 -14.430001211386866)"><path d="M-70.55 -28.86 L-56.88 -35.03 L-57.03 -22.35 L-70.55 -28.86" stroke="none" stroke-width="0" fill="#000000" fill-rule="evenodd"></path><path d="M-70.55 -28.86 C-65.46 -31.16, -60.37 -33.45, -56.88 -35.03 M-56.88 -35.03 C-56.93 -30.59, -56.99 -26.15, -57.03 -22.35 M-57.03 -22.35 C-62.39 -24.93, -67.74 -27.51, -70.55 -28.86 M-70.55 -28.86 C-70.55 -28.86, -70.55 -28.86, -70.55 -28.86" stroke="#000000" stroke-width="1.5" fill="none"></path></g></g><mask></mask><g transform="translate(429.0439540384514 85.34762577166384) rotate(0 64.5 9)"><text x="0" y="14" font-family="Helvetica, Segoe UI Emoji" font-size="16px" fill="#000000" text-anchor="start" style="white-space: pre;" direction="ltr">&lt;&lt; implements &gt;&gt;</text></g><g stroke-linecap="round" transform="translate(411.2015926704207 317.53403387147114) rotate(0 83.5 56)"><path d="M0.21 0.15 L166.45 0.97 L167.64 111.62 L-1.28 111.86" stroke="none" stroke-width="0" fill="#ffffff"></path><path d="M0.94 1.53 C37.19 0.84, 75.01 0.86, 166.84 -1.05 M-0.3 -0.53 C41.68 1.67, 84 2.06, 167.72 -0.85 M165.75 1.15 C168.15 25.63, 167.92 53.9, 167.44 112.66 M166.07 -0.35 C166.79 28.32, 166.39 55.14, 167.71 112.53 M166.57 112.69 C102.58 112.22, 39.66 113.44, -0.98 110.9 M166.72 112.66 C103.99 113.87, 40.19 113.21, 0.49 111.9 M-1.18 112.14 C1.02 78, 0.39 45.13, 1.53 0.84 M-0.39 112.19 C-1.41 76.01, 0.1 41.75, -0.46 -0.93" stroke="#000000" stroke-width="1" fill="none"></path></g><g stroke-linecap="round"><g transform="translate(412.2015926704207 380.53403387147114) rotate(0 82.81313808821142 -0.6653402882644741)"><path d="M1.53 -1.24 C65.85 -2.64, 131.21 -0.95, 165.95 -0.96 M-0.53 -0.41 C49 0.32, 98.35 1.21, 166.15 -0.62" stroke="#000000" stroke-width="1" fill="none"></path></g></g><mask></mask><g stroke-linecap="round"><g transform="translate(412.2015926704207 404.53403387147114) rotate(0 82.07093579601496 0.8144054020638123)"><path d="M-1.24 0.5 C44.57 -0.2, 92.67 -1.2, 165.04 1.86 M-0.41 0.05 C33.52 1.72, 68.12 0.84, 165.38 1.79" stroke="#000000" stroke-width="1" fill="none"></path></g></g><mask></mask><g transform="translate(474.2015926704207 338.53403387147114) rotate(0 21 9)"><text x="21" y="14" font-family="Helvetica, Segoe UI Emoji" font-size="16px" fill="#000000" text-anchor="middle" style="white-space: pre;" direction="ltr">Order</text></g><g stroke-linecap="round"><g transform="translate(495.8141639855312 266.03403387147114) rotate(0 -0.1370490432573206 24.5)"><path d="M0 0 C-0.09 16.27, -0.18 32.54, -0.27 49" stroke="#000000" stroke-width="1.5" fill="none" stroke-dasharray="8 9"></path></g><g transform="translate(495.8141639855312 266.03403387147114) rotate(0 -0.1370490432573206 24.5)"><path d="M-8.52 25.93 C-5.78 33.59, -3.04 41.25, -0.27 49" stroke="#000000" stroke-width="1.5" fill="none"></path></g><g transform="translate(495.8141639855312 266.03403387147114) rotate(0 -0.1370490432573206 24.5)"><path d="M8.23 26.02 C5.41 33.65, 2.58 41.28, -0.27 49" stroke="#000000" stroke-width="1.5" fill="none"></path></g></g><mask></mask><g transform="translate(516.7109155930984 280.03403387147114) rotate(0 40.5 9)"><text x="0" y="14" font-family="Helvetica, Segoe UI Emoji" font-size="16px" fill="#000000" text-anchor="start" style="white-space: pre;" direction="ltr">&lt;&lt; uses &gt;&gt;</text></g><g stroke-linecap="round"><g transform="translate(180.46091559309843 227.8578999080703) rotate(0 114.87033853866114 75.17613396340084)"><path d="M0 0 C42.46 -0.08, 84.92 -0.15, 182 -0.32 M182 -0.32 C181.64 53.31, 181.29 106.94, 181 150.68 M181 150.68 C196.58 150.68, 212.15 150.68, 229.74 150.68" stroke="#000000" stroke-width="1.5" fill="none" stroke-dasharray="8 9"></path></g><g transform="translate(180.46091559309843 227.8578999080703) rotate(0 114.87033853866114 75.17613396340084)"><path d="M206.84 159.01 C212.18 157.07, 217.53 155.12, 229.74 150.68" stroke="#000000" stroke-width="1.5" fill="none"></path></g><g transform="translate(180.46091559309843 227.8578999080703) rotate(0 114.87033853866114 75.17613396340084)"><path d="M206.84 142.34 C212.18 144.29, 217.53 146.23, 229.74 150.68" stroke="#000000" stroke-width="1.5" fill="none"></path></g></g><mask></mask><g stroke-linecap="round" transform="translate(10.96043624356389 316.53403387147114) rotate(0 83.5 56)"><path d="M-1.29 -0.21 L165.49 0.73 L167.59 111.08 L-1.9 112.17" stroke="none" stroke-width="0" fill="#e1f9bd"></path><path d="M0.93 -1.96 C62.77 2.02, 124.56 2.61, 168.11 1.34 M-0.23 -0.38 C52.4 -0.27, 105.78 -0.13, 167.15 -0.13 M166.04 0.85 C165.76 33.36, 167.79 68.7, 168.81 110.79 M167.17 -0.26 C167.64 33.34, 168.04 64.64, 167.5 112.97 M166.09 111.16 C111.64 110.47, 56.67 111.46, -1.29 113.36 M167.56 112.57 C109.18 110.35, 52.61 110.92, 0.55 112.94 M1.1 110.25 C1.98 79.8, -1.09 47.24, 1.5 1.98 M0.96 111.35 C-0.84 89.76, -0.75 66.18, -0.8 0.96" stroke="#000000" stroke-width="1" fill="none"></path></g><g stroke-linecap="round"><g transform="translate(11.96043624356389 379.53403387147114) rotate(0 83.18855146691203 -0.30981964717386745)"><path d="M-1.96 -0.22 C35.12 -2.2, 69.71 0.33, 168.34 0.35 M-0.38 -0.65 C34.34 0.06, 69.18 0.54, 166.87 0.05" stroke="#000000" stroke-width="1" fill="none"></path></g></g><mask></mask><g stroke-linecap="round"><g transform="translate(11.96043624356389 403.53403387147114) rotate(0 82.849659149535 1.3609593004882754)"><path d="M-0.22 1.12 C39.38 3.82, 82.7 3.95, 166.35 0.16 M-0.65 -0.36 C48.55 1, 97.9 1.67, 166.05 2.46" stroke="#000000" stroke-width="1" fill="none"></path></g></g><mask></mask><g transform="translate(43.96043624356298 337.53403387147114) rotate(0 51 9)"><text x="51" y="14" font-family="Helvetica, Segoe UI Emoji" font-size="16px" fill="#000000" text-anchor="middle" style="white-space: pre;" direction="ltr">OrderRequest</text></g><g stroke-linecap="round"><g transform="translate(90.71091559309843 268.03403387147114) rotate(0 0 23.5)"><path d="M0 0 C0 16.29, 0 32.58, 0 47" stroke="#000000" stroke-width="1.5" fill="none" stroke-dasharray="8 9"></path></g><g transform="translate(90.71091559309843 268.03403387147114) rotate(0 0 23.5)"><path d="M-8.04 24.92 C-5.25 32.57, -2.47 40.22, 0 47" stroke="#000000" stroke-width="1.5" fill="none"></path></g><g transform="translate(90.71091559309843 268.03403387147114) rotate(0 0 23.5)"><path d="M8.04 24.92 C5.25 32.57, 2.47 40.22, 0 47" stroke="#000000" stroke-width="1.5" fill="none"></path></g></g><mask></mask><g transform="translate(109.21091559309843 277.53403387147114) rotate(0 40.5 9)"><text x="0" y="14" font-family="Helvetica, Segoe UI Emoji" font-size="16px" fill="#000000" text-anchor="start" style="white-space: pre;" direction="ltr">&lt;&lt; uses &gt;&gt;</text></g><g transform="translate(269.96091559309843 197.53403387147114) rotate(0 40.5 9)"><text x="0" y="14" font-family="Helvetica, Segoe UI Emoji" font-size="16px" fill="#000000" text-anchor="start" style="white-space: pre;" direction="ltr">&lt;&lt; uses &gt;&gt;</text></g></svg>