<svg version="1.1" xmlns="http://www.w3.org/2000/svg" viewBox="0 0 1006.9041571957996 696.1957819054564" width="1006.9041571957996" height="696.1957819054564">
  <!-- svg-source:excalidraw -->
  
  <defs>
    <style class="style-fonts">
      @font-face {
        font-family: "Virgil";
        src: url("https://excalidraw.com/Virgil.woff2");
      }
      @font-face {
        font-family: "Cascadia";
        src: url("https://excalidraw.com/Cascadia.woff2");
      }
    </style>
  </defs>
  <rect x="0" y="0" width="1006.9041571957996" height="696.1957819054564" fill="#ffffff"></rect><g stroke-linecap="round"><g transform="translate(303.83972393068325 10.628984449992913) rotate(0 204.99782262287067 337.46890650273536)" fill-rule="evenodd"><path d="M0 0 C0 0, 0 0, 0 0 M0 0 C0 0, 0 0, 0 0 M-33.32 51.61 C-23.92 40.98, -14.53 28.98, 11.57 -0.8 M-35.7 53.68 C-19.46 34.11, -5.47 18.28, 10.75 0.61 M-69.27 106.04 C-45.57 74.34, -19.03 43.09, 20.09 0.3 M-69.98 104.97 C-49.22 80.43, -28.01 55.76, 21.38 -0.94 M-103.58 158.37 C-67.11 115.04, -26.21 71.84, 33.29 -0.34 M-105.09 157.03 C-65.69 111.09, -23.86 64.84, 32.7 0.06 M-139.7 209.65 C-93.13 153.43, -43.34 95.94, 43.91 0.56 M-140.89 210.43 C-94.06 159.5, -48.78 106.65, 42.51 -0.48 M-175.12 264.17 C-97.14 172.03, -17.27 79.32, 52.91 1.31 M-175.7 263.85 C-86.11 161.84, 2.18 60.49, 52.55 0.02 M-210.29 315.71 C-121.42 213.59, -33.06 111.85, 63.46 0.73 M-210.91 316.2 C-153.6 248.74, -95.87 182.41, 63.02 0.24 M-222.53 342.53 C-122.74 227.75, -22.28 112.18, 73.1 -0.23 M-222.95 341.35 C-145.72 251.75, -68.14 162.4, 73.79 0.46 M-218.96 349.42 C-114.56 230.55, -10.7 109.51, 83.77 0.65 M-218.95 349.55 C-108.65 219.71, 3.36 90.44, 84.78 0.26 M-214.03 355.67 C-99.65 225.41, 14.94 95.43, 95.38 0.94 M-214.1 355.68 C-120.22 249.58, -26.53 141.64, 94.8 0.06 M-209.74 363.23 C-100.59 239.07, 7.08 114.73, 104.8 -0.02 M-210.2 363.6 C-145.46 290.15, -81.72 216.52, 105.46 0.4 M-204.56 370.23 C-83.04 228.03, 39.5 86.58, 116.74 0.7 M-204.87 369.99 C-130.84 284.31, -54.69 197.53, 115.92 0.36 M-201.72 377.62 C-123.61 288.05, -46.06 198.19, 126.69 -0.2 M-200.87 377.76 C-126.74 292.87, -52.29 207.59, 126.73 0.45 M-197.71 385.95 C-84.55 252.3, 29.05 122.35, 136.78 0.09 M-196.97 384.87 C-92.49 263.07, 12.97 141.72, 137.5 0.19 M-192.09 391.6 C-101.37 285.34, -9.14 179.19, 146.88 1.78 M-192.29 391.82 C-60.75 238.86, 71.26 86.62, 147.34 0.71 M-188.99 399.13 C-114.36 313.87, -40.89 228.11, 157.78 1.58 M-188 399.18 C-71.59 265.79, 44.92 131.79, 158.48 1.06 M-184.88 407.58 C-113.23 324.98, -40.33 241.26, 169.18 0.86 M-183.91 407.27 C-86.28 294, 11.15 182.02, 168.57 1.35 M-179.74 413.2 C-37.38 251.65, 103.76 89.75, 179.44 1.5 M-179.5 413.8 C-100.01 323.17, -21.23 232.3, 179.1 0.69 M-175.5 421.78 C-63.83 293.74, 48.09 166.35, 190.09 0.69 M-175.57 421.1 C-65.96 294.19, 44.75 166.72, 190.2 0.52 M-171.12 427.78 C-63.58 304.68, 42.59 183.68, 201.37 0.97 M-170.31 427.79 C-85.64 330.6, -0.66 232.87, 200.85 0.79 M-165.84 435.24 C-29.88 277.77, 107.03 121.09, 210.99 1.1 M-166.63 435.86 C-45.67 296.95, 76.26 156.4, 211.51 0.96 M-162.28 443.36 C-47.03 309.13, 70.86 174.32, 222.5 1.3 M-162.63 443.09 C-23.05 283.97, 115.87 125.09, 221.95 0.9 M-158.45 449.17 C-51 325.89, 57.84 201.08, 232.13 1.23 M-158.1 449.53 C-72.74 350.82, 14.5 250.87, 231.6 1.9 M-154.14 456.7 C-37.56 323.2, 77.45 190.48, 243 2.27 M-153.87 457.53 C-18.49 302.85, 115.02 148.68, 242.43 1.39 M-149.87 464.84 C-42.42 340.17, 66.93 214.41, 253.55 1.24 M-150.02 464.96 C-19.37 315.67, 110.56 166.17, 252.79 1.65 M-145.29 471.73 C-23.29 329.81, 98.07 189.96, 263.68 0.71 M-145.3 471.71 C-51.37 363.92, 41.67 256.81, 263.54 1.36 M-140.79 478.99 C-26.02 347.79, 88.17 216.45, 274.45 2.11 M-141.19 478.86 C18.05 298.17, 175.91 116.81, 274.31 1.32 M-135.79 485.37 C26.48 299.51, 190.04 110.95, 285.25 1.46 M-136.31 486.04 C-39.23 376.73, 56.97 266.66, 285.42 1.47 M-132 493.16 C15.56 324.05, 162.36 154.33, 295.72 0.98 M-132.29 493.57 C34.1 305.21, 198.09 116.71, 295.68 1 M-128.51 500.21 C-23.14 376.74, 84.53 253.84, 306.15 1.52 M-128.07 500.62 C-10.81 367.63, 105.55 233.3, 306.56 0.99 M-123.37 507.43 C-15.96 384.79, 89.43 262.65, 316.15 1.49 M-123.31 507.6 C34.27 327.11, 191.22 146.98, 316.91 1.32 M-118.44 515.11 C46.07 324.85, 212.37 134.28, 327.64 1.17 M-119.31 515.41 C-21.89 405.34, 74.39 293.77, 327.23 1.66 M-115.11 522 C-4.88 396.67, 105.8 267.77, 338.14 1.81 M-114.84 522.74 C48.7 335.47, 211.19 148.72, 337.8 1.79 M-111.09 529.7 C18.82 382.69, 147.76 235.37, 348.43 2.55 M-110.28 529.2 C16.56 386.23, 141.89 241.61, 348.13 1.51 M-106.84 537.31 C58.82 346.03, 226.37 154.16, 359.12 1.12 M-106.2 537.07 C25.47 386.2, 156.58 235.4, 359 1.81 M-102.23 543.01 C36.48 384.3, 176.82 222.91, 368.74 1.39 M-101.7 543.72 C73.94 338.5, 251.32 135.84, 369.66 1.77 M-98.23 550.58 C43.24 393.19, 180.92 234.29, 380.46 1.03 M-97.85 551.07 C25.31 412.56, 147.17 271.61, 380.44 1.97 M-93.6 558.12 C85.75 353.07, 264.45 147.2, 391.3 1.59 M-93.68 558.83 C94.25 343.29, 282.47 126.92, 390.55 1.45 M-88.05 565.61 C40.92 416.59, 172.46 265.35, 402.02 2.5 M-88.72 565.39 C27.67 430.63, 144.65 295.24, 401.55 1.86 M-83.92 572.79 C41.98 425.15, 170.88 277.38, 410.1 4.59 M-84.73 572.64 C75.19 389.51, 233.31 207.81, 409.34 4.3 M-80.24 579.89 C36.97 445.43, 152.76 312.72, 414.64 11.63 M-80.74 580.79 C30.77 448.98, 145.02 318.27, 413.74 11.4 M-75.98 587.16 C92.65 390.96, 262.82 195.89, 418.69 18.9 M-75.62 586.87 C76.64 415.51, 227.91 241.09, 419.13 17.98 M-71.68 594.35 C55.98 448.84, 181.07 304.86, 424 25.18 M-72.2 595.1 C57.78 449.31, 185.35 301.98, 423.42 25.2 M-67.66 600.74 C35.82 481.19, 141.11 360.61, 428.22 31.01 M-66.84 601.43 C39.12 475.45, 147.99 350.17, 427.99 32.12 M-62.56 608.33 C82.59 437.59, 230.59 269.05, 433.28 39.13 M-63.29 609.34 C128.5 386.84, 320.57 166.18, 433.11 38.28 M-59.59 617.12 C79.57 459.92, 216.11 303.18, 437.72 45.34 M-59.05 616.71 C72.67 462.51, 205.65 309.81, 437.32 45.49 M-53.74 622.93 C73.75 478.18, 201.45 330.58, 441.86 51.74 M-54.31 623.11 C103.23 441.96, 260.99 260.37, 442.51 52.37 M-49.4 631.37 C126.68 427.09, 302.42 223.49, 446.52 59.21 M-50.49 630.58 C147.27 406.84, 341.55 182.18, 446.92 58.58 M-45.81 636.97 C121.21 443.95, 290.83 248.55, 451.81 66.2 M-45.46 637.77 C147.05 416.6, 337.54 197.24, 451.78 65.74 M-41.98 645.71 C103.59 475.54, 249.94 307.92, 455.82 72.46 M-41.71 645.31 C90.21 490.61, 223.59 336.95, 456.7 72.03 M-36.52 652.55 C96.48 502.15, 229.6 348.6, 461.44 79.42 M-37.57 652.35 C138.67 449.95, 313.88 248.26, 461.55 78.78 M-32.5 658.57 C138.78 465.66, 308.27 270.52, 464.81 86.63 M-32.93 659.75 C121.59 485.19, 274.67 309.56, 465.17 86.57 M-27.8 667.25 C111.34 510.73, 246.97 353.79, 469.51 93.99 M-28.61 666.97 C81.05 539.36, 192.8 410.79, 469.85 93.2 M-23.71 674.04 C161.42 461.02, 346.17 248.29, 474.96 100.31 M-24.56 674.05 C103.43 531.11, 228.75 386.75, 474.44 99.99 M-19.4 681.06 C139.7 499.39, 297.76 318.13, 479.41 107.16 M-19.41 680.18 C99.49 541.53, 218.11 405.09, 479.54 106.56 M-8.09 680.96 C119.77 530.72, 251.69 379.7, 484.43 113.67 M-8.19 680.73 C180.48 465.36, 367.84 249.32, 483.94 113.3 M1.95 680.48 C129.78 531.74, 258.26 382.89, 488.85 120.18 M2.01 680.26 C132.31 532.02, 261.1 383.02, 488.79 120.03 M13.37 679.55 C169.39 497.99, 329.18 315.19, 493.92 127.08 M13.14 680.06 C161 509.95, 309.5 338.56, 493.83 126.88 M23.63 680.95 C167.46 517.38, 309.21 355.2, 498.85 133.66 M23.14 680.41 C122.11 563.98, 222.43 448.37, 498.45 133.76 M33.37 679.56 C164.97 525.87, 297.65 374.26, 502.79 140.2 M34.19 679.9 C216.16 474.01, 396.22 266.42, 503.5 140.45 M45.12 680.43 C191.42 509.77, 341.31 337.77, 508.32 146.75 M44.93 680.42 C145.57 567.36, 244.43 454.38, 508.28 147.65 M55.7 680.02 C169.29 547.95, 284.88 415.92, 512.28 153.63 M55.46 680.17 C187.61 527.7, 319.26 376.79, 512.42 153.88 M66.15 679.43 C224.67 500.32, 380.85 317.79, 517.24 160.29 M66 680.19 C179.64 550.18, 291.93 421.53, 517.67 160.52 M77.26 680.09 C250.72 479.22, 424.14 279.06, 522.32 167.31 M76.29 679.76 C178.86 561.36, 283.56 441.44, 521.73 167.95 M86.75 679.38 C222.78 524.77, 359.28 366.25, 526.67 173.68 M87.43 679.77 C231.02 515.14, 373.06 351.43, 526.49 174.14 M97.59 680.67 C209.77 551.67, 322.6 421.72, 530.84 181.23 M98.1 679.69 C260.58 494.21, 423.55 306.21, 531.17 181.96 M108.8 679.42 C218.65 556.69, 327.53 430.81, 534.88 188.79 M108.77 680.14 C230.49 542.08, 351.38 403.77, 536 188.36 M118.94 679.57 C219.97 562.12, 321.65 445.9, 539.62 195.66 M118.76 679.9 C285.58 487.67, 454.16 294.43, 540.09 195.47 M129.68 679.63 C272.91 516.38, 416.16 351.69, 544.78 202.15 M129.63 680.03 C213.37 583.55, 296.9 487.58, 545.1 202.13 M139.79 679.52 C272.61 526.01, 408.31 370.83, 550.34 209.26 M140.61 680.09 C273 527.5, 404.37 376.11, 549.97 208.84 M150.23 679.41 C252.93 560.02, 354.77 441.79, 555.21 215.87 M151.26 679.89 C309.59 496.16, 468.87 314.17, 554.39 215.56 M161.34 680.19 C292.89 526.59, 425.05 372.94, 559.24 222.45 M161.65 679.68 C281.83 544.24, 400.11 407.41, 558.99 222.62 M171.57 679.09 C321.44 508.13, 471.22 334.15, 563.52 229.84 M172.61 679.52 C250.71 586.39, 331.07 494.49, 563.98 229.37 M182.64 679.77 C292.79 553.33, 402.05 428.16, 569.2 236.58 M182.75 679.44 C266.8 585.16, 349.68 489.51, 568.59 235.9 M193.48 679.92 C285.07 574.67, 375.53 471.92, 572.94 242.48 M193.47 679.65 C273.82 586.49, 355.38 493.89, 573.65 242.43 M203.81 679.76 C285 584.64, 367.58 490.41, 578.58 249.13 M204.42 679.88 C314.77 552.95, 426.61 424.69, 577.87 249.49 M214.45 679.27 C304.41 576.57, 394.25 473.28, 582.98 255.51 M214.49 679.56 C300.8 579.05, 388.04 479.39, 582.83 256.51 M226.08 680.21 C297.5 594.01, 371.25 510.12, 587.64 263.29 M225.26 679.63 C334.56 555.24, 443.72 429, 587.61 262.76 M236.41 680.24 C355.25 539.65, 477.3 400.53, 592.61 269.22 M236.39 679.46 C350.43 548.16, 464.89 416.21, 592.22 269.95 M246.91 679.69 C352.09 558.31, 456.66 438.99, 596.23 277.56 M246.71 679.47 C358.22 551.62, 469.81 423.18, 596.38 277.55 M256.78 678.86 C388.7 527.96, 521 375.85, 601.24 284.73 M257.56 679.68 C380.3 540.39, 502.11 400.19, 600.74 283.96 M268.07 680.06 C337.51 599.46, 406.99 519.48, 606.46 290.66 M268.29 679.12 C395.01 535.15, 521.37 390.06, 605.59 290.4 M278.05 680.07 C394.21 546.03, 510.05 412.97, 611.31 297.85 M278.84 679.13 C360.49 584.38, 443.33 488.47, 610.51 297.25 M289.18 680.17 C362.11 596.73, 434.46 512.81, 615.55 304.53 M289.18 679.62 C364.05 594.32, 438.34 509.2, 615.53 304.22 M299.8 678.53 C404.22 560.4, 507.34 441.99, 619.55 311.6 M299.52 679.2 C416.76 544.94, 533.7 411.15, 619.76 311.31 M310.99 678.89 C395.52 579.72, 481.57 482.01, 624.84 318.1 M310.62 679.38 C427.33 544.35, 545.45 409.42, 624.84 318.16 M321.96 679.56 C414.03 570.91, 507.88 463.14, 629.29 325.12 M321.45 679.06 C407.22 579.52, 493.76 480.22, 629.47 324.14 M331.99 678.49 C418.92 579.02, 506.7 478.73, 634.34 331.07 M331.9 678.86 C406.61 593.98, 480.23 509.3, 634.64 331.38 M342.84 679.55 C404.92 605.18, 470.06 530.81, 638.37 337.51 M342.29 678.78 C407.54 603.95, 472.87 528.34, 638.56 337.67 M353.64 678.08 C414.15 608.79, 475.53 537.67, 621.62 370.63 M352.65 679.33 C461.26 555.55, 567.49 432.54, 620.48 371.38 M362.46 679.08 C435.14 598.49, 504.55 517.62, 600.7 405.52 M363.11 678.53 C420.53 612.65, 477.41 546.55, 601.69 405.66 M374.85 679.26 C429.95 617.89, 481.21 555.71, 584.8 437.71 M374.25 678.76 C443.13 599.55, 512.77 519.01, 583.05 438.3 M384.14 677.66 C435.88 620.9, 487.09 560.14, 563.18 473.29 M384.65 679.22 C426.02 630.07, 467.26 582.76, 564.33 471.6 M395.62 678.66 C447.94 619.59, 500.1 556.43, 545.27 504.27 M395.42 679.22 C437.77 630.15, 480.97 579.08, 545.64 505.78 M404.19 680.76 C434.62 645.38, 467.59 610.48, 528.8 539.6 M406.57 678.88 C444.18 635.96, 483.56 593.14, 527 540.19 M414.95 677.93 C444.48 645.86, 474.39 612.81, 508.39 570.79 M416.74 678.04 C436.43 654.58, 457.42 631.64, 509.63 571.62 M426.25 677.4 C451.51 650.75, 476.03 621.01, 491.84 607.26 M428.63 677.88 C443.93 659.67, 460.34 641.97, 490.09 606.23 M439.6 679.78 C449.81 664.33, 460.44 650.73, 470.8 640.77 M438.92 678.28 C447.24 668.57, 453.17 660.81, 472.72 639.49" stroke="#ced4da" stroke-width="1" fill="none"></path><path d="M0.64 -0.08 C-77.07 115.93, -155.27 230.27, -225.3 339.46 M-225.16 338.36 C-160.72 449.98, -93.31 560.86, -25.07 675.36 M-24.57 675.31 C84.15 676.18, 194.56 674.64, 448.33 673.31 M447.91 674.03 C507.87 562.47, 569.58 451.38, 635.3 333.77 M635.23 335.69 C582.18 254.49, 526.94 174.47, 407.71 2.19 M406.19 1.22 C301.39 2.67, 197.41 3.19, -0.65 -0.63 M0 0 C0 0, 0 0, 0 0" stroke="#000000" stroke-width="2.5" fill="none" stroke-dasharray="8 10"></path></g></g><mask></mask><g stroke-linecap="round"><g transform="translate(421.88686176490364 188.9758495496293) rotate(0 89.82196136377752 167.4347380065413)" fill-rule="evenodd"><path d="M0.45 1.96 L-97.34 168.56 L-9.13 335.46 L197.56 333.43 L276.38 167.73 L179.88 0.29 L0.29 1.04" stroke="none" stroke-width="0" fill="#fcecbc" fill-rule="evenodd"></path><path d="M-0.6 0.25 C-26.43 44.93, -53.61 91.47, -97.19 167.35 M-0.81 -0.05 C-32.97 54.2, -63.09 107.9, -99.71 167.9 M-98.07 168 C-64.06 229.79, -31.73 293.04, -10.21 336.57 M-99.2 167.82 C-73.66 216.54, -46.57 267.53, -10.56 335.74 M-10.69 336.18 C61.9 335.04, 132.31 332.25, 197.21 333.19 M-10.41 335.28 C65.73 333.19, 142.29 334.23, 196.31 333.92 M195.63 335.33 C217.39 297.33, 232.69 260.05, 279.05 166.85 M195.52 334.85 C220.73 278.66, 248.71 224.09, 278.53 166.32 M279.36 166.89 C238.5 103.86, 202.12 39.09, 179.7 0.83 M278.84 166.85 C257.47 130.27, 237.64 95.45, 177.41 1.78 M176.45 -0.07 C141.07 -1.56, 100.27 -2.55, -0.75 -0.67 M177 1.67 C131.48 -0.13, 86.71 -0.11, -0.6 0.93 M0 0 C0 0, 0 0, 0 0 M0 0 C0 0, 0 0, 0 0" stroke="#000000" stroke-width="1" fill="none"></path></g></g><mask></mask><g transform="translate(464.88686176490364 344.4758495496291) rotate(0 49.5 11.5)"><text x="0" y="18" font-family="Helvetica, Segoe UI Emoji" font-size="20px" fill="#000000" text-anchor="start" style="white-space: pre;" direction="ltr">Application</text></g><g stroke-linecap="round" transform="translate(341.999834508229 261.5402558718216) rotate(300.2756897768884 49 23)"><path d="M12.04 -0.6 L86.75 -0.74 L93.09 0.26 L98.88 10.62 L97.35 34.97 L96.42 40.55 L91.89 44.29 L84.54 46.67 L13.36 45.38 L3.06 44.19 L1.77 37.88 L-0.08 9.74 L2.88 3.85 L9.78 -0.1" stroke="none" stroke-width="0" fill="#ffffff"></path><path d="M11.5 0 M11.5 0 C26.99 -0.89, 42.67 -1, 86.5 0 M11.5 0 C33.12 1.22, 54.21 1.47, 86.5 0 M86.5 0 C95.09 1.35, 98.98 4.18, 98 11.5 M86.5 0 C95.7 1.66, 99.66 3.91, 98 11.5 M98 11.5 C99.6 16.99, 98.77 23.62, 98 34.5 M98 11.5 C97.04 19.73, 98.27 26.68, 98 34.5 M98 34.5 C96.47 40.19, 93.4 45.63, 86.5 46 M98 34.5 C99.53 43.8, 94.78 44.17, 86.5 46 M86.5 46 C61.68 47.62, 37.77 45.36, 11.5 46 M86.5 46 C57.92 46.73, 29.28 46.52, 11.5 46 M11.5 46 C5.46 47.02, -1.48 43.52, 0 34.5 M11.5 46 C4.86 45.43, 1.78 43.63, 0 34.5 M0 34.5 C-1.91 26.06, 0.04 22.98, 0 11.5 M0 34.5 C1.14 25.73, -0.45 17.57, 0 11.5 M0 11.5 C-1.64 5.58, 1.99 -1.55, 11.5 0 M0 11.5 C-1.23 5.96, 3.02 -0.2, 11.5 0" stroke="#000000" stroke-width="1" fill="none"></path></g><g transform="translate(376.499834508229 275.5402558718216) rotate(300.2756897768884 14.5 9)"><text x="14.5" y="14" font-family="Helvetica, Segoe UI Emoji" font-size="16px" fill="#000000" text-anchor="middle" style="white-space: pre;" direction="ltr">port</text></g><g stroke-linecap="round" transform="translate(590.776882602991 398.9267938576451) rotate(294.9439052634246 49 23)"><path d="M11.75 -0.74 L86.08 -1.35 L94.57 3.43 L97.17 9.27 L98.03 33.54 L94.76 41.42 L91.55 45.05 L88.36 45.38 L10.07 45.81 L6.08 45.06 L-0.08 38.13 L0.18 9.78 L1.16 2.77 L9.65 0.79" stroke="none" stroke-width="0" fill="#ffffff"></path><path d="M11.5 0 M11.5 0 C39.96 -0.29, 67.93 -0.92, 86.5 0 M11.5 0 C27.2 0.37, 42.49 0.3, 86.5 0 M86.5 0 C95.14 0.35, 99.33 5.27, 98 11.5 M86.5 0 C95.83 0.08, 96.49 5.41, 98 11.5 M98 11.5 C98.77 18.69, 98.8 22.52, 98 34.5 M98 11.5 C98.14 16.03, 97.03 19.75, 98 34.5 M98 34.5 C97.23 41.79, 95.5 47.42, 86.5 46 M98 34.5 C98.61 40.34, 95.04 47.21, 86.5 46 M86.5 46 C62.78 45.53, 36.84 44.62, 11.5 46 M86.5 46 C62.45 46.71, 38.15 46.9, 11.5 46 M11.5 46 C2.35 47.36, 0.89 41.67, 0 34.5 M11.5 46 C5.62 47.46, -0.31 44.12, 0 34.5 M0 34.5 C0.43 29.46, 1.9 19.85, 0 11.5 M0 34.5 C-0.82 29.45, -1.05 23.72, 0 11.5 M0 11.5 C-1.84 2.28, 2.76 1.85, 11.5 0 M0 11.5 C-0.82 3.64, 2.13 -0.86, 11.5 0" stroke="#000000" stroke-width="1" fill="none"></path></g><g transform="translate(625.276882602991 412.9267938576451) rotate(294.9439052634246 14.5 9)"><text x="14.5" y="14" font-family="Helvetica, Segoe UI Emoji" font-size="16px" fill="#000000" text-anchor="middle" style="white-space: pre;" direction="ltr">port</text></g><g stroke-linecap="round" transform="translate(582.776882602991 261.92679385764507) rotate(58.815025341261666 49 23)"><path d="M11.08 -1.35 L87.56 1.81 L92.85 2.09 L97.85 7.84 L96.38 34.41 L94.43 42.18 L95.37 43.76 L85.07 45.81 L13.09 46.68 L4.23 45.32 L0.18 38.17 L-1.54 8.7 L1.02 3.67 L13.07 -0.07" stroke="none" stroke-width="0" fill="#ffffff"></path><path d="M11.5 0 M11.5 0 C32.52 -0.88, 52.34 1.12, 86.5 0 M11.5 0 C38.18 0.12, 64.42 -0.38, 86.5 0 M86.5 0 C95.5 1.44, 99.45 3.9, 98 11.5 M86.5 0 C92.66 1.57, 96.95 5.49, 98 11.5 M98 11.5 C98.71 17.83, 96.09 23.77, 98 34.5 M98 11.5 C97.31 18.78, 97.69 27.86, 98 34.5 M98 34.5 C99.33 43.59, 94.7 44.41, 86.5 46 M98 34.5 C98.87 43.38, 95.14 46.6, 86.5 46 M86.5 46 C60.82 43.78, 32.29 46.23, 11.5 46 M86.5 46 C60.91 46.75, 32.96 46.92, 11.5 46 M11.5 46 C4.72 45.5, 1.55 43.44, 0 34.5 M11.5 46 C3.53 47.96, -0.19 40.2, 0 34.5 M0 34.5 C1.67 28.49, -0.96 26.94, 0 11.5 M0 34.5 C-0.69 28.27, -0.78 19.52, 0 11.5 M0 11.5 C-1.07 5.68, 3.12 -0.17, 11.5 0 M0 11.5 C-1.7 2.97, 3.06 -0.95, 11.5 0" stroke="#000000" stroke-width="1" fill="none"></path></g><g transform="translate(617.276882602991 275.92679385764507) rotate(58.815025341261666 14.5 9)"><text x="14.5" y="14" font-family="Helvetica, Segoe UI Emoji" font-size="16px" fill="#000000" text-anchor="middle" style="white-space: pre;" direction="ltr">port</text></g><g stroke-linecap="round" transform="translate(337.776882602991 406.9267938576451) rotate(62.300527191945065 49 23)"><path d="M12.56 1.81 L85.85 0.47 L93.54 0.66 L96.2 8.71 L96.04 35.17 L98.24 40.89 L92.08 44.19 L88.09 46.68 L11.24 46.93 L4.5 45.35 L-1.54 37.09 L-1.67 9.6 L4.45 2.81 L11.2 0.06" stroke="none" stroke-width="0" fill="#ffffff"></path><path d="M11.5 0 M11.5 0 C30.55 1.35, 54.44 1.26, 86.5 0 M11.5 0 C40.06 -0.33, 68.3 0.21, 86.5 0 M86.5 0 C95.61 0.07, 96.69 5.2, 98 11.5 M86.5 0 C93.12 1.66, 98.12 4.53, 98 11.5 M98 11.5 C96.09 18.17, 99.27 29.07, 98 34.5 M98 11.5 C97.44 18.01, 98.49 25.6, 98 34.5 M98 34.5 C98.53 40.58, 94.93 47.05, 86.5 46 M98 34.5 C98.97 42.77, 95.66 48.25, 86.5 46 M86.5 46 C68.16 45.9, 49.76 46.37, 11.5 46 M86.5 46 C60.89 47.06, 37.2 46.13, 11.5 46 M11.5 46 C5.38 47.27, -0.27 43.87, 0 34.5 M11.5 46 C3.64 44.03, -2.12 42.43, 0 34.5 M0 34.5 C-1.13 27.67, -0.02 15.67, 0 11.5 M0 34.5 C-0.73 25.02, -0.35 18.02, 0 11.5 M0 11.5 C-0.71 3.66, 2.36 -0.75, 11.5 0 M0 11.5 C-0.78 2.89, 2.18 0.15, 11.5 0" stroke="#000000" stroke-width="1" fill="none"></path></g><g transform="translate(372.276882602991 420.9267938576451) rotate(62.300527191945065 14.5 9)"><text x="14.5" y="14" font-family="Helvetica, Segoe UI Emoji" font-size="16px" fill="#000000" text-anchor="middle" style="white-space: pre;" direction="ltr">port</text></g><g stroke-linecap="round" transform="translate(229.59913925164756 160.64902486825133) rotate(30.68038445778768 65.5 28)"><path d="M12.33 0.69 L122.99 1.62 L127.66 4.65 L129.03 11.37 L130.32 48.48 L126.14 54.16 L118.1 54.69 L9.45 54.94 L0.99 49.07 L0.58 46.59 L1.44 10.91 L0.75 6.54 L4.03 3.79 L13.24 0.49" stroke="none" stroke-width="0" fill="#e1f9bd"></path><path d="M14 0 M14 0 C42.12 0.69, 69.77 -0.49, 117 0 M14 0 C46.77 -0.4, 78.85 -0.25, 117 0 M117 0 C124.67 -1.83, 130.88 4.08, 131 14 M117 0 C128.45 0.43, 132.5 6.36, 131 14 M131 14 C131.36 18.2, 132.71 25.03, 131 42 M131 14 C131.21 24.11, 131 32.71, 131 42 M131 42 C129.71 51.07, 127.84 56.46, 117 56 M131 42 C132.12 51.64, 125.09 56.77, 117 56 M117 56 C80.84 55.12, 43.79 58.26, 14 56 M117 56 C79.93 56.66, 43.01 56.32, 14 56 M14 56 C3.49 57.31, -0.07 52.71, 0 42 M14 56 C4.02 54.88, 0.22 53.06, 0 42 M0 42 C-1.24 32.91, 1.63 24.88, 0 14 M0 42 C0.05 34.22, 0.88 26.73, 0 14 M0 14 C-0.31 6.31, 4.4 -1.11, 14 0 M0 14 C-1.35 5.67, 3.73 -0.84, 14 0" stroke="#000000" stroke-width="1" fill="none"></path></g><g transform="translate(238.09913925164756 179.64902486825133) rotate(30.68038445778768 57 9)"><text x="57" y="14" font-family="Helvetica, Segoe UI Emoji" font-size="16px" fill="#000000" text-anchor="middle" style="white-space: pre;" direction="ltr">REST controller</text></g><g stroke-linecap="round" transform="translate(172.7188680243421 408.09629140596786) rotate(351.2091614899079 66 28)"><path d="M13.87 0.75 L122.75 0.05 L126.75 4.16 L131.97 11.07 L131.73 48.25 L127.63 52.72 L119.57 55.82 L6.9 53.67 L2.33 51.84 L1.44 45.47 L-1 11.79 L0.53 7.29 L4.71 2.46 L13.49 1.51" stroke="none" stroke-width="0" fill="#e1f9bd"></path><path d="M14 0 M14 0 C37.91 -1.16, 63.66 1.85, 118 0 M14 0 C39.01 0.19, 64.98 0.05, 118 0 M118 0 C127.22 -0.58, 133.84 5.04, 132 14 M118 0 C128.83 1.69, 130.02 6.47, 132 14 M132 14 C133.51 19.34, 132.89 27.37, 132 42 M132 14 C131.92 22.93, 131.38 32.8, 132 42 M132 42 C133.51 51.79, 128.31 56.27, 118 56 M132 42 C130.75 52.11, 128.47 55.59, 118 56 M118 56 C77.66 56.61, 40.83 55.29, 14 56 M118 56 C82.96 56.31, 48.1 56.98, 14 56 M14 56 C4.6 57.37, -0.56 50.36, 0 42 M14 56 C4.89 57.73, -0.2 52.02, 0 42 M0 42 C1.88 30.59, -0.05 19.66, 0 14 M0 42 C0.75 33.18, -0.12 23.29, 0 14 M0 14 C-0.27 3.55, 3.5 0.87, 14 0 M0 14 C-0.94 3.83, 3.19 0.43, 14 0" stroke="#000000" stroke-width="1" fill="none"></path></g><g transform="translate(188.7188680243421 427.09629140596786) rotate(351.2091614899079 50 9)"><text x="50" y="14" font-family="Helvetica, Segoe UI Emoji" font-size="16px" fill="#000000" text-anchor="middle" style="white-space: pre;" direction="ltr">GUI controller</text></g><g stroke-linecap="round" transform="translate(672.6077441236489 163.99098511291334) rotate(327.3287856669776 65.5 28)"><path d="M12.63 -0.82 L121.37 1.53 L129.22 5.82 L131.39 10.84 L131.23 46.81 L127.1 53.85 L116.02 54.54 L8.24 56.43 L3.19 50.72 L-1 46.35 L-1.22 12.54 L1.21 5.96 L4.95 3.48 L12.74 -0.13" stroke="none" stroke-width="0" fill="#e1f9bd"></path><path d="M14 0 M14 0 C45.51 2.46, 75.24 0.39, 117 0 M14 0 C34.54 -0.12, 56.68 0.5, 117 0 M117 0 C128.17 0.37, 132.3 6.14, 131 14 M117 0 C124.35 1.8, 129.27 4.83, 131 14 M131 14 C132.08 20.69, 131.97 25.99, 131 42 M131 14 C130.32 23.65, 131.73 33.79, 131 42 M131 42 C131.98 51.6, 125.25 56.67, 117 56 M131 42 C132.14 50.92, 128.09 55.83, 117 56 M117 56 C95.85 56.92, 73.08 56.23, 14 56 M117 56 C82.22 56.63, 48.58 56.66, 14 56 M14 56 C4.11 55.03, 0.19 52.84, 0 42 M14 56 C4.46 56.69, 1.8 50.01, 0 42 M0 42 C-0.45 33.75, 0.74 27.62, 0 14 M0 42 C-0.36 33.51, -0.34 22.81, 0 14 M0 14 C-1.17 5.54, 3.85 -0.73, 14 0 M0 14 C-1.48 5.1, 4.51 1.47, 14 0" stroke="#000000" stroke-width="1" fill="none"></path></g><g transform="translate(707.2463180161499 173.99098511291334) rotate(327.3287856669776 34.5 18)"><text x="34.5" y="14" font-family="Helvetica, Segoe UI Emoji" font-size="16px" fill="#000000" text-anchor="middle" style="white-space: pre;" direction="ltr">Postgres </text><text x="34.5" y="32" font-family="Helvetica, Segoe UI Emoji" font-size="16px" fill="#000000" text-anchor="middle" style="white-space: pre;" direction="ltr">adapter</text></g><g stroke-linecap="round"><g transform="translate(352.8389455454362 226.2605249315062) rotate(4.134611657818539 15.731268242088163 8.47347128462286)"><path d="M0 0 C6.68 3.6, 13.36 7.19, 31.46 16.95" stroke="#000000" stroke-width="1.5" fill="none" stroke-dasharray="8 9"></path></g><g transform="translate(352.8389455454362 226.2605249315062) rotate(4.134611657818539 15.731268242088163 8.47347128462286)"><path d="M13.78 14.36 C17.53 14.91, 21.29 15.46, 31.46 16.95" stroke="#000000" stroke-width="1.5" fill="none"></path></g><g transform="translate(352.8389455454362 226.2605249315062) rotate(4.134611657818539 15.731268242088163 8.47347128462286)"><path d="M19.58 3.6 C22.1 6.44, 24.62 9.27, 31.46 16.95" stroke="#000000" stroke-width="1.5" fill="none"></path></g></g><mask></mask><g stroke-linecap="round"><g transform="translate(312.20018672470496 426.59658544364913) rotate(4.39687667608063 17.818905568720083 -5.615018968345311)"><path d="M0 0 C11.86 -3.74, 23.72 -7.47, 35.64 -11.23" stroke="#000000" stroke-width="1.5" fill="none" stroke-dasharray="8 9"></path></g><g transform="translate(312.20018672470496 426.59658544364913) rotate(4.39687667608063 17.818905568720083 -5.615018968345311)"><path d="M20.81 0.14 C25.75 -3.64, 30.68 -7.43, 35.64 -11.23" stroke="#000000" stroke-width="1.5" fill="none"></path></g><g transform="translate(312.20018672470496 426.59658544364913) rotate(4.39687667608063 17.818905568720083 -5.615018968345311)"><path d="M16.97 -12.05 C23.18 -11.78, 29.4 -11.5, 35.64 -11.23" stroke="#000000" stroke-width="1.5" fill="none"></path></g></g><mask></mask><g stroke-linecap="round" transform="translate(713.7259805893359 246.26285003347868) rotate(349.27028931707304 65.5 28)"><path d="M14.61 0.12 L124.23 -0.44 L130.6 5.29 L129.8 9.26 L130.49 49.43 L126.75 54.22 L115.78 57.07 L6.44 56.95 L1.21 51.02 L-0.3 46.8 L-1.04 10.58 L2.01 4.74 L4.33 2.35 L15.88 -1.02" stroke="none" stroke-width="0" fill="#e1f9bd"></path><path d="M14 0 M14 0 C42.35 -0.74, 71.94 0.8, 117 0 M14 0 C42.55 0.54, 68.94 0.59, 117 0 M117 0 C124.83 0.14, 129.21 6.15, 131 14 M117 0 C125.25 1, 131.92 5.54, 131 14 M131 14 C130.07 21.38, 130.88 32.85, 131 42 M131 14 C130.6 23.37, 131.63 31.9, 131 42 M131 42 C132.53 51.18, 124.66 54.82, 117 56 M131 42 C132.7 52.65, 126.51 56.76, 117 56 M117 56 C88.79 54.43, 61.97 55.54, 14 56 M117 56 C79.12 56.25, 40.96 55.8, 14 56 M14 56 C6.23 54.85, -0.94 53.05, 0 42 M14 56 C3.72 55.76, -1.34 52.46, 0 42 M0 42 C1.8 33.6, 1.55 25.54, 0 14 M0 42 C-0.24 34.79, -0.48 28.5, 0 14 M0 14 C-0.14 5.95, 5.11 0.08, 14 0 M0 14 C-1.82 4.72, 3.21 -0.21, 14 0" stroke="#000000" stroke-width="1" fill="none"></path></g><g transform="translate(744.8594897099479 256.2628500334787) rotate(349.27028931707304 38.5 18)"><text x="38.5" y="14" font-family="Helvetica, Segoe UI Emoji" font-size="16px" fill="#000000" text-anchor="middle" style="white-space: pre;" direction="ltr">MongoDB </text><text x="38.5" y="32" font-family="Helvetica, Segoe UI Emoji" font-size="16px" fill="#000000" text-anchor="middle" style="white-space: pre;" direction="ltr">adapter</text></g><g stroke-linecap="round"><g transform="translate(706.2834631102191 291.9278469916793) rotate(345.90382865364427 -17.465342734358728 -0.2832113274266703)"><path d="M0 0 C-12.4 -0.2, -24.8 -0.4, -34.93 -0.57" stroke="#000000" stroke-width="1.5" fill="none" stroke-dasharray="8 9"></path></g><g transform="translate(706.2834631102191 291.9278469916793) rotate(345.90382865364427 -17.465342734358728 -0.2832113274266703)"><path d="M-34.93 -0.57 L-21.24 -6.68 L-21.44 5.99 L-34.93 -0.57" stroke="none" stroke-width="0" fill="#000000" fill-rule="evenodd"></path><path d="M-34.93 -0.57 C-30.07 -2.74, -25.21 -4.91, -21.24 -6.68 M-21.24 -6.68 C-21.31 -2.2, -21.38 2.28, -21.44 5.99 M-21.44 5.99 C-24.72 4.4, -28 2.8, -34.93 -0.57 M-34.93 -0.57 C-34.93 -0.57, -34.93 -0.57, -34.93 -0.57" stroke="#000000" stroke-width="1.5" fill="none"></path></g></g><mask></mask><g stroke-linecap="round"><g transform="translate(678.2450041823413 228.96974493062544) rotate(0 -16.19964346362076 10.722749621547166)"><path d="M0 0 C-7.59 5.02, -15.18 10.05, -32.4 21.45" stroke="#000000" stroke-width="1.5" fill="none" stroke-dasharray="8 9"></path></g><g transform="translate(678.2450041823413 228.96974493062544) rotate(0 -16.19964346362076 10.722749621547166)"><path d="M-32.4 21.45 L-24.56 8.66 L-17.56 19.23 L-32.4 21.45" stroke="none" stroke-width="0" fill="#000000" fill-rule="evenodd"></path><path d="M-32.4 21.45 C-30.56 18.45, -28.73 15.45, -24.56 8.66 M-24.56 8.66 C-22.97 11.07, -21.37 13.48, -17.56 19.23 M-17.56 19.23 C-22.3 19.94, -27.03 20.64, -32.4 21.45 M-32.4 21.45 C-32.4 21.45, -32.4 21.45, -32.4 21.45" stroke="#000000" stroke-width="1.5" fill="none"></path></g></g><mask></mask><g stroke-linecap="round" transform="translate(185.34286557507448 234.73163436788786) rotate(14.784092831421008 65.5 28)"><path d="M15.57 -0.18 L122.15 -0.58 L129.39 6.78 L132 10.91 L128.91 49.2 L124.09 55.85 L116.24 56.49 L7.36 56.64 L0.71 50.4 L0.26 44.55 L-0.92 11.1 L3.84 4.45 L5.27 0.12 L12.21 -1.54" stroke="none" stroke-width="0" fill="#e1f9bd"></path><path d="M14 0 M14 0 C35.75 1.9, 59.05 1.36, 117 0 M14 0 C51.72 -0.74, 90.05 -0.06, 117 0 M117 0 C125.39 0.87, 131.8 5.43, 131 14 M117 0 C126.56 1.14, 130.75 3.44, 131 14 M131 14 C131.42 21.56, 131.23 26.09, 131 42 M131 14 C131.9 23.27, 130.3 32.09, 131 42 M131 42 C132.48 52.48, 126.49 56.66, 117 56 M131 42 C130.39 52.07, 125.46 55.95, 117 56 M117 56 C93.54 55.41, 66.35 56.16, 14 56 M117 56 C79.13 55.73, 39.22 57.17, 14 56 M14 56 C3.85 55.79, -1.16 52.31, 0 42 M14 56 C4.42 56.75, 1.65 53.51, 0 42 M0 42 C-1.34 32.86, 0.64 25.25, 0 14 M0 42 C0.11 35.26, 0.4 27.28, 0 14 M0 14 C-1.58 4.71, 3.4 -0.18, 14 0 M0 14 C-2.18 6.51, 4.51 1.54, 14 0" stroke="#000000" stroke-width="1" fill="none"></path></g><g transform="translate(191.55722519795881 244.73163436788786) rotate(14.784092831421008 57.5 18)"><text x="57.5" y="14" font-family="Helvetica, Segoe UI Emoji" font-size="16px" fill="#000000" text-anchor="middle" style="white-space: pre;" direction="ltr">Message queue</text><text x="57.5" y="32" font-family="Helvetica, Segoe UI Emoji" font-size="16px" fill="#000000" text-anchor="middle" style="white-space: pre;" direction="ltr">adapter</text></g><g stroke-linecap="round"><g transform="translate(323.0836547410827 277.77702264700247) rotate(351.8754818300091 15.834485273916698 6.617659972007061)"><path d="M0 0 C7.95 3.32, 15.91 6.65, 31.67 13.24" stroke="#000000" stroke-width="1.5" fill="none" stroke-dasharray="8 9"></path></g><g transform="translate(323.0836547410827 277.77702264700247) rotate(351.8754818300091 15.834485273916698 6.617659972007061)"><path d="M14.53 12.43 C18.83 12.63, 23.14 12.84, 31.67 13.24" stroke="#000000" stroke-width="1.5" fill="none"></path></g><g transform="translate(323.0836547410827 277.77702264700247) rotate(351.8754818300091 15.834485273916698 6.617659972007061)"><path d="M19.05 1.6 C22.22 4.52, 25.39 7.44, 31.67 13.24" stroke="#000000" stroke-width="1.5" fill="none"></path></g></g><mask></mask><g stroke-linecap="round" transform="translate(729.9425439447609 390.5967396371662) rotate(3.7017290695415466 63.5 31)"><path d="M14.28 1.07 L110.06 1.82 L120.19 2.67 L124.31 7.57 L125.5 11.73 L127.04 45.77 L123.68 56.33 L122.82 58.8 L111.3 60.15 L13.71 60.46 L4.39 57.99 L2.06 55.36 L2.08 50.51 L1.55 13.34 L2.15 5.44 L7.21 1.11 L13.71 1.49" stroke="none" stroke-width="0" fill="#e1f9bd"></path><path d="M15.5 0 M15.5 0 C40.52 -0.19, 65.01 -0.6, 111.5 0 M15.5 0 C39.95 0.35, 63.37 0.26, 111.5 0 M111.5 0 C120.75 0.67, 127.99 4.81, 127 15.5 M111.5 0 C123.59 -0.17, 125.08 3.81, 127 15.5 M127 15.5 C127.84 26.56, 127.82 37.91, 127 46.5 M127 15.5 C126.78 25.42, 126.54 33.48, 127 46.5 M127 46.5 C127.19 58.34, 121.66 62.6, 111.5 62 M127 46.5 C128.8 55.51, 120.75 63.97, 111.5 62 M111.5 62 C87.61 61.22, 62.41 62.88, 15.5 62 M111.5 62 C73.47 62.23, 35.12 63.22, 15.5 62 M15.5 62 C4.35 61.27, -1.29 57.21, 0 46.5 M15.5 62 C5.01 63.47, 0.51 56.92, 0 46.5 M0 46.5 C-0.19 37.75, 1.6 32.66, 0 15.5 M0 46.5 C0.06 34.27, -0.4 23.64, 0 15.5 M0 15.5 C1.83 3.41, 6.47 1.07, 15.5 0 M0 15.5 C-0.9 5.89, 5 -1.9, 15.5 0" stroke="#000000" stroke-width="1" fill="none"></path></g><g transform="translate(745.2492928173219 412.5967396371662) rotate(3.7017290695415466 50 9)"><text x="50" y="14" font-family="Helvetica, Segoe UI Emoji" font-size="16px" fill="#000000" text-anchor="middle" style="white-space: pre;" direction="ltr">Email adapter</text></g><g stroke-linecap="round"><g transform="translate(721.6636184017684 420.3858506528149) rotate(354.691823420662 -22.130494656925066 -3.469151901034195)"><path d="M0 0 C-10.09 -1.58, -20.19 -3.16, -44.26 -6.94" stroke="#000000" stroke-width="1.5" fill="none" stroke-dasharray="8 9"></path></g><g transform="translate(721.6636184017684 420.3858506528149) rotate(354.691823420662 -22.130494656925066 -3.469151901034195)"><path d="M-44.26 -6.94 L-29.85 -11.1 L-31.81 1.43 L-44.26 -6.94" stroke="none" stroke-width="0" fill="#000000" fill-rule="evenodd"></path><path d="M-44.26 -6.94 C-40.97 -7.89, -37.69 -8.83, -29.85 -11.1 M-29.85 -11.1 C-30.48 -7.1, -31.1 -3.1, -31.81 1.43 M-31.81 1.43 C-36.69 -1.85, -41.57 -5.13, -44.26 -6.94 M-44.26 -6.94 C-44.26 -6.94, -44.26 -6.94, -44.26 -6.94" stroke="#000000" stroke-width="1.5" fill="none"></path></g></g><mask></mask><g stroke-linecap="round" transform="translate(692.5226117388588 477.7564805082439) rotate(26.265722874364837 63.5 31)"><path d="M17.32 -0.76 L111.99 -0.51 L122.46 0.92 L124.69 6.1 L126.03 10.73 L127.38 48.38 L123.8 55.75 L119.09 58.03 L109.96 60.34 L13.67 61.88 L5.47 61.66 L2.55 57.25 L1.71 48.41 L1.81 10.36 L4.02 2.09 L10.2 0.02 L16.37 0.8" stroke="none" stroke-width="0" fill="#e1f9bd"></path><path d="M15.5 0 M15.5 0 C47.74 -1.54, 79.12 -0.74, 111.5 0 M15.5 0 C51.69 -1.01, 87.94 0.03, 111.5 0 M111.5 0 C121.48 1.53, 126.85 3.5, 127 15.5 M111.5 0 C120.48 1.7, 128.32 5.35, 127 15.5 M127 15.5 C126.16 25.79, 125.74 37.47, 127 46.5 M127 15.5 C126.73 24.79, 127.97 33.8, 127 46.5 M127 46.5 C127.6 58.4, 120.68 61.06, 111.5 62 M127 46.5 C128.97 55.89, 121.59 60.66, 111.5 62 M111.5 62 C79.45 64.21, 44.22 63.95, 15.5 62 M111.5 62 C84.43 61.03, 56.13 60.79, 15.5 62 M15.5 62 C5.54 61.86, 1.28 57.28, 0 46.5 M15.5 62 C5.26 60.18, 0.05 55.38, 0 46.5 M0 46.5 C0.16 38.82, -0.95 29.37, 0 15.5 M0 46.5 C0.17 38.52, -0.62 29.36, 0 15.5 M0 15.5 C1.07 4.39, 5.8 -0.15, 15.5 0 M0 15.5 C-1.9 5.83, 3.84 0.78, 15.5 0" stroke="#000000" stroke-width="1" fill="none"></path></g><g transform="translate(710.8293606114198 499.7564805082439) rotate(26.265722874364837 47 9)"><text x="47" y="14" font-family="Helvetica, Segoe UI Emoji" font-size="16px" fill="#000000" text-anchor="middle" style="white-space: pre;" direction="ltr">SMS adapter</text></g><g stroke-linecap="round"><g transform="translate(693.9901179835388 478.42189043642986) rotate(10.082827420387847 -19.605964619098586 -4.826726260549663)"><path d="M0 0 C-12.73 -3.13, -25.46 -6.27, -39.21 -9.65" stroke="#000000" stroke-width="1.5" fill="none" stroke-dasharray="8 9"></path></g><g transform="translate(693.9901179835388 478.42189043642986) rotate(10.082827420387847 -19.605964619098586 -4.826726260549663)"><path d="M-39.21 -9.65 L-24.5 -12.56 L-27.53 -0.25 L-39.21 -9.65" stroke="none" stroke-width="0" fill="#000000" fill-rule="evenodd"></path><path d="M-39.21 -9.65 C-34.43 -10.6, -29.66 -11.54, -24.5 -12.56 M-24.5 -12.56 C-25.38 -8.99, -26.25 -5.42, -27.53 -0.25 M-27.53 -0.25 C-31.89 -3.76, -36.26 -7.27, -39.21 -9.65 M-39.21 -9.65 C-39.21 -9.65, -39.21 -9.65, -39.21 -9.65" stroke="#000000" stroke-width="1.5" fill="none"></path></g></g><mask></mask><g stroke-linecap="round" transform="translate(211.61162882386589 489.87959369653737) rotate(330.4069959267462 66 29.5)"><path d="M14.24 1.51 L122.44 0.79 L129.97 5.03 L130.63 11.68 L132.95 49.69 L126.04 55.08 L115.46 57.46 L6.63 56.25 L3.57 54.73 L2.07 48.08 L1.53 12.76 L1.97 5.26 L6.79 1.07 L12.96 1.49" stroke="none" stroke-width="0" fill="#e1f9bd"></path><path d="M14.75 0 M14.75 0 C41.42 -0.21, 67.55 -0.63, 117.25 0 M14.75 0 C40.8 0.36, 65.83 0.27, 117.25 0 M117.25 0 C126 0.67, 132.99 4.56, 132 14.75 M117.25 0 C128.84 -0.17, 130.08 3.56, 132 14.75 M132 14.75 C132.83 25.25, 132.81 36.04, 132 44.25 M132 14.75 C131.79 24.22, 131.55 31.83, 132 44.25 M132 44.25 C132.19 55.59, 126.91 59.6, 117.25 59 M132 44.25 C133.8 52.76, 126 60.97, 117.25 59 M117.25 59 C91.67 58.19, 64.8 59.84, 14.75 59 M117.25 59 C76.65 59.28, 35.74 60.28, 14.75 59 M14.75 59 C4.1 58.27, -1.29 54.46, 0 44.25 M14.75 59 C4.76 60.47, 0.51 54.17, 0 44.25 M0 44.25 C-0.19 35.83, 1.6 31.07, 0 14.75 M0 44.25 C0.05 32.57, -0.41 22.5, 0 14.75 M0 14.75 C1.83 3.16, 6.22 1.07, 14.75 0 M0 14.75 C-0.9 5.64, 4.75 -1.9, 14.75 0" stroke="#000000" stroke-width="1" fill="none"></path></g><g transform="translate(224.61162882386589 501.37959369653737) rotate(330.4069959267462 53 18)"><text x="53" y="14" font-family="Helvetica, Segoe UI Emoji" font-size="16px" fill="#000000" text-anchor="middle" style="white-space: pre;" direction="ltr">Web app view </text><text x="53" y="32" font-family="Helvetica, Segoe UI Emoji" font-size="16px" fill="#000000" text-anchor="middle" style="white-space: pre;" direction="ltr">controller</text></g><g stroke-linecap="round"><g transform="translate(338.60033997648543 481.7579621866614) rotate(352.16274994535183 18.095821899347357 -7.069476827609293)"><path d="M0 0 C8.57 -3.35, 17.15 -6.7, 36.19 -14.14" stroke="#000000" stroke-width="1.5" fill="none" stroke-dasharray="8 9"></path></g><g transform="translate(338.60033997648543 481.7579621866614) rotate(352.16274994535183 18.095821899347357 -7.069476827609293)"><path d="M21.61 -1.31 C25.06 -4.35, 28.52 -7.39, 36.19 -14.14" stroke="#000000" stroke-width="1.5" fill="none"></path></g><g transform="translate(338.60033997648543 481.7579621866614) rotate(352.16274994535183 18.095821899347357 -7.069476827609293)"><path d="M16.77 -13.68 C21.37 -13.79, 25.97 -13.9, 36.19 -14.14" stroke="#000000" stroke-width="1.5" fill="none"></path></g></g><mask></mask><g stroke-linecap="round" transform="translate(921.8750396476444 408.9333629591946) rotate(359.1381054300562 31.56501391047732 18.41292478111174)"><path d="M-1.74 0.02 L64.76 0.24 L62.79 38.05 L0.2 38.06" stroke="none" stroke-width="0" fill="#bdddf0"></path><path d="M0.28 -1.27 C17.1 -1.06, 32.66 1.78, 63.16 1.35 M-0.03 0.48 C20.59 -0.44, 42.37 0.34, 63.15 -0.85 M61.47 -1.93 C62.61 8.24, 64.56 20.67, 64.79 34.9 M62.26 0.6 C62.91 9.01, 63.06 15.41, 63.31 37.6 M61.97 36.8 C47.57 36.63, 34.47 38.26, 0.26 35.65 M63.68 36.77 C46.95 36.46, 28.04 36.85, -0.31 36.92 M-1.95 36.91 C-0.28 23.99, -0.01 12.28, 0.26 1 M-0.91 36.66 C0.82 24.87, 0.97 13.6, -0.93 -0.4" stroke="#000000" stroke-width="1" fill="none"></path></g><g stroke-linecap="round"><g transform="translate(922.294771866284 408.41578437554017) rotate(359.1381054300562 30.526734830858913 11.865018318318732)"><path d="M-1.27 0.95 C7.41 7.48, 18.91 14.31, 31.86 25.81 M0.48 -0.12 C7.21 7.36, 15.73 12.85, 29.67 24.8 M28.58 24.89 C37.14 20.44, 48.19 13.86, 59.62 -2.08 M31.12 24.98 C41.1 17.32, 49.06 9.53, 62.33 -1.28" stroke="#000000" stroke-width="1" fill="none"></path></g></g><mask></mask><g stroke-linecap="round"><g transform="translate(922.5271692308847 445.53753193291925) rotate(359.1381054300562 10.740628510192437 -9.660095992404365)"><path d="M0.95 -1.19 C6.23 -3.22, 11.8 -8.54, 21.61 -18.81 M-0.12 -0.51 C7.03 -5.01, 12.2 -11.29, 20.59 -18.31" stroke="#000000" stroke-width="1" fill="none"></path></g></g><mask></mask><g stroke-linecap="round"><g transform="translate(984.0867458209746 444.9421724177009) rotate(359.1381054300562 -11.238346687928242 -8.843944491187898)"><path d="M-1.19 0.36 C-4.83 -5.65, -11.74 -10.89, -21.97 -18.63 M-0.51 0.94 C-6.07 -5.47, -13.43 -11.41, -21.46 -17.47" stroke="#000000" stroke-width="1" fill="none"></path></g></g><mask></mask><g transform="translate(908.773754478666 451.90751578773234) rotate(359.1381054300562 44 9)"><text x="44" y="14" font-family="Helvetica, Segoe UI Emoji" font-size="16px" fill="#000000" text-anchor="middle" style="white-space: pre;" direction="ltr">email server</text></g><g stroke-linecap="round"><g transform="translate(928.6684099931203 217.78273887899252) rotate(0 22.118846346482314 23.757725521070995)" fill-rule="evenodd"><path d="M1.37 0.28 L-1.53 48.14 L2 48.99 L10.45 50.17 L24.96 54.24 L36.84 51.63 L42.37 51 L46.02 49.5 L43.19 -0.44 L37.34 -2 L22.8 -4.94 L4.96 -4.92 L-0.08 -1.09" stroke="none" stroke-width="0" fill="#bdddf0" fill-rule="evenodd"></path><path d="M0.56 -0.47 C0.94 6.43, 1.47 34.21, 1.34 42.26 C1.2 50.31, -0.58 46.3, -0.24 47.82 C0.1 49.34, 1.74 50.77, 3.37 51.38 C5 51.99, 6.02 51.35, 9.53 51.48 C13.05 51.61, 19.91 52.1, 24.44 52.17 C28.97 52.25, 33.78 52.52, 36.73 51.96 C39.69 51.39, 40.99 49.53, 42.16 48.8 C43.34 48.07, 43.25 48.52, 43.79 47.58 C44.34 46.63, 45.25 50.38, 45.41 43.12 C45.58 35.86, 45.07 11.32, 44.77 4.01 C44.47 -3.3, 44.26 0.24, 43.63 -0.76 C42.99 -1.75, 42.57 -1.6, 40.98 -1.96 C39.38 -2.32, 37.2 -2.51, 34.07 -2.91 C30.95 -3.3, 26.21 -4.1, 22.23 -4.34 C18.25 -4.58, 13.58 -4.6, 10.17 -4.32 C6.76 -4.05, 3.46 -3.33, 1.76 -2.7 C0.05 -2.08, 0.18 -1.16, -0.07 -0.58 C-0.32 0.01, 0.36 0.51, 0.24 0.79 M-0.61 -1.76 C-0.19 5.18, 1.1 34.86, 1.01 43.32 C0.93 51.78, -1.05 47.98, -1.13 48.99 C-1.21 50.01, -1.55 49, 0.53 49.43 C2.62 49.86, 7.69 51.34, 11.38 51.59 C15.06 51.84, 18.28 51.06, 22.65 50.92 C27.02 50.78, 33.97 51.23, 37.57 50.75 C41.18 50.28, 42.94 48.84, 44.28 48.07 C45.62 47.29, 45.81 47.07, 45.62 46.11 C45.43 45.15, 43.17 49.14, 43.14 42.32 C43.11 35.5, 45.6 12.5, 45.42 5.2 C45.24 -2.1, 42.78 -0.18, 42.07 -1.49 C41.36 -2.79, 42.09 -2.4, 41.17 -2.61 C40.24 -2.83, 39.54 -2.41, 36.51 -2.77 C33.48 -3.14, 27.22 -4.7, 22.98 -4.79 C18.73 -4.87, 14.79 -3.67, 11.04 -3.27 C7.28 -2.88, 2.5 -2.87, 0.43 -2.4 C-1.64 -1.94, -1.14 -1.14, -1.38 -0.5 C-1.62 0.15, -1.13 1.39, -1.02 1.46" stroke="#000000" stroke-width="1" fill="none"></path></g></g><mask></mask><g stroke-linecap="round" transform="translate(928.3846126394255 212.74055047214995) rotate(0 21.990191868302645 4.447350866357851)"><path d="M26.94 -0.85 C31.23 -0.74, 36.87 0.49, 39.72 1.28 C42.57 2.08, 44.43 2.82, 44.04 3.94 C43.65 5.06, 40.72 7.17, 37.39 8.02 C34.06 8.87, 28.64 9.18, 24.06 9.06 C19.48 8.93, 13.83 7.74, 9.9 7.26 C5.96 6.79, 1.79 7.07, 0.44 6.2 C-0.9 5.33, -0.08 2.83, 1.84 2.04 C3.76 1.24, 7.57 1.71, 11.96 1.43 C16.36 1.14, 25.23 0.55, 28.21 0.32 C31.19 0.09, 29.73 0.01, 29.84 0.05 M13.34 0.97 C17.22 0.54, 24.4 0.83, 28.91 0.84 C33.42 0.85, 37.82 0.56, 40.41 1.01 C42.99 1.46, 45.02 2.47, 44.42 3.53 C43.82 4.59, 40.36 6.43, 36.81 7.38 C33.27 8.33, 27.56 9.02, 23.15 9.25 C18.73 9.48, 13.98 9.32, 10.32 8.77 C6.66 8.21, 2.49 6.97, 1.18 5.93 C-0.13 4.9, 0.23 3.23, 2.45 2.55 C4.68 1.86, 12.75 2.14, 14.53 1.82 C16.3 1.5, 13.02 0.66, 13.1 0.61" stroke="none" stroke-width="0" fill="#fff"></path><path d="M14.7 1.29 C18.69 0.86, 23.82 -0.3, 28.27 -0.23 C32.72 -0.15, 38.75 0.84, 41.38 1.76 C44.02 2.68, 45 4.41, 44.08 5.3 C43.15 6.2, 39.46 6.56, 35.86 7.14 C32.25 7.71, 26.87 8.71, 22.46 8.76 C18.05 8.8, 12.98 7.91, 9.4 7.4 C5.83 6.88, 2.17 6.61, 1 5.69 C-0.17 4.77, -0.47 2.76, 2.36 1.87 C5.2 0.98, 14.78 0.56, 17.99 0.35 C21.21 0.14, 21.47 0.55, 21.65 0.6 M17.96 -0.02 C22.32 -0.11, 28.71 0.64, 33.04 0.99 C37.37 1.34, 42.14 1.07, 43.92 2.09 C45.71 3.12, 45.65 6.3, 43.74 7.16 C41.82 8.03, 36.85 7.04, 32.44 7.28 C28.03 7.52, 22.07 8.57, 17.27 8.58 C12.48 8.59, 6.79 7.9, 3.68 7.36 C0.57 6.81, -1.92 6.23, -1.37 5.31 C-0.82 4.39, 3.57 2.79, 6.97 1.82 C10.36 0.84, 16.78 -0.48, 18.99 -0.54 C21.19 -0.6, 19.96 1.42, 20.18 1.46" stroke="#000000" stroke-width="1" fill="none"></path></g><g transform="translate(939.3087241303356 232.6812221706465) rotate(0 5.5 10)"><text x="0" y="16" font-family="Cascadia, Segoe UI Emoji" font-size="16.79752887456189px" fill="#495057" text-anchor="start" style="white-space: pre;" direction="ltr">{</text></g><g transform="translate(951.9622298738841 232.95527092250347) rotate(0 5.5 10)"><text x="0" y="16" font-family="Cascadia, Segoe UI Emoji" font-size="16.89243016763851px" fill="#495057" text-anchor="start" style="white-space: pre;" direction="ltr">}</text></g><g transform="translate(914.0822175658154 275.0681518321859) rotate(0 35.5 18)"><text x="35.5" y="14" font-family="Helvetica, Segoe UI Emoji" font-size="16px" fill="#000000" text-anchor="middle" style="white-space: pre;" direction="ltr">MongoDB</text><text x="35.5" y="32" font-family="Helvetica, Segoe UI Emoji" font-size="16px" fill="#000000" text-anchor="middle" style="white-space: pre;" direction="ltr">server</text></g><g stroke-linecap="round"><g transform="translate(853.5697159824458 90.64023109543484) rotate(0 22.088975509583406 23.979580244899694)" fill-rule="evenodd"><path d="M1.8 -1.93 L-0.33 49.53 L3.51 51.49 L9.8 51.04 L24.69 53.47 L38.12 50.47 L41.32 49.86 L44.65 49.23 L42.94 -2.09 L39.24 -1.89 L22.23 -3.57 L5.16 -3.55 L0 0.42" stroke="none" stroke-width="0" fill="#bdddf0" fill-rule="evenodd"></path><path d="M0.88 -0.7 C0.74 6.42, -0.87 34.32, -1 42.59 C-1.14 50.86, -0.47 47.74, 0.08 48.92 C0.63 50.1, 0.72 49.28, 2.3 49.66 C3.88 50.05, 6.06 50.68, 9.56 51.22 C13.05 51.76, 18.74 52.73, 23.29 52.91 C27.83 53.1, 33.63 52.82, 36.82 52.35 C40.02 51.88, 41.06 50.96, 42.46 50.07 C43.87 49.18, 45.07 48.03, 45.26 47.01 C45.45 46, 43.94 51.25, 43.6 43.97 C43.26 36.69, 43.02 10.68, 43.21 3.31 C43.41 -4.06, 45.12 0.73, 44.77 -0.25 C44.42 -1.23, 42.86 -2.03, 41.1 -2.57 C39.34 -3.11, 37.49 -3.2, 34.2 -3.47 C30.91 -3.75, 25.44 -4.31, 21.38 -4.22 C17.33 -4.12, 13.04 -3.31, 9.88 -2.89 C6.72 -2.46, 4.27 -2.24, 2.44 -1.68 C0.62 -1.12, -0.82 0.36, -1.07 0.46 C-1.33 0.57, 0.72 -0.76, 0.94 -1.03 M-0.11 1.55 C0.1 8.82, 1.19 36.18, 1.11 43.74 C1.02 51.31, -0.88 45.83, -0.64 46.93 C-0.4 48.04, 0.54 49.69, 2.55 50.39 C4.55 51.08, 7.73 50.84, 11.39 51.11 C15.05 51.37, 20.13 51.94, 24.51 51.96 C28.88 51.99, 34.29 51.61, 37.65 51.27 C41.01 50.93, 43.58 50.33, 44.66 49.92 C45.74 49.51, 44.23 49.89, 44.11 48.83 C44 47.76, 44.15 50.99, 43.96 43.54 C43.77 36.09, 43.01 11.51, 42.97 4.13 C42.94 -3.25, 44.02 0.56, 43.74 -0.72 C43.46 -2, 42.47 -3.05, 41.29 -3.54 C40.1 -4.02, 39.91 -3.46, 36.64 -3.63 C33.37 -3.81, 26 -4.41, 21.65 -4.59 C17.31 -4.77, 13.94 -5.36, 10.57 -4.73 C7.21 -4.11, 3.11 -1.81, 1.47 -0.84 C-0.17 0.13, 0.99 1.17, 0.75 1.09 C0.51 1.01, 0.03 -1.15, 0.04 -1.32" stroke="#000000" stroke-width="1" fill="none"></path></g></g><mask></mask><g stroke-linecap="round" transform="translate(853.727152796957 85.45831856467032) rotate(0 22.061565822587454 4.461785711643643)"><path d="M27.8 -0.12 C32.13 0.02, 37.44 1.4, 40.29 2.16 C43.14 2.92, 45.41 3.55, 44.9 4.44 C44.4 5.33, 40.78 6.75, 37.24 7.51 C33.7 8.26, 28.33 8.72, 23.67 8.95 C19 9.19, 13 9.33, 9.27 8.89 C5.55 8.45, 2.62 7.45, 1.3 6.3 C-0.03 5.14, -0.77 3, 1.31 1.95 C3.4 0.89, 8.97 0.21, 13.8 -0.06 C18.63 -0.33, 27.19 0.22, 30.27 0.32 C33.35 0.41, 32.57 0.48, 32.29 0.51 M12.37 -0.17 C16.39 -0.46, 22.68 0.95, 27.44 1.39 C32.2 1.83, 37.97 2.15, 40.92 2.47 C43.87 2.79, 45.66 2.46, 45.15 3.31 C44.63 4.15, 41.51 6.43, 37.81 7.53 C34.11 8.64, 27.87 10.08, 22.94 9.94 C18.01 9.8, 11.69 7.22, 8.21 6.67 C4.74 6.12, 2.91 7.43, 2.09 6.65 C1.27 5.87, 1.31 3.17, 3.28 2 C5.26 0.83, 12.54 -0.13, 13.95 -0.38 C15.37 -0.63, 12.1 0.21, 11.78 0.52" stroke="none" stroke-width="0" fill="#fff"></path><path d="M15.46 -0.39 C19.56 -0.95, 25.66 -0.95, 29.97 -0.46 C34.28 0.03, 39.02 1.5, 41.34 2.55 C43.66 3.6, 44.98 4.89, 43.88 5.85 C42.79 6.81, 38.44 7.92, 34.78 8.31 C31.12 8.7, 26.63 8.27, 21.91 8.18 C17.19 8.09, 10.25 8.35, 6.48 7.78 C2.72 7.21, -0.3 5.74, -0.7 4.77 C-1.1 3.81, 1.26 2.8, 4.08 1.99 C6.89 1.19, 14.14 0.22, 16.19 -0.07 C18.24 -0.36, 16.26 0.09, 16.36 0.25 M16.37 -1.15 C20.51 -1.37, 27.76 0.91, 31.81 1.57 C35.86 2.23, 38.99 1.9, 40.68 2.79 C42.37 3.68, 43.16 6.08, 41.95 6.92 C40.74 7.77, 36.89 7.4, 33.44 7.88 C29.98 8.37, 25.55 9.92, 21.22 9.83 C16.89 9.73, 11.1 8.02, 7.44 7.33 C3.78 6.63, -0.26 6.36, -0.76 5.67 C-1.26 4.98, 1.77 4.33, 4.42 3.17 C7.06 2, 13.12 -0.86, 15.12 -1.31 C17.12 -1.76, 16.01 0.3, 16.39 0.45" stroke="#000000" stroke-width="1" fill="none"></path></g><g transform="translate(831.0822175658154 148.0681518321859) rotate(0 43.5 18)"><text x="43.5" y="14" font-family="Helvetica, Segoe UI Emoji" font-size="16px" fill="#000000" text-anchor="middle" style="white-space: pre;" direction="ltr">PostgreSQL</text><text x="43.5" y="32" font-family="Helvetica, Segoe UI Emoji" font-size="16px" fill="#000000" text-anchor="middle" style="white-space: pre;" direction="ltr">server</text></g><g stroke-linecap="round"><g transform="translate(62.38651969565399 147.1608131061597) rotate(269.83845249062614 14.729840290289303 65.14955553057337)" fill-rule="evenodd"><path d="M0 0 C0 0, 0 0, 0 0 M0 0 C0 0, 0 0, 0 0 M-0.31 6.66 C0.26 5.25, 2.74 4.37, 6.37 -1.07 M-0.68 6.14 C2.44 4.08, 4.72 0.86, 5.25 -0.58 M-0.51 11.24 C2.73 7.64, 4.19 5.94, 10.56 -0.64 M0.14 11.46 C2.49 9.19, 5.81 6.25, 10.11 -0.15 M0.92 18.84 C5.35 14.53, 7.69 10.02, 15.46 1.48 M-0.87 17.6 C6.72 11.87, 12.42 5.64, 15.87 -0.08 M-0.06 24.92 C4.25 17.72, 10.23 11.89, 22.85 0.48 M1.04 23.25 C6.81 16.85, 14.56 7.23, 20.86 0.08 M-0.92 30.71 C9.72 17.49, 21.79 8.26, 25.5 -1.94 M-0.03 31.26 C6.97 22.21, 14.6 13.58, 27.18 -0.88 M-1.51 34.47 C9.49 25.16, 14.65 19.74, 29.33 -0.9 M1.09 35.64 C9.42 26.25, 19.71 15.06, 30.91 0.36 M1.62 43.21 C5.9 33.81, 14.19 25.96, 32.4 5.18 M-0.63 42.89 C8.73 32.66, 16.27 24.07, 31 7.95 M0.81 47.38 C8.42 41.98, 15.78 33.52, 29.83 13.22 M-0.9 49.31 C10.36 36.92, 19.67 25.21, 30.98 13.05 M-1.55 53.06 C11.16 43.41, 21.55 32.85, 31.77 20.72 M-0.07 54.77 C10.03 44.13, 19.33 33.88, 30.9 19.72 M-1.95 60.15 C11.52 48.07, 19.67 40.17, 30.98 25.96 M-0.15 61.51 C8.6 49.26, 18.08 39.55, 31.81 24.65 M-0.11 67.07 C8.82 56.16, 20.99 42.45, 29.94 30.14 M-0.23 66.38 C7.34 58.61, 16.32 47.67, 30.77 31.94 M0.84 72.66 C7.99 61.18, 18.85 50.99, 29.94 37.61 M-0.77 73.45 C6.8 64.17, 14.99 57.68, 30.84 36.9 M-1.34 80.15 C7.14 69.43, 15.67 60.63, 32.72 42.52 M-0.41 79.43 C9.03 68.85, 16.91 58.26, 30.64 43.31 M-0.16 83.11 C12.15 71.22, 19.42 62.99, 30.31 48.8 M-0.2 84.3 C8.49 76.73, 16.22 67.81, 31.08 49 M-0.11 89.32 C6.71 84.45, 12.03 74.12, 30.66 56.8 M1.6 90.79 C11.34 78.24, 21.41 67.26, 30.91 55.04 M-0.85 98.79 C10.91 83.32, 23.6 69.92, 30.75 63.5 M1.21 96.93 C11.64 82.11, 24.73 70.16, 30.74 61.61 M-1.54 104.41 C5.46 94.19, 14.5 89.13, 31.68 68.72 M-0.07 104.33 C10.75 91.59, 23.28 76.97, 30.01 68.75 M2.25 110.11 C8.8 97.92, 17.63 87.24, 29.66 72.53 M1.13 108.92 C8.09 100.61, 16.43 90.95, 30.93 75.36 M-0.37 115.12 C5.71 107.94, 14.21 97.99, 31.14 81.41 M0.22 114.82 C7.85 107.72, 13.89 98.04, 31.44 80.03 M3.35 119.05 C12.83 106.78, 22.3 95, 29.85 84.53 M1.58 120.03 C11.25 109.99, 20.24 98.42, 31.26 86.79 M5.68 124.19 C13.29 113.42, 22.93 101.96, 32.48 92.33 M5.26 122.25 C10.86 115.44, 16.48 109.38, 31.4 92.42 M6.03 124.4 C12.45 117.27, 20.65 112.58, 32.51 96.53 M8.61 124.46 C16.87 114.28, 24.85 104.78, 30.93 97.94 M12.07 128.78 C16.75 122.13, 24.86 113.81, 31.86 104.78 M10.19 128.1 C17.79 119.61, 24.83 110.11, 30.49 103.92 M14.75 131.89 C19.45 124.98, 24.69 117.42, 29.96 108.86 M12.79 129.93 C21.01 123.07, 27.95 114.23, 30.34 110.26 M18.02 132.63 C18.97 127.39, 24.32 124.12, 30.85 118.89 M16.01 134.52 C19.32 128.97, 23.14 124.74, 31.32 116.97" stroke="#bdddf0" stroke-width="0.5" fill="none"></path><path d="M-1.1 -1.8 C8.9 -0.72, 14.27 0.16, 29.27 1.09 M-0.52 -0.15 C11.75 0.24, 21.6 0.47, 30.55 0.27 M31.04 -1.92 C28.62 40.11, 29.75 76.34, 31.22 120.56 M30.78 0.7 C29.24 47.31, 29.21 93.09, 29.95 118.18 M28.04 117.42 C24.81 124.15, 20.45 127.77, 16.15 132.16 M30.06 118.09 C23.56 123.03, 18.15 129.53, 14.08 130.96 M12.82 130.77 C11.41 126.83, 7.6 124.58, -0.83 117.52 M15.43 132.22 C9.93 126.01, 4.48 122.38, 0.04 118.49 M-0.22 116.11 C-1.96 91.78, -2.2 67.03, -1.07 -1.53 M0.94 118.17 C2.16 88.35, 0.81 59.55, -0.03 -0.35 M0 0 C0 0, 0 0, 0 0 M0 0 C0 0, 0 0, 0 0" stroke="#000000" stroke-width="1" fill="none"></path></g></g><mask></mask><g stroke-linecap="round"><g transform="translate(68.24770603895831 216.3922690214573) rotate(0 14.775845791410347 0.02476784227388862)"><path d="M-0.62 -0.69 C7.87 -1.38, 16.38 0.74, 30.17 0.87" stroke="#000000" stroke-width="1.5" fill="none" stroke-dasharray="1.5 7"></path></g></g><mask></mask><g stroke-linecap="round" transform="translate(46.18755618110845 207.61098899928322) rotate(0 12.382541755330976 7.223149357276441)"><path d="M-0.02 1.52 L26.38 -0.56 L26.61 15.19 L-1.02 14.14" stroke="none" stroke-width="0" fill="#bdddf0"></path><path d="M1.94 -0.93 C4.54 1.67, 10.03 0.02, 24.44 0.28 M0.92 0.66 C10.16 -1.07, 19.59 0.8, 24.52 0.99 M24.33 1.4 C23.73 6.78, 24.48 9.44, 24.42 14.71 M24.87 -0.05 C24.82 4.03, 24.68 7.1, 24.29 13.73 M24.64 13.57 C18.54 16, 12.01 14.5, 0.44 13.64 M25.33 13.92 C17.78 14.67, 10.02 15.17, -0.09 14.31 M-0.68 13.19 C1.21 12.39, 0.73 8.15, 0.7 0.15 M0.39 13.81 C-0.46 10.76, -0.39 8.06, -0.14 -0.67" stroke="#000000" stroke-width="1" fill="none"></path></g><g stroke-linecap="round"><g transform="translate(46.39393187703081 207.40461330336097) rotate(0 11.855048329340661 5.206056263161088)"><path d="M-0.73 -0.47 C5.8 3.56, 9.2 7.38, 12.19 11.33 M0.52 0.36 C2.17 2.35, 6.41 4.31, 12.74 10.47 M13.51 8.92 C16.08 7.7, 15.59 5.4, 24.44 -0.92 M11.92 9.83 C17.15 5.73, 21.2 1.51, 23.36 -0.65" stroke="#000000" stroke-width="1" fill="none"></path></g></g><mask></mask><g stroke-linecap="round"><g transform="translate(46.39393187703081 221.85091201791386) rotate(0 4.459807206403411 -3.460528082176836)"><path d="M-0.33 0.82 C1.76 -1.71, 3.7 -3.16, 9.25 -7.74 M0.25 -0.48 C3.13 -2.15, 5.98 -4.77, 8.65 -7.53" stroke="#000000" stroke-width="1" fill="none"></path></g></g><mask></mask><g stroke-linecap="round"><g transform="translate(70.53988829992659 221.85091201791386) rotate(0 -4.079059770929462 -3.7439825476078)"><path d="M0.83 -0.14 C-3.32 -3.07, -6.36 -4.75, -8.99 -6.41 M-0.49 0.11 C-2.75 -2.93, -5.98 -5.23, -8.77 -7.6" stroke="#000000" stroke-width="1" fill="none"></path></g></g><mask></mask><g stroke-linecap="round" transform="translate(17.248888878941216 208.0983519303419) rotate(0 12.382541755330976 7.223149357276441)"><path d="M1.8 0.45 L25.59 -1.95 L25.17 14.47 L1.18 15.33" stroke="none" stroke-width="0" fill="#bdddf0"></path><path d="M0.55 2 C6.02 -1.47, 10.1 -0.41, 23.44 -1.78 M0.38 0.16 C7.19 -0.51, 13.3 0.19, 25.21 -1 M25.68 -0.33 C25.71 2.52, 24.33 6.3, 25.38 13.65 M25.1 0.13 C24.75 3.18, 24.38 6.16, 24.85 14.45 M25.76 15.09 C15.4 14.64, 6.58 14.94, -0.64 15.9 M24.24 13.8 C18.4 14.79, 12.68 14.65, 0.05 14.06 M-1.18 13.09 C-0.9 10.26, 0.77 5.81, 0.67 0.88 M-0.03 14.61 C0.04 9.6, -0.55 3.63, 0.14 0.48" stroke="#000000" stroke-width="1" fill="none"></path></g><g stroke-linecap="round"><g transform="translate(17.455264574864486 207.89197623441976) rotate(0 12.139333790493993 4.646305777811563)"><path d="M1.55 0.7 C2.69 2.83, 7.1 4.86, 10.58 9.67 M0.13 0.11 C4.26 3.02, 9.27 7.7, 11.2 9.28 M11.61 11.07 C13.94 7.29, 17.25 6.1, 23.28 -1.77 M12.11 9.81 C16.47 5.77, 20.85 2.81, 24.15 0.27" stroke="#000000" stroke-width="1" fill="none"></path></g></g><mask></mask><g stroke-linecap="round"><g transform="translate(17.455264574864486 222.33827494897253) rotate(0 4.082844195994994 -3.8279144953675655)"><path d="M0.49 -0.68 C3.11 -2.91, 5.66 -6.48, 8.09 -6.22 M0.07 -0.19 C2.53 -2.37, 6.21 -5.65, 7.82 -7.46" stroke="#000000" stroke-width="1" fill="none"></path></g></g><mask></mask><g stroke-linecap="round"><g transform="translate(41.60122099775981 222.33827494897253) rotate(0 -4.4510167488551815 -3.7339059017575664)"><path d="M-0.69 -0.07 C-2.88 -3.06, -6.46 -4.86, -7.45 -6.53 M-0.19 -0.45 C-2.61 -2.19, -6.14 -5.32, -8.71 -7.4" stroke="#000000" stroke-width="1" fill="none"></path></g></g><mask></mask><g stroke-linecap="round" transform="translate(101.24888887894122 208.0983519303419) rotate(0 12.382541755330976 7.223149357276441)"><path d="M-1.29 0.65 L26.13 -0.23 L26.02 14.07 L-1.55 15.65" stroke="none" stroke-width="0" fill="#bdddf0"></path><path d="M-1.18 1.74 C10.26 -0.67, 19.03 1.44, 23.32 -1.96 M0.14 -0.92 C8 -0.99, 16.93 0.48, 24 -0.94 M25.63 0.02 C26.13 3.43, 23.83 9.47, 24.3 13.19 M25.48 -0.41 C24.38 4.85, 23.92 9.7, 25.32 14.32 M26.05 14.52 C14.12 15.48, 5.02 13.43, -1.17 14.72 M25.35 15.25 C17.25 13.74, 10.89 14.11, -0.87 15.1 M1.04 15.43 C0.71 8.62, -0.94 5.31, -0.59 -1.19 M-0.21 13.98 C0.44 10.51, -0.28 4.68, 0.43 -0.11" stroke="#000000" stroke-width="1" fill="none"></path></g><g stroke-linecap="round"><g transform="translate(101.45526457486449 207.89197623441976) rotate(0 11.649135519317042 5.38921086928076)"><path d="M1.35 0.98 C3.73 4.56, 9.83 6.33, 10.45 10.83 M-0.71 -0.7 C3.21 2.37, 8.04 5.5, 11.24 9.83 M11.99 11.48 C14.29 6.28, 19.45 4.14, 22.77 0.25 M11.52 9.63 C14.66 6.9, 17.32 6.17, 24.01 0.52" stroke="#000000" stroke-width="1" fill="none"></path></g></g><mask></mask><g stroke-linecap="round"><g transform="translate(101.45526457486449 222.33827494897253) rotate(0 4.2061902207833555 -3.8290929621149985)"><path d="M0.68 -0.46 C2.48 -0.98, 3.01 -4.32, 8.9 -6.92 M-0.49 -0.41 C2.79 -2.31, 6.11 -5.99, 8.2 -7.25" stroke="#000000" stroke-width="1" fill="none"></path></g></g><mask></mask><g stroke-linecap="round"><g transform="translate(125.60122099775981 222.33827494897253) rotate(0 -4.452209876620145 -3.4075155010286835)"><path d="M-0.47 0.56 C-1.36 -2.48, -5.11 -2.78, -8.16 -6.17 M-0.41 -0.48 C-2.13 -2.76, -5.63 -4.66, -8.49 -7.38" stroke="#000000" stroke-width="1" fill="none"></path></g></g><mask></mask><g transform="translate(36.58221756581543 234.0681518321859) rotate(0 36 18)"><text x="36" y="14" font-family="Helvetica, Segoe UI Emoji" font-size="16px" fill="#000000" text-anchor="middle" style="white-space: pre;" direction="ltr">RabbitMQ</text><text x="36" y="32" font-family="Helvetica, Segoe UI Emoji" font-size="16px" fill="#000000" text-anchor="middle" style="white-space: pre;" direction="ltr">queue</text></g><g stroke-linecap="round" transform="translate(44.329473421007606 430.32881584005554) rotate(0 29.028755035805716 19.352503357203773)"><path d="M0 0 C0 0, 0 0, 0 0 M0 0 C0 0, 0 0, 0 0 M0.12 6.66 C1.97 3.98, 3.71 2.24, 4.29 0.09 M0.02 6.11 C0.68 5.27, 2.35 3, 4.84 0.57 M1.38 13.39 C5.03 6.48, 9.46 1.16, 11.88 1.08 M-0.25 11.99 C2.94 7.7, 6.52 4.14, 10.45 0.11 M-0.11 17.43 C5.63 13.77, 11.32 5.63, 16.15 2.22 M-0.87 19.16 C5.79 10.82, 12.29 4.85, 15.4 0.13 M2.2 22.47 C7.37 19.75, 12.59 11.89, 21.31 -0.04 M0.14 23.23 C6.69 17.23, 11.06 11.29, 21.27 0.42 M0.09 29.95 C5.46 25.91, 9.71 18.59, 27.79 -1.43 M-0.82 31.21 C8.9 20.72, 18.68 11.27, 26.65 0.32 M-1.98 35.46 C13.85 21.07, 24.96 8.64, 32.83 -0.61 M-0.96 37.85 C8.22 25.85, 17.26 17.07, 31.96 -0.18 M3.45 42.16 C11.76 28.82, 24.01 14.1, 37.52 2.13 M2.38 40.56 C15.83 26.08, 29.12 10.38, 36.67 -0.44 M6.16 41.15 C19.47 26.78, 27.6 16.15, 41.92 -0.02 M7.65 40.7 C18.83 26.15, 31.26 13.51, 42.06 -0.17 M12.82 39.72 C26.67 23.88, 38.14 9.45, 47.8 0.67 M13.29 39.75 C24.8 26.54, 36.57 12.02, 46.52 0.5 M17.61 41.47 C30.33 28.64, 43.7 11.66, 53.82 1.48 M16.86 40.28 C30.03 27.3, 40.7 13.92, 52.33 0.01 M22.05 41.05 C35.81 27.87, 46.81 12.47, 58.19 -1.61 M22.58 40.68 C35.65 24.88, 50 8.5, 58.93 -0.67 M29.76 41.27 C39.35 29.76, 46.98 18.66, 55.98 7.83 M28.57 41.12 C35.68 33.28, 41.59 24.26, 57.83 5.74 M33.61 40.16 C42.51 32.24, 48.19 19.82, 56.83 13.95 M33.67 40.52 C40.88 33.65, 45.33 26.54, 58.86 12.88 M38.4 40.03 C42.79 34.8, 48.55 26.74, 57.15 18.05 M38.67 40.53 C44.91 33.67, 52.01 25.6, 58.06 18.15 M44.06 38.49 C48.06 35.88, 56.63 29.15, 57.95 22.3 M45.15 40.47 C49.35 34.16, 55.04 27.34, 57.96 23.35 M48.8 41.22 C51.9 37.46, 53.83 35.41, 57.7 29.48 M49.04 41.05 C51.26 38.44, 54.7 35.49, 58.03 31.32 M55.02 39.84 C55.75 38.9, 56.4 38.57, 58.25 37.17 M55.38 40.22 C56.2 39.15, 56.59 38.28, 57.79 36.92" stroke="#ced4da" stroke-width="0.5" fill="none"></path><path d="M-0.27 0.13 C16.55 0.04, 31.13 -0.94, 56.38 0.27 M0.62 0.59 C17.12 -0.55, 34.21 -0.15, 57.58 0.62 M59.59 -1.76 C57.21 9.72, 59.46 18.38, 58 36.85 M57.63 -0.8 C58.23 7.96, 57.89 17.33, 58.84 37.82 M56.27 40.51 C46.7 37.61, 34.44 39.15, 1.63 37.04 M58.47 38.17 C44.17 37.73, 29.77 38.85, 0.59 37.83 M0.79 38.77 C1.37 31.84, 0.58 21.16, 0.46 1.59 M0.94 38.11 C0.14 28.26, -0.97 20.21, -0.74 -0.37" stroke="#000000" stroke-width="1" fill="none"></path></g><g stroke-linecap="round"><g transform="translate(44.39974721987983 469.2994487907708) rotate(0 29.0133895800152 11.481534653400644)" fill-rule="evenodd"><path d="M-1.39 -1.62 L-16.11 18.34 L-12.47 23.48 L72.29 21.13 L74.72 21.24 L59.49 -1.44 L0.27 -1.49" stroke="none" stroke-width="0" fill="#bdddf0" fill-rule="evenodd"></path><path d="M0.13 0.19 C-5.57 4.39, -11.55 10.3, -15.86 19.14 M0.59 0.31 C-5.75 7.56, -11.07 13.37, -15.51 18.7 M-16.51 19.24 C-15.32 20.38, -14.76 20.65, -13.49 22.19 M-16.3 19.43 C-15.57 20.16, -14.7 21.11, -13.27 22.3 M-11.28 23.3 C11.48 23.96, 39.12 24.87, 69.36 21.5 M-13.62 23.15 C15.13 22.94, 45.13 22.74, 70.15 21.58 M71.04 22.88 C72.54 21.44, 73.21 20.08, 74.54 19.13 M70.9 22.57 C71.97 21.18, 73.46 20.07, 74.1 19.2 M72.83 18.53 C69 11.83, 64.17 4.26, 58.73 1.28 M74.42 18.77 C69.64 14.21, 66.68 9.05, 58.58 0.41 M58.71 1.15 C38.25 1.31, 20.04 -1.46, -0.68 -0.9 M57.33 -0.9 C38.31 0.34, 15.76 0.03, 0.53 0.95 M0 0 C0 0, 0 0, 0 0 M0 0 C0 0, 0 0, 0 0" stroke="#000000" stroke-width="1" fill="none"></path></g></g><mask></mask><g stroke-linecap="round" transform="translate(45.714589168003386 431.78455705130295) rotate(0 27.497333990229208 17.79239258191305)"><path d="M1.54 1.75 L53.64 -0.83 L55.64 34.75 L1.51 34" stroke="none" stroke-width="0" fill="#fff"></path><path d="M0.19 -0.42 C10.54 -1.44, 22.6 0.23, 54.79 1.1 M0.31 -0.15 C20.87 -0.07, 40.08 0.29, 54.34 -0.88 M54.49 0.66 C57.01 12.97, 55.21 23.61, 53.59 34.59 M55.36 -0.93 C54.86 9.99, 55.62 20, 54.09 35.69 M55.81 34.06 C35.11 36.1, 15.42 34.41, -0.99 36.45 M55.65 34.91 C42.19 35.74, 28.39 34.41, -0.91 36.57 M1.75 36.8 C0.82 21.27, 0.32 11.32, -0.99 1.1 M0.35 34.84 C-1.09 24.19, -1.08 10.61, -0.66 0.53" stroke="#000000" stroke-width="1" fill="none"></path></g><g stroke-linecap="round"><g transform="translate(66.90739400441225 478.710074233065) rotate(0 6.051331696274929 3.783133835029929)" fill-rule="evenodd"><path d="M0.95 0.65 L-2.07 5.66 L17.16 6.46 L11.17 -0.68 L-0.9 1.14" stroke="none" stroke-width="0" fill="#fff" fill-rule="evenodd"></path><path d="M-0.15 -0.57 C-1.43 1.25, -1.75 3.63, -2.83 6.95 M-0.06 0.21 C-1.04 2.17, -2.07 4.44, -3.54 6.66 M-2.59 8.14 C4.3 6.44, 9.56 5.14, 15.16 6.32 M-4.12 6.47 C1.31 7.13, 5.87 5.5, 16.23 7.17 M15.58 6.71 C15.4 5.69, 14.11 3.39, 13.21 -0.38 M15.89 6.74 C15.22 4.49, 13.65 1.74, 13.26 0.23 M13.68 0.62 C7.63 0.41, 5.17 -0.52, 0.71 0.59 M12.42 -0.49 C8.4 -0.43, 2.49 -0.38, 0.34 0.5 M0 0 C0 0, 0 0, 0 0 M0 0 C0 0, 0 0, 0 0" stroke="#000000" stroke-width="1" fill="none"></path></g></g><mask></mask><g stroke-linecap="round"><g transform="translate(28.20238729000448 488.3863259116668) rotate(0 45.04774147337639 -0.07922699010754286)"><path d="M-1.59 -1.4 C26.03 0.46, 55.19 1.29, 91.69 1.24 M0.59 0.25 C31.98 0.75, 64.27 -0.74, 90.89 0.77" stroke="#000000" stroke-width="1" fill="none"></path></g></g><mask></mask><g transform="translate(24.082217565815426 496.06815183218583) rotate(0 48.5 9)"><text x="48.5" y="14" font-family="Helvetica, Segoe UI Emoji" font-size="16px" fill="#000000" text-anchor="middle" style="white-space: pre;" direction="ltr">Windows app</text></g><g stroke-linecap="round" transform="translate(74.410834453613 572.8131561130767) rotate(0 38.98856205403035 25.61273646772426)"><path d="M0.03 1.92 C30.23 0.69, 57.36 1.07, 79.8 -1.08 M0.79 -0.91 C19.73 -0.7, 41.02 -0.48, 77.03 -0.32 M78.57 0.39 C76.86 16.97, 77.23 37.15, 79.96 52.62 M78.5 0.33 C78.13 16.9, 78.44 33.36, 77.55 51.14 M77.52 51.94 C46.95 52.09, 15.89 50.85, 1.89 51.52 M77.36 51.4 C55.51 51.13, 35.78 50.61, -0.47 50.98 M-0.07 52.97 C0.78 37.86, -1.8 22.09, -1.79 -0.53 M-0.48 50.46 C-0.2 39.03, 0.11 24.89, -0.7 0.56" stroke="#000000" stroke-width="1" fill="none"></path></g><g stroke-linecap="round" transform="translate(74.56986424416164 572.8312278742669) rotate(0 38.738740157586335 2.379733760999926)"><path d="M-0.99 -0.66 L76.17 1.6 L79.23 6.65 L-0.74 4.34" stroke="none" stroke-width="0" fill="#bdddf0"></path><path d="M1.08 0.48 C20.28 0.12, 44.29 -1.82, 76.73 -1.1 M-0.74 -0.71 C23.17 0.2, 45.24 0.38, 78.11 0.21 M77.19 -0.39 C77.29 1.9, 77.96 4.14, 77.59 4.6 M77.56 0.07 C77.65 1.36, 77.4 2.62, 77.7 4.62 M77.3 5.31 C50.79 4.35, 26.77 5.33, -0.48 6.04 M76.52 4.67 C55.02 4.28, 30.47 4.65, -0.27 5.29 M0.25 4.91 C-0.36 2.7, -0.42 1.05, -0.21 0.02 M-0.04 4.98 C0.05 3.4, -0.14 2.23, 0.23 -0.16" stroke="#000000" stroke-width="1" fill="none"></path></g><g stroke-linecap="round" transform="translate(77.61739343859017 581.2297337089396) rotate(0 35.184224218610325 2.478295999685713)"><path d="M0 0 C0 0, 0 0, 0 0 M0 0 C0 0, 0 0, 0 0 M0.25 5.36 C1.63 3.53, 4.37 2.05, 5.42 1.05 M0.55 5.65 C2.03 3.53, 3.54 2.19, 4.66 0.1 M6.57 5.39 C7.51 2.95, 8.81 2.42, 11.3 -0.52 M6.02 5.04 C7.18 3.67, 8.71 2.17, 10.29 0.04 M10.52 5.95 C12.59 4.69, 13.59 2.99, 15.02 -0.2 M11.1 5.9 C12.38 3.44, 14.02 1.76, 15.62 0.12 M16.6 5.11 C17.12 3.52, 18.66 3.49, 21.17 0.21 M16.73 5.41 C17.95 3.91, 19.51 1.73, 21.56 -0.34 M21.15 5.63 C23 3.27, 25 1.13, 26.68 -0.07 M21.68 5.35 C23.05 4.05, 24.58 1.9, 26.09 0.02 M27.37 5.75 C29.26 2.89, 31.42 0.69, 32.34 0.54 M27.33 5.36 C29.03 3.63, 30.31 1.29, 32.11 -0.4 M32.31 5.64 C33.27 3.68, 34.86 1.25, 37.48 0.45 M32.18 5.79 C33.32 4.31, 34.82 3.27, 36.83 0.58 M37.75 5.22 C39.38 4.16, 40.47 2.39, 43.19 0.49 M38.05 5.18 C39.1 3.93, 39.75 2.81, 42.42 -0.29 M42.78 4.93 C43.96 4.39, 45.29 3.08, 46.96 -0.22 M43.24 5.2 C44.67 3.54, 46.57 1.12, 47.47 -0.03 M49.07 5.05 C49.74 3.62, 51.58 1.27, 52.86 -0.11 M48.66 5.34 C49.49 3.77, 50.77 1.99, 53.43 -0.1 M53.48 5.02 C54.99 3.56, 56.6 1.46, 57.85 0.71 M53.84 5.75 C54.7 4, 56.5 1.7, 58.22 0.4 M58.87 5.53 C59.64 4.33, 61.47 3.16, 63.31 0.44 M58.84 4.74 C60.13 3.73, 61.56 2.68, 64.03 -0.3 M63.96 5.12 C65.9 3.57, 66.65 2.23, 68.36 -0.14 M64.44 5.1 C65.27 4.32, 66.1 3.17, 68.84 0.08 M69.25 5.76 C70.58 4.38, 71.13 3.8, 72.45 1.81 M69.22 5.98 C70.09 5.08, 70.64 3.95, 72.32 2.26" stroke="#868e96" stroke-width="0.5" fill="none"></path><path d="M0.59 0.39 C24.31 -2.32, 50.21 -0.73, 72.35 1.39 M0.52 0.33 C23.13 0.46, 46.23 0.33, 69.94 -0.08 M70.25 0.18 C70.29 2.1, 70.24 3.75, 70.84 5.03 M70.22 0.04 C70.16 1.34, 70.6 2.58, 70.25 4.9 M70.3 6.7 C52.2 6.12, 30.39 4.35, -1.79 4.43 M69.89 4.19 C52.2 5.72, 34.51 4.67, -0.7 5.52 M-0.16 4.63 C0.43 3.43, 0.5 0.86, -0.1 0.17 M0.06 4.91 C-0.04 3.45, -0.15 2.29, 0.04 0.02" stroke="#c8c8c8" stroke-width="1" fill="none"></path></g><g stroke-linecap="round" transform="translate(78.64751420212087 589.4322680483986) rotate(0 6.072807651625908 15.857288038994739)"><path d="M0 0 C0 0, 0 0, 0 0 M0 0 C0 0, 0 0, 0 0 M-0.58 5.78 C0.79 5.58, 2.55 4.18, 5.77 0.67 M-0.25 6.46 C0.72 4.84, 2.58 2.89, 4.69 0.39 M0.47 12.11 C0.97 9.03, 5.84 7.98, 9.52 0.23 M-0.33 11.44 C4.51 6.84, 9.05 1.7, 10.79 -0.67 M0.85 19.98 C4.39 15.63, 6.69 8.03, 12.8 3.14 M0.7 17.64 C4.69 11.21, 10.86 5.86, 13.72 0.9 M-0.03 22.71 C3.15 19.15, 10.78 13.27, 14.84 8.28 M0.81 23.92 C6.5 18.17, 10.22 12.51, 13.27 8.91 M0.16 29.56 C3.97 24.79, 8.4 20.31, 13.42 14.16 M-0.64 30.34 C4.69 25.64, 7.56 20.13, 13.66 14.67 M3.84 34.34 C4.38 32.23, 6.64 28.69, 15.82 21.24 M2.83 34.25 C7.74 28.16, 11.03 24, 13.4 20.62 M8.16 32.67 C10.03 30.27, 11.25 29.43, 14.84 25.28 M8.37 33.33 C9.45 32.33, 11.15 30.18, 15.03 26" stroke="#868e96" stroke-width="0.5" fill="none"></path><path d="M0.24 -0.75 C2.92 -0.56, 7.78 1.17, 12.99 0.29 M0.2 0.2 C3.41 0.32, 6.56 -0.32, 12.1 0.58 M12.86 -0.18 C12.83 7.2, 11.59 17.08, 12.44 31.23 M12.32 -0.96 C12.05 12.36, 11.53 22.63, 11.9 31.45 M13.21 32.35 C8.24 30.78, 2.88 30.63, -0.32 31.18 M11.68 31.6 C9 31.73, 4.66 31.23, 0.34 32.29 M-1.31 33.32 C1.91 26.25, -0.59 16.6, 0.67 -0.22 M-0.19 31.56 C0.01 21.44, 1.11 12.5, 0.09 0.12" stroke="#c8c8c8" stroke-width="1" fill="none"></path></g><g stroke-linecap="round" transform="translate(95.11374315658941 590.3041161167969) rotate(0 26.16962746386571 4.949194516969172)"><path d="M0 0 C0 0, 0 0, 0 0 M0 0 C0 0, 0 0, 0 0 M-0.88 6.31 C2.29 4.61, 4.25 2.6, 5.3 0.02 M-0.19 6.06 C1.55 4.47, 2.99 1.9, 5.01 0.07 M1.5 9.26 C4.74 7.34, 9.77 1.42, 10.86 1.31 M0.92 10.74 C3.92 7.86, 6.45 4.19, 10.07 -0.28 M7.51 11.41 C10.54 6.86, 11.29 2.92, 16.53 1.42 M5.88 10.34 C7.68 8.55, 10.25 5.99, 14.96 0.56 M10.39 9.88 C13.94 9.58, 15.75 6.68, 21.29 1.31 M11.3 11.86 C14.43 7.34, 17.63 4.2, 21.77 0.28 M16.42 10.24 C20.77 5.63, 25.31 1.74, 26.45 0.26 M16.96 11.17 C20.16 6.74, 22.8 3.4, 26.81 -0.18 M22.45 10.56 C25.88 7.14, 28.11 6.62, 32.7 1.14 M22.38 11.81 C23.62 8.45, 26.48 5.95, 32.18 0.08 M26.59 10.7 C29.69 5.91, 34.99 4.19, 35.98 -0.94 M27.5 10.77 C30.26 8.93, 31.41 7.04, 37 0.02 M32.63 12.61 C34.44 9.47, 39.26 6.64, 41.56 1.24 M32.97 11.34 C35.94 7.09, 40.29 1.81, 41.91 -0.85 M38.3 10.93 C42.49 6.66, 44.28 1.89, 48.7 1.61 M38.41 11 C42.11 6.24, 45.23 2.2, 47.7 0.11 M42.65 11.69 C46.74 6.44, 49.64 3.24, 52.05 1.43 M42.76 11.23 C44.81 8.18, 47.78 6.69, 52.94 0.23 M48.73 10.74 C49.58 9.58, 50.5 9.17, 53.02 6.17 M48.67 10.98 C50.39 8.74, 51.93 7.51, 52.71 6.33" stroke="#868e96" stroke-width="0.5" fill="none"></path><path d="M-1.23 -1.62 C20.06 -0.13, 43.82 1.29, 52.82 -0.68 M0.33 0.3 C15.17 0, 28.65 -0.26, 53.3 -0.6 M52.25 0.27 C52.12 3.02, 53.25 6.86, 52.1 10.53 M51.86 -0.05 C52.68 2.67, 52.05 5.83, 52.21 10.16 M53.39 10.53 C31.12 9.21, 11.18 9.83, -0.89 9.99 M52.16 10.8 C37.85 9.35, 22.4 10.06, 0.95 9.22 M0.79 10.77 C0.97 7.05, -0.17 5.27, -0.11 0.05 M-0.08 9.75 C-0.32 8.26, 0.06 5.85, 0.06 0.39" stroke="#c8c8c8" stroke-width="1" fill="none"></path></g><g stroke-linecap="round" transform="translate(94.91157866040248 603.8130327580786) rotate(0 26.389125601312344 8.465859930462628)"><path d="M0 0 C0 0, 0 0, 0 0 M0 0 C0 0, 0 0, 0 0 M-0.35 6.93 C1.72 5.25, 3.48 3.37, 4.64 0.74 M-0.6 6.41 C1.71 3.94, 3.05 2.27, 4.7 0.7 M-1.32 11.87 C5.08 9.02, 6.9 3.2, 12.17 0.12 M0.37 11.61 C3.93 7.77, 6.58 4.34, 10.35 0.17 M1.26 19.17 C3.09 11.91, 5.8 10.97, 17.18 -1.5 M-0.26 16.76 C5.16 12.22, 9.52 5.68, 15.95 -0.38 M4.35 17.63 C11.79 12.11, 15.74 7.37, 23.09 -0.4 M6.99 17.6 C10 12.67, 14.88 6.98, 21.73 0.9 M10.27 17.62 C13.13 15.01, 17.01 10.08, 26.2 0.89 M11.6 17.76 C14.94 11.86, 19.8 7.76, 25.57 -0.11 M15.93 18.96 C19.94 13.11, 27.85 7.52, 33.55 -2.06 M17.6 16.71 C20.79 12.46, 25.16 6.87, 32.14 0.21 M21.62 16.12 C24.35 14.19, 31.47 5.91, 35.17 -1.62 M21.72 18.53 C26.23 12.85, 30.69 8.49, 36.54 -0.15 M29.34 16.12 C33.2 14.38, 37.47 6.43, 44.35 1.85 M27.65 16.38 C33.04 11.08, 37.06 4.75, 41.57 0.69 M32.62 18.49 C36.57 11.15, 39.77 9.54, 49.49 1.94 M32.73 18.07 C37.7 10.64, 43.66 4.23, 47.35 1.02 M38.83 17.21 C42.72 9.95, 49.51 3.66, 54.36 -1.88 M38.17 16.56 C42.01 12.39, 48.09 6.51, 52.64 -0.91 M43.01 16.86 C45.56 13.68, 49.96 11.33, 52.76 7.34 M43.62 17.55 C46.02 13.45, 50.98 8.47, 53.16 5.81 M49.11 17.24 C50.17 15.63, 51.22 14.44, 52.34 12.57 M48.56 17.39 C49.51 16.47, 50.23 15.36, 52.55 12.5" stroke="#868e96" stroke-width="0.5" fill="none"></path><path d="M-1.62 -0.86 C17.37 2.3, 36.18 0.8, 52.1 -0.44 M0.3 0.64 C18.76 -0.61, 37.08 0.78, 52.17 0.39 M53.25 -0.33 C52.26 6.29, 53.09 8.97, 53.87 16.94 M52.7 0.69 C52.29 3.64, 52.6 7.84, 53.22 17.58 M53.41 15.4 C35.98 15.42, 20.93 16.32, 0.09 16.52 M53.68 17.06 C39.31 16.14, 26.69 17.79, -0.68 16.44 M1.49 18.53 C-0.52 12.06, 0.68 7.71, 0.09 -1.58 M-0.25 16.43 C0.72 11.58, 0.11 6.06, 0.67 -0.73" stroke="#c8c8c8" stroke-width="1" fill="none"></path></g><g transform="translate(81.08221756581543 629.0681518321858) rotate(0 32.5 9)"><text x="32.5" y="14" font-family="Helvetica, Segoe UI Emoji" font-size="16px" fill="#000000" text-anchor="middle" style="white-space: pre;" direction="ltr">Web app</text></g><g stroke-linecap="round"><g transform="translate(130.56168571097805 70.07953166029654) rotate(0 17.051902366714558 31.04067208620313)" fill-rule="evenodd"><path d="M-1.28 1.48 L-20.23 33.12 L-2.57 63.01 L37.57 61.16 L50.63 29.22 L31.11 1.64 L-1.27 -0.45" stroke="none" stroke-width="0" fill="#bdddf0" fill-rule="evenodd"></path><path d="M-0.98 0.16 C-6.57 12.38, -12.14 21.64, -17.08 30.53 M-0.71 0.43 C-6.59 11.08, -12.53 20.26, -17.92 31.9 M-17.06 32.58 C-11.96 39.72, -9.07 48.42, -3.68 61.88 M-17.43 30.64 C-13.44 39.25, -9.73 48.69, -1.77 62.57 M-3.25 60.4 C8.39 60.05, 15.7 63.46, 38.37 62.38 M-1.86 61.94 C7.1 62.22, 16.25 62.77, 35.46 62 M37.01 63.32 C40.68 53.54, 47.88 41.63, 50.21 30.17 M36.4 61.33 C39.62 54.63, 42.85 48.13, 52.03 30.34 M50.65 32.42 C45.99 25.15, 41.96 16.16, 34.59 0.18 M51.84 31.35 C46.15 19.79, 38.33 10.32, 33.29 -0.62 M33.73 0.09 C22.04 -0.92, 16.12 1.76, 0.34 -1.23 M32.3 -0.07 C25.15 0.39, 15.79 0.07, -0.32 0.13 M0 0 C0 0, 0 0, 0 0 M0 0 C0 0, 0 0, 0 0" stroke="#000000" stroke-width="1" fill="none"></path></g></g><mask></mask><g transform="translate(102.08221756581543 137.0681518321859) rotate(0 44.5 9)"><text x="44.5" y="14" font-family="Helvetica, Segoe UI Emoji" font-size="16px" fill="#000000" text-anchor="middle" style="white-space: pre;" direction="ltr">external app</text></g><g stroke-linecap="round" transform="translate(878.0822175658154 533.0681518321858) rotate(0 18.125 29)"><path d="M10.31 0.34 L31.27 -1.28 L33.95 5.9 L37.71 47.62 L34.11 52.31 L30.15 58.09 L3.42 58.35 L-0.39 53.26 L0.05 4.73 L2.08 2.93 L7.36 1.48" stroke="none" stroke-width="0" fill="#bdddf0"></path><path d="M9.06 0 M9.06 0 C17.58 -0.11, 22.09 1.01, 27.19 0 M9.06 0 C14.04 0.54, 19.94 0.17, 27.19 0 M27.19 0 C33.49 0.43, 37.57 4.35, 36.25 9.06 M27.19 0 C32.49 0.63, 35.81 1.68, 36.25 9.06 M36.25 9.06 C37.68 22.21, 34.24 30, 36.25 48.94 M36.25 9.06 C36.48 23.22, 36.49 39.4, 36.25 48.94 M36.25 48.94 C35.03 54.43, 32.72 58.46, 27.19 58 M36.25 48.94 C37.02 54.79, 34.66 59.56, 27.19 58 M27.19 58 C23.77 57.41, 18.43 58.92, 9.06 58 M27.19 58 C19.8 58.38, 13.67 57.94, 9.06 58 M9.06 58 C3.19 58.25, -0.05 56.4, 0 48.94 M9.06 58 C4.93 60.23, -1.6 53.76, 0 48.94 M0 48.94 C0.45 41.42, 0.96 32.78, 0 9.06 M0 48.94 C-0.01 34.52, -0.01 18.79, 0 9.06 M0 9.06 C0.21 3.09, 3.05 0.87, 9.06 0 M0 9.06 C-1.38 1.12, 1.73 -0.79, 9.06 0" stroke="#000000" stroke-width="1" fill="none"></path></g><g stroke-linecap="round" transform="translate(881.7072175658154 535.6931518321858) rotate(0 14.5 21.75)"><path d="M-0.74 1.78 L29.31 1.51 L29.82 45.39 L1.69 41.75" stroke="none" stroke-width="0" fill="#ffffff"></path><path d="M-1.74 0.8 C10.66 -1.05, 16.82 -0.32, 28 0.65 M0.18 -0.26 C6.09 0.05, 12.88 -0.71, 29.74 0.71 M28.89 -0.47 C30.15 15.53, 30.17 29.4, 27.5 44.46 M29.21 0.66 C29.69 10.66, 29.3 21.77, 28.41 43.32 M30.89 41.73 C20.48 45.22, 16.86 45.29, -0.24 41.97 M28.73 43.25 C20.84 43.66, 12.14 43.95, 0.68 42.76 M-0.68 42.87 C0.9 28.23, 1.89 8.71, -1.75 1.17 M0.12 43.47 C0.67 32.86, 0.93 19.87, -0.53 -0.74" stroke="#000000" stroke-width="1" fill="none"></path></g><g stroke-linecap="round" transform="translate(892.5822175658154 582.8181518321858) rotate(0 3.625 3.625)"><path d="M0.83 2.05 C0.83 2.05, 0.83 2.05, 0.83 2.05 M0.83 2.05 C0.83 2.05, 0.83 2.05, 0.83 2.05 M3.12 5.76 C3.36 4.36, 4.62 3.99, 6.56 2.11 M2.27 6.3 C3.73 4.88, 5.07 3.21, 6.5 1.66 M0.93 5.03 C0.93 5.03, 0.93 5.03, 0.93 5.03 M0.93 5.03 C0.93 5.03, 0.93 5.03, 0.93 5.03 M6.81 4.63 C5.35 4.14, 3.51 2.03, 1.58 1.14 M7.03 5.37 C6.11 4.53, 4.83 3.07, 1.82 0.64" stroke="#868e96" stroke-width="0.5" fill="none"></path><path d="M4.62 -0.26 C5.5 -0.05, 6.62 0.34, 7.12 1.03 C7.62 1.71, 7.81 2.98, 7.64 3.83 C7.47 4.69, 6.8 5.62, 6.09 6.18 C5.38 6.73, 4.13 7.27, 3.38 7.16 C2.63 7.05, 2.01 5.89, 1.58 5.51 C1.15 5.14, 0.88 5.52, 0.79 4.91 C0.69 4.29, 0.59 2.61, 1.03 1.81 C1.47 1.02, 2.76 0.28, 3.43 0.14 C4.1 0, 4.69 0.79, 5.07 0.98 C5.46 1.16, 5.84 1.44, 5.75 1.27 M4.68 0.42 C5.69 0.7, 7.19 1.83, 7.54 2.47 C7.88 3.11, 7.02 3.8, 6.76 4.27 C6.5 4.73, 6.46 4.91, 5.96 5.25 C5.46 5.59, 4.55 5.88, 3.76 6.32 C2.97 6.76, 1.6 8.4, 1.24 7.9 C0.87 7.4, 1.91 4.09, 1.56 3.32 C1.21 2.55, -1.17 3.58, -0.88 3.28 C-0.59 2.98, 2.46 2.26, 3.33 1.54 C4.19 0.82, 4.14 -0.94, 4.3 -1.04 C4.46 -1.14, 4.44 0.75, 4.3 0.93" stroke="#000000" stroke-width="1" fill="none"></path></g><g transform="translate(846.5822175658154 594.0681518321858) rotate(0 50 9)"><text x="50" y="14" font-family="Helvetica, Segoe UI Emoji" font-size="16px" fill="#000000" text-anchor="middle" style="white-space: pre;" direction="ltr">SMS gateway</text></g><g stroke-linecap="round"><g transform="translate(180.58221756581543 118.06815183218635) rotate(0 27.5 17)"><path d="M0 0 C9.17 5.67, 45.83 28.33, 55 34" stroke="#000000" stroke-width="1.5" fill="none" stroke-dasharray="8 9"></path></g></g><mask></mask><g stroke-linecap="round"><g transform="translate(134.3604583431861 231.32491539018508) rotate(0 24.843768461330683 6.580086469659932)"><path d="M0 0 C8.28 2.19, 41.41 10.97, 49.69 13.16" stroke="#000000" stroke-width="1.5" fill="none" stroke-dasharray="8 9"></path></g></g><mask></mask><g stroke-linecap="round"><g transform="translate(845.5822175658154 120.06815183218635) rotate(0 -23.5 18)"><path d="M0 0 C-7.83 6, -39.17 30, -47 36" stroke="#000000" stroke-width="1.5" fill="none" stroke-dasharray="8 9"></path></g></g><mask></mask><g stroke-linecap="round"><g transform="translate(923.5822175658154 244.0807629737924) rotate(0 -38.00460065047719 7.9694151908077515)"><path d="M0 0 C-12.67 2.66, -63.34 13.28, -76.01 15.94" stroke="#000000" stroke-width="1.5" fill="none" stroke-dasharray="8 9"></path></g></g><mask></mask><g stroke-linecap="round"><g transform="translate(913.4100681735536 426.1238098064344) rotate(0 -24.9146408635022 -0.5167688889525834)"><path d="M0 0 C-8.3 -0.17, -41.52 -0.86, -49.83 -1.03" stroke="#000000" stroke-width="1.5" fill="none" stroke-dasharray="8 9"></path></g></g><mask></mask><g stroke-linecap="round"><g transform="translate(865.5822175658154 556.2774489179155) rotate(0 -24.91473076540069 -9.777437896113327)"><path d="M0 0 C-8.3 -3.26, -41.52 -16.3, -49.83 -19.55" stroke="#000000" stroke-width="1.5" fill="none" stroke-dasharray="8 9"></path></g></g><mask></mask><g stroke-linecap="round"><g transform="translate(165.58221756581543 579.0681518321862) rotate(0 24 -13.5)"><path d="M0 0 C8 -4.5, 40 -22.5, 48 -27" stroke="#000000" stroke-width="1.5" fill="none" stroke-dasharray="8 9"></path></g></g><mask></mask><g stroke-linecap="round"><g transform="translate(115.58221756581543 457.0681518321863) rotate(0 27.5 -4)"><path d="M0 0 C9.17 -1.33, 45.83 -6.67, 55 -8" stroke="#000000" stroke-width="1.5" fill="none" stroke-dasharray="8 9"></path></g></g><mask></mask><g transform="translate(470.536763020345 88.84087910491473) rotate(0 40.5 11.5)"><text x="40.5" y="18" font-family="Helvetica, Segoe UI Emoji" font-size="20px" fill="#000000" text-anchor="middle" style="white-space: pre;" direction="ltr">Adapters</text></g></svg>