<svg version="1.1" xmlns="http://www.w3.org/2000/svg" viewBox="0 0 935.253933408927 696.569078784312" width="935.253933408927" height="696.569078784312">
  <!-- svg-source:excalidraw -->
  
  <defs>
    <style class="style-fonts">
      @font-face {
        font-family: "Virgil";
        src: url("https://excalidraw.com/Virgil.woff2");
      }
      @font-face {
        font-family: "Cascadia";
        src: url("https://excalidraw.com/Cascadia.woff2");
      }
    </style>
  </defs>
  <rect x="0" y="0" width="935.253933408927" height="696.569078784312" fill="#ffffff"></rect><g stroke-linecap="round"><g transform="translate(246.80156533152513 10.675661440002983) rotate(0 204.41615237710084 337.60887795215297)" fill-rule="evenodd"><path d="M0 0 C0 0, 0 0, 0 0 M0 0 C0 0, 0 0, 0 0 M-36.96 54.06 C-18.15 33.64, -3.89 16.36, 11.96 -1.87 M-35.38 52.83 C-23.88 38.84, -10.27 22.89, 9.91 -0.99 M-69.04 106.07 C-48.37 79.21, -24.86 52.18, 22.1 -1.32 M-70.17 104.88 C-43.42 74.36, -16.48 43.7, 20.46 -0.36 M-104.11 156.14 C-69.49 118.46, -34.41 77.57, 31.62 0.82 M-104.67 158.01 C-60.15 106.41, -17.66 56.97, 31.97 -0.7 M-141.17 211.92 C-90.8 154.84, -42.9 96.22, 41.67 0.04 M-140.66 209.79 C-80.3 140.5, -20.07 69.95, 42.74 0.17 M-175.03 263.92 C-106.58 186.16, -39.17 109.57, 53.68 1.82 M-176.4 262.89 C-125.73 207.98, -77.42 152.03, 52.43 1.05 M-211.77 316.44 C-148.32 240.79, -82.68 167.15, 62.8 -0.04 M-211.18 316.11 C-108.78 197.32, -6.9 79.9, 62.73 0.55 M-221.95 340.95 C-120.85 225, -19.48 109.08, 73.37 0.67 M-222.69 341.36 C-153.87 262.04, -84.96 183.44, 73.44 0.7 M-218.88 349.58 C-139.54 258.98, -61.31 168.2, 83.7 0.59 M-219.02 348.85 C-138.02 256.61, -56.81 162.25, 84.49 0.03 M-214.53 356.14 C-128.85 257.6, -42.54 159.69, 95.75 -0.15 M-213.94 356.17 C-132.25 259.96, -48.56 163.65, 94.76 0.73 M-210.2 363.8 C-96.38 233.36, 17.94 102.18, 105.97 -0.27 M-210.2 363.79 C-84.72 220.05, 39.46 77.13, 105.89 0.45 M-204.96 370.75 C-135.57 290.44, -66.88 210.06, 116.81 1.2 M-205.04 369.96 C-131.04 284.66, -57.81 199.91, 116.07 0.77 M-200.41 378.48 C-100.38 263.28, -0.78 149.34, 126.45 0.47 M-201.38 377.71 C-123.14 288.48, -45.03 198.53, 126.52 0.35 M-197.21 385.29 C-91.99 266.37, 10.54 146.33, 137.76 1.07 M-197.12 385.53 C-119.39 297.09, -42.63 209.16, 137.22 0.28 M-191.89 392 C-62.43 242.51, 66.13 94.79, 148.28 1.61 M-192.67 391.73 C-123.2 314.39, -55.01 235.71, 147.42 0.92 M-187.96 399.82 C-66.11 258.81, 56.1 118.96, 158.22 1.33 M-187.94 399.22 C-116.93 316.7, -45.69 234.68, 158.38 0.75 M-183.47 407.76 C-108.74 318.52, -31.63 230.31, 168.52 0.18 M-183.83 407.24 C-112.11 324.35, -39.91 241.97, 168.85 1.11 M-179 413.66 C-52.69 267.53, 75.53 121.39, 179.13 0.89 M-179.16 413.81 C-67.59 284.21, 44.84 155.05, 179.41 1.02 M-175.91 421.58 C-35.67 259.56, 104.58 99.44, 190.4 0.52 M-175.75 421.46 C-75.53 305.38, 26.13 188.43, 189.66 0.56 M-171.34 427.28 C-28.76 264.24, 112.44 101.62, 200.36 0.39 M-170.4 428.15 C-53.84 292.72, 62.81 157.83, 200.74 1.09 M-166.21 435.82 C-28.45 274.46, 111.68 113.72, 211.53 0.06 M-166.37 435.93 C-23.89 273.19, 119.02 109.4, 211.53 0.66 M-161.74 443.79 C-39.94 304.49, 82.26 163.35, 221.8 0.82 M-162.22 442.7 C-9.2 265.38, 143.79 89.58, 222 0.66 M-157.8 449.95 C-76.83 355.74, 6.07 260.1, 232.19 2.07 M-157.61 449.5 C-14.47 287.12, 127.54 123.62, 231.97 1.18 M-154.44 457.87 C-39.5 326.03, 73.75 195.33, 241.98 1.79 M-153.46 457.36 C-10.96 294.74, 130.93 130.99, 242.28 1.44 M-149.04 465.3 C-37.89 335.98, 74.45 207.32, 253.17 1.45 M-149.5 464.64 C-60.54 360.83, 28.99 258.33, 253.43 1.31 M-144.33 471.6 C-43.63 354.05, 59.65 235.86, 263.96 1.72 M-145.21 471.9 C-57.36 374.08, 28.06 275.46, 263.59 1.75 M-140.19 478.77 C-31.39 352.48, 77.82 226.01, 274.98 2.01 M-140.81 478.81 C-40.02 360.87, 62.69 242.86, 274.51 0.97 M-136.72 486.52 C33.88 290.64, 202.16 97.1, 284.91 0.77 M-136.54 486.25 C27.45 301.3, 188.23 115.63, 285.31 1.04 M-132.55 493.84 C-40.99 391.9, 49.19 288.93, 295.74 0.69 M-132.09 493.01 C-25.91 369.66, 81.84 246.18, 295.83 0.96 M-127.86 500.45 C29.6 321.33, 185.78 141.27, 306.82 1.02 M-128.26 501.11 C13.94 337.81, 154.55 175.51, 306.02 1.65 M-122.65 507.88 C2.72 366.59, 126.56 223.85, 316.9 1.13 M-123.13 507.93 C36.73 322.04, 196.58 137.28, 316.92 1.38 M-119.9 515.59 C57.17 311.77, 234.78 108.39, 327.13 1.59 M-119.47 515.03 C9.27 365.11, 139.34 215.41, 326.97 1.56 M-114.75 523.3 C60.94 321.02, 233.56 120.03, 337.76 1.55 M-115.02 522.3 C-11.34 402.83, 91.95 283.64, 337.2 1.52 M-110.43 528.69 C-16.83 422.05, 77.44 313.88, 347.78 1.99 M-110.69 529.63 C56.04 336.68, 222.93 144.86, 348.31 1.72 M-107 536.52 C57.27 344.94, 223.31 153.5, 358.11 1.43 M-105.96 537.02 C-9.59 427.36, 85.89 317.92, 358.6 1.68 M-101.07 544.02 C45.2 373.98, 192.4 205.27, 369.67 1.88 M-101.27 543.49 C9.23 418.26, 119.53 290.92, 369.17 1.82 M-97.02 550.51 C78.09 345.3, 254.5 142.16, 380.72 1.16 M-97.56 550.95 C75.95 349.72, 250.69 148.4, 380.03 2.08 M-93.95 558.87 C43.2 397.57, 183 237.29, 390.46 1.25 M-93.85 558.37 C6.47 443.48, 106.66 327.75, 391.08 2.08 M-88.82 565.35 C76.74 376.13, 240.03 186.93, 401.12 2.25 M-89.05 565.83 C58.78 393.42, 208.9 221.93, 401.55 1.45 M-84.33 573.36 C77.32 388.76, 238.75 202.4, 409.33 4.17 M-84.58 573.04 C18.41 455.39, 121.42 335.71, 409.07 4.57 M-81.36 579.74 C63.53 415.74, 204.83 252.02, 414.44 11.52 M-80.99 580.63 C79.86 395.21, 241.21 209.34, 413.69 11.6 M-75.7 586.93 C55.53 437.23, 186.66 285.19, 419.26 18.71 M-75.84 587.01 C111.07 371.14, 298.16 155.07, 418.38 17.96 M-72.31 594.41 C27.77 479.23, 130.06 362, 423.33 25 M-71.81 594.91 C54.81 451.02, 180.85 305.96, 423.64 25.34 M-67.57 601.75 C118.42 389.99, 302.44 178.61, 428.27 31.13 M-67.21 601.48 C64.69 448.33, 198.49 294.17, 428.53 31.68 M-63.57 608.61 C36.65 494.94, 135.13 381.16, 433.38 38.05 M-63.38 609.38 C49.26 481.98, 160.21 353.46, 433.21 38.63 M-58.38 616.22 C111.31 417.05, 283.49 219.31, 437.74 45.69 M-59.2 616.88 C68.96 472, 194.73 327.15, 437.58 45.38 M-53.87 623.54 C105.66 443.02, 262.98 261.89, 442.22 51.69 M-54.39 623.62 C90.19 459.76, 233.87 294.41, 442.21 52.05 M-50.89 631.54 C109.26 443.73, 270.43 258.36, 446.76 58.15 M-49.8 630.62 C105.46 450.77, 261.89 270.38, 446.94 58.36 M-45.8 638.24 C119.69 449.44, 285.12 259.81, 452.42 65.61 M-45.77 637.7 C64.53 511.14, 173.87 385.45, 451.84 65.43 M-41.69 645.08 C97.6 482.34, 238.4 320.19, 456.98 71.76 M-41.64 644.86 C88.37 496.47, 216.59 349.73, 456.57 72 M-36.9 652 C139.59 447.04, 317.66 240.67, 461.86 79.79 M-37.38 652.9 C113.97 481.27, 262.98 309.46, 461.4 78.68 M-32.99 660.08 C75.86 534.02, 186.23 407.64, 465.47 86.76 M-32.97 659.45 C112.36 491.29, 259.53 322.09, 465.09 86.5 M-28.2 666.12 C91.73 527.01, 214.65 385.64, 469.5 93.63 M-28.58 667.09 C134.86 477.09, 298.25 289.42, 470.1 93.33 M-24.33 674.46 C167.74 455.01, 356.94 236.2, 475.43 100.62 M-24.52 674.26 C106.95 521.22, 239.21 369.35, 474.84 100.25 M-19.53 679.68 C167.06 465.08, 355.14 248.7, 479.6 106.12 M-19.1 680.14 C88.73 552.6, 198.96 425.55, 479.64 107.11 M-9.15 680.62 C105.98 545.44, 223.46 410.18, 484.2 114.16 M-8.13 680.27 C95.7 561.75, 200.13 442.07, 483.91 113.56 M2.96 679.99 C129.18 532.34, 258.04 383.73, 489.75 120.42 M1.84 680.32 C103.31 562.07, 205.59 444.11, 488.69 120.05 M12.89 680.87 C158.95 514.49, 301.93 349.49, 493.91 126.92 M12.95 680.54 C110.37 569.32, 207.01 457.3, 493.61 127.26 M23.1 680.29 C194.34 483.72, 365.55 285.6, 498.36 134.4 M23.76 680.39 C139.33 548.93, 254.45 416.77, 498.71 133.92 M34.84 680.82 C176.47 516.79, 319.51 350.13, 502.81 141.08 M34.19 680.41 C180.29 509.29, 327.74 340.31, 502.97 140.23 M45.43 679.68 C163.55 545.43, 281.88 410.33, 507.12 147.8 M44.94 679.99 C220.62 478.15, 396.71 275.53, 507.71 147.33 M55.1 680.31 C165.15 555.89, 273.49 429.27, 513.27 153.55 M55.24 680.05 C166.44 553.19, 277.41 425.44, 512.76 154.24 M65.83 679.93 C183.36 544.96, 300.66 410.56, 517.87 160.64 M66.22 680.02 C157.29 574.14, 248.63 469.52, 517.43 160.56 M77.01 679.46 C213.14 519.85, 352.16 361.66, 522.19 167.06 M76.3 679.69 C212.54 524.53, 346.81 369.83, 522.29 167.48 M87.49 680.7 C188.49 562.6, 291.12 443.73, 526.19 174.81 M86.95 680.24 C175.22 577.82, 263.5 476.49, 526.94 174.77 M97.63 680.26 C255.9 500.56, 411.92 319.23, 531.55 181.41 M98.09 679.63 C191.16 573.71, 284.56 466.43, 531.15 181.79 M108.15 679.52 C263.45 502.39, 417.99 324.42, 535.1 188.44 M108.23 680.08 C272.48 488.97, 437.94 298.88, 535.21 188.7 M118.96 680.18 C236.23 546.73, 352.67 412.01, 539.8 195.19 M119.47 680.23 C257.08 522.28, 394.87 364.18, 540.23 195.6 M129.65 679.8 C282.03 503.6, 435.81 325.84, 544.93 202.45 M129.68 680.22 C246.17 543.93, 363.78 408.26, 545.3 202.13 M139.91 680.17 C290.63 506.2, 442.02 331.65, 549.16 208.75 M140.65 679.49 C302.74 493.61, 463.96 307.96, 549.41 209.26 M151.57 679.62 C276.49 534.05, 402.77 388.83, 554.16 215.53 M151.09 680.22 C287.2 522.51, 422.51 367.3, 554.84 215.53 M161.1 679.84 C314.31 502.8, 470.74 323.77, 558.64 222.73 M161.58 679.51 C315.34 501.64, 470.56 324, 559.34 222.84 M172.81 679.74 C321.74 506.78, 472.19 332.98, 563.65 229.07 M172.36 680.08 C286.97 547.17, 402.16 414.66, 564.27 229.5 M183.32 679.08 C307.94 538.41, 431.75 395.16, 568.16 235.66 M182.72 680.03 C301.44 545.55, 418.07 411.01, 568.42 236.06 M193.2 680.38 C311.49 546.78, 427.91 412.51, 572.78 243.13 M193.54 679.49 C281 578.43, 370.71 475.55, 573.75 243.1 M204.24 679.67 C346.05 518.42, 489 355.24, 578.57 248.76 M204.29 680.05 C332.07 533.9, 458.31 387.34, 578.38 249.11 M215.08 679.65 C340.8 536.03, 467.11 390.29, 582.69 256.45 M214.81 679.38 C341.28 533.47, 467.37 387.93, 583.17 256.25 M224.87 678.85 C306.04 588.54, 383.85 497.21, 586.85 262.69 M225.45 679.44 C339.89 548.14, 455.41 415.05, 587.89 262.63 M235.33 679.94 C338.43 562.96, 440.14 446.17, 592.99 269.67 M235.7 679.55 C352.64 547.04, 467.97 414.07, 592.19 269.72 M246.36 678.93 C361.12 547.7, 475.52 416.61, 596.63 276.78 M246.69 679.74 C343.07 569.02, 439.3 457.89, 596.72 276.9 M256.55 679.9 C347.45 575.19, 437.16 470.15, 601.19 284.41 M257.45 679.46 C391.53 521.62, 527.69 365.8, 601.12 284.32 M268.37 679.32 C340.91 593.82, 415.31 507.19, 606.47 290.75 M268.23 679.34 C359.3 575.31, 448.77 471.63, 605.9 291.19 M279.07 679.25 C391.56 548.4, 505.5 417.45, 610.11 297.15 M278.28 679.04 C374.19 569.38, 471.35 458.13, 610.39 297.84 M289.08 679.67 C373.14 582.21, 457.39 485.52, 615.45 304.45 M289.25 679.09 C404.18 546.38, 518.94 414.72, 615.49 304.27 M299.31 678.78 C402.49 562.05, 504.79 444.94, 620.72 311.71 M299.71 679.49 C384.88 582.68, 468.34 486.21, 619.79 311.21 M309.98 679.99 C384 595.45, 455.9 511.82, 624.19 318.09 M310.21 679.1 C380.84 598.66, 449.93 519, 624.68 317.87 M321.12 678.8 C420.32 566.28, 518.02 451.06, 629.92 324.97 M321.02 679.22 C406.54 581.14, 490.24 483.86, 629.55 324.66 M331.12 678.64 C439.82 551.19, 549.11 426.19, 634.49 331.24 M331.38 679.65 C444.39 552.57, 555.03 424.49, 634.5 331.78 M342.8 679.13 C407 603.06, 473.14 526.51, 639.64 339.02 M342.43 679.66 C405.43 608.83, 466.77 538.38, 638.7 338.54 M352.75 679.95 C433.75 582.4, 517.68 487.38, 620.9 371.11 M352.75 679.17 C434.85 583.03, 517.13 488.14, 620.49 370.74 M363.25 678.76 C417.75 618.92, 469.36 561.2, 601.87 404.2 M363.34 679.14 C423.1 608.04, 484.79 537.06, 602.24 404.87 M372.99 678.82 C451.53 591.48, 526.57 504.95, 582.6 439.02 M374 678.84 C452.3 589.45, 529.59 500.09, 583.48 438.43 M384.79 677.84 C428.49 629.17, 472.41 576.3, 563.24 472.84 M384.3 679.57 C447.27 609.29, 507.53 539.35, 564.81 473.02 M395.21 678.92 C432.82 633.31, 472.56 589.35, 544.99 504.29 M395.63 679.62 C442.53 625.6, 488.32 573.08, 547.14 506.27 M407.2 679.34 C452.8 628.01, 496.58 574.81, 528.75 539.21 M406.95 678.63 C441.23 639.32, 475.55 598.75, 527.36 539.83 M418.01 680.49 C449.64 640.86, 480.88 604.45, 509.95 571.22 M417.77 679.23 C440.54 651.06, 465.96 624, 509.55 572.23 M427.98 677.48 C442.02 663.5, 453.25 649.69, 489.58 605.99 M428.15 679.02 C441.68 662.06, 455.92 644.38, 491.22 605.87 M439.31 678.7 C447.51 670.15, 453.29 659.93, 473.4 641.31 M438.25 677.74 C446.01 668.8, 454.17 660.78, 472.41 639.09" stroke="#ced4da" stroke-width="1" fill="none"></path><path d="M-0.53 -0.68 C-80.53 119.81, -161.93 240.93, -225.25 339.4 M-226.95 338.33 C-181.8 414.42, -135.95 487.47, -24.31 675.89 M-25.94 674.53 C137.9 676.94, 299.58 675.71, 447.59 674.11 M447.19 672.97 C490.02 593.74, 533.03 514.8, 635.78 335.1 M635.35 335.2 C551.17 210.37, 464.97 86.79, 405.77 1.96 M407.3 2.87 C320.34 -0.57, 235.06 -0.14, 0.85 0.15 M0 0 C0 0, 0 0, 0 0" stroke="#000000" stroke-width="2.5" fill="none" stroke-dasharray="8 10"></path></g></g><mask></mask><g stroke-linecap="round"><g transform="translate(450.7993879543965 12.144567942738377) rotate(0 2.223799420148225 335.6218099705875)"><path d="M-0.96 -0.35 C-0.09 111.62, 4.15 559.41, 5.4 671.59" stroke="#000000" stroke-width="2.5" fill="none" stroke-dasharray="8 10"></path></g></g><mask></mask><g stroke-linecap="round"><g transform="translate(366.35009874455864 192.62858714570268) rotate(0 89.57758857868612 167.75844233458204)" fill-rule="evenodd"><path d="M0.27 0.01 L-97.68 169.92 L-12.48 334.19 L195.11 332.6 L277.96 166.48 L178.16 1.16 L1.65 1.28" stroke="none" stroke-width="0" fill="#fcecbc" fill-rule="evenodd"></path><path d="M0.01 1.94 C-28.21 45.38, -55.87 93.94, -98.23 168.64 M0.31 0.92 C-36.39 63.95, -73.32 126.14, -98.62 167.81 M-98.57 166.67 C-72.45 221.31, -45.4 275.76, -9.73 335.06 M-98.01 167.57 C-77.44 205.28, -56.46 244.43, -10.38 334.39 M-11.75 336.57 C49.47 334.15, 110.74 333.58, 194.79 335.21 M-10.27 334.42 C48.88 335.86, 108.89 335.86, 195.2 334.24 M195.8 333.64 C224.16 274.81, 251.72 216.05, 277.02 167.72 M196.32 334.15 C225.33 269.66, 258.01 205.05, 277.78 166.75 M277.45 167.98 C250.98 121.55, 224.16 80.07, 178.18 0.45 M277.21 166.78 C247.74 119.37, 219.09 72.08, 177.78 0.09 M179.86 1.65 C134.03 1.75, 91.7 2.81, 0.68 -1.05 M178.88 0.47 C108.74 -0.59, 40.08 -0.8, -0.21 0.04 M0 0 C0 0, 0 0, 0 0 M0 0 C0 0, 0 0, 0 0" stroke="#000000" stroke-width="1" fill="none"></path></g></g><mask></mask><g transform="translate(409.35009874455864 348.12858714570245) rotate(0 49.5 11.5)"><text x="0" y="18" font-family="Helvetica, Segoe UI Emoji" font-size="20px" fill="#000000" text-anchor="start" style="white-space: pre;" direction="ltr">Application</text></g><g stroke-linecap="round" transform="translate(269.463071487884 266.1929934678951) rotate(300.2756897768884 67 22.999999999999986)"><path d="M11.04 0.01 L129.48 -0.91 L130.38 0.91 L135.27 9.58 L133.92 41 L129.14 45.82 L123.11 47.85 L8.22 46.33 L4.67 43.13 L0.94 36.81 L0.66 6.91 L4.19 3.3 L10.17 -0.4" stroke="none" stroke-width="0" fill="#ffffff"></path><path d="M11.5 0 M11.5 0 C44.61 0.04, 73.78 1.91, 122.5 0 M11.5 0 C51.19 -0.12, 91.91 0.62, 122.5 0 M122.5 0 C131.4 -1.22, 133.91 5.75, 134 11.5 M122.5 0 C132.25 -0.97, 136.03 2.91, 134 11.5 M134 11.5 C132.56 21.2, 133.73 27.73, 134 34.5 M134 11.5 C133.92 15.42, 133.82 20.41, 134 34.5 M134 34.5 C132.19 42.7, 131.24 47.95, 122.5 46 M134 34.5 C135.06 41.94, 129.75 46.93, 122.5 46 M122.5 46 C85.03 48.39, 51.18 48.35, 11.5 46 M122.5 46 C82.5 46.6, 44.44 46.32, 11.5 46 M11.5 46 C3.39 47.5, -0.73 44.16, 0 34.5 M11.5 46 C5.25 45.37, 2.27 43.29, 0 34.5 M0 34.5 C0.12 28.88, -0.32 25.63, 0 11.5 M0 34.5 C-0.34 25.25, -0.3 16.27, 0 11.5 M0 11.5 C-0.45 2.01, 2.58 1.13, 11.5 0 M0 11.5 C0.96 5.98, 4.58 -2.01, 11.5 0" stroke="#000000" stroke-width="1" fill="none"></path></g><g transform="translate(285.463071487884 280.1929934678951) rotate(300.2756897768884 51 8.999999999999986)"><text x="51" y="14" font-family="Helvetica, Segoe UI Emoji" font-size="16px" fill="#000000" text-anchor="middle" style="white-space: pre;" direction="ltr">placing orders</text></g><g stroke-linecap="round" transform="translate(520.240119582646 402.57953145371846) rotate(294.9439052634246 64 23)"><path d="M13.44 -1.63 L120.79 -1.25 L126.58 3.65 L128.46 10.27 L126.91 40.97 L124.12 46.23 L118.25 47.05 L8.26 45.29 L3.63 42.74 L0.66 35.3 L1.49 9.23 L1.55 2.48 L11.24 -1.89" stroke="none" stroke-width="0" fill="#ffffff"></path><path d="M11.5 0 M11.5 0 C41.77 1.9, 76.04 1.95, 116.5 0 M11.5 0 C38.94 0.77, 66.08 0.02, 116.5 0 M116.5 0 C124.08 1.91, 129.81 2.99, 128 11.5 M116.5 0 C126.2 -0.92, 129.44 3.01, 128 11.5 M128 11.5 C127.65 19.03, 125.89 29.09, 128 34.5 M128 11.5 C127.57 16.49, 127.03 22.55, 128 34.5 M128 34.5 C129.07 44.11, 125.09 45.8, 116.5 46 M128 34.5 C127.59 43.1, 124.83 45.29, 116.5 46 M116.5 46 C80.35 48.59, 41.97 47.53, 11.5 46 M116.5 46 C84.05 46.61, 50.11 47.2, 11.5 46 M11.5 46 C3.1 48, 1.23 41.62, 0 34.5 M11.5 46 C6.11 47.12, -1.83 42.75, 0 34.5 M0 34.5 C-0.28 28.4, 1.84 18.18, 0 11.5 M0 34.5 C-0.36 25.65, -0.1 16.2, 0 11.5 M0 11.5 C-1.26 4.97, 4.66 1.86, 11.5 0 M0 11.5 C0.74 1.82, 4.12 -2.15, 11.5 0" stroke="#000000" stroke-width="1" fill="none"></path></g><g transform="translate(541.740119582646 407.57953145371846) rotate(294.9439052634246 42.5 18)"><text x="42.5" y="14" font-family="Helvetica, Segoe UI Emoji" font-size="16px" fill="#000000" text-anchor="middle" style="white-space: pre;" direction="ltr">notifications</text><text x="42.5" y="32" font-family="Helvetica, Segoe UI Emoji" font-size="16px" fill="#000000" text-anchor="middle" style="white-space: pre;" direction="ltr">(recipient)</text></g><g stroke-linecap="round" transform="translate(519.240119582646 263.57953145371835) rotate(58.815025341261666 55 22.999999999999986)"><path d="M10.75 -1.97 L104.99 1.49 L107.76 4.34 L109.45 10.24 L109.9 41.38 L107.25 45.44 L100.3 46.01 L7.23 44.89 L3.36 41.23 L1.49 37.62 L-1.15 8.4 L2.61 0.99 L11.53 1.27" stroke="none" stroke-width="0" fill="#ffffff"></path><path d="M11.5 0 M11.5 0 C39.06 1.14, 63.35 -1.42, 98.5 0 M11.5 0 C33 -0.74, 53.23 0.83, 98.5 0 M98.5 0 C107.97 -0.84, 111.77 3.03, 110 11.5 M98.5 0 C107.6 -0.82, 111.08 2.27, 110 11.5 M110 11.5 C108.02 21.61, 108.67 27.91, 110 34.5 M110 11.5 C109.01 16.98, 110.45 22.9, 110 34.5 M110 34.5 C110.93 41.97, 105.81 46.81, 98.5 46 M110 34.5 C110.66 41.46, 107.55 44.87, 98.5 46 M98.5 46 C66.01 47.36, 31.64 45.43, 11.5 46 M98.5 46 C68.41 46.89, 38.4 47.13, 11.5 46 M11.5 46 C5.06 45.45, 1.98 43.14, 0 34.5 M11.5 46 C2 46.58, 0.47 42.38, 0 34.5 M0 34.5 C1.89 26.65, 1.59 20.91, 0 11.5 M0 34.5 C-0.11 27.19, -0.52 22.26, 0 11.5 M0 11.5 C0.83 5.7, 4.48 -1.75, 11.5 0 M0 11.5 C0.28 1.68, 5.61 0.78, 11.5 0" stroke="#000000" stroke-width="1" fill="none"></path></g><g transform="translate(533.240119582646 268.57953145371835) rotate(58.815025341261666 41 17.999999999999986)"><text x="41" y="14" font-family="Helvetica, Segoe UI Emoji" font-size="16px" fill="#000000" text-anchor="middle" style="white-space: pre;" direction="ltr">orders</text><text x="41" y="32" font-family="Helvetica, Segoe UI Emoji" font-size="16px" fill="#000000" text-anchor="middle" style="white-space: pre;" direction="ltr">(repository)</text></g><g stroke-linecap="round" transform="translate(267.240119582646 410.57953145371806) rotate(62.300527191945065 64 23)"><path d="M12.95 0.77 L122.17 2.18 L124.76 4.31 L128.43 10.65 L129.03 40.58 L125.3 44.39 L117.26 45.61 L6.95 43.39 L4.19 43.55 L-1.15 36.8 L-0.08 6.91 L2.91 4.14 L11.56 -1.4" stroke="none" stroke-width="0" fill="#ffffff"></path><path d="M11.5 0 M11.5 0 C52.27 -1.62, 93.57 -0.13, 116.5 0 M11.5 0 C44.46 1.6, 78.42 0.22, 116.5 0 M116.5 0 C125.94 -0.8, 129.25 3.12, 128 11.5 M116.5 0 C125.24 -1.56, 129.57 3.61, 128 11.5 M128 11.5 C126.46 17.36, 126.31 23.54, 128 34.5 M128 11.5 C128.33 18.46, 128.25 23.37, 128 34.5 M128 34.5 C127.64 42.98, 124.74 45.39, 116.5 46 M128 34.5 C129.38 41.04, 126.14 47.91, 116.5 46 M116.5 46 C76.46 45.03, 36.69 47.6, 11.5 46 M116.5 46 C82.99 47.79, 50.83 46.51, 11.5 46 M11.5 46 C5.81 46.98, -1.59 42.67, 0 34.5 M11.5 46 C4.3 46.21, -0.63 41.87, 0 34.5 M0 34.5 C1.35 25.1, -0.65 16.82, 0 11.5 M0 34.5 C-0.58 28.53, 0.47 22.36, 0 11.5 M0 11.5 C0.65 2.08, 4.08 -1.87, 11.5 0 M0 11.5 C1.78 4.62, 2.62 2.05, 11.5 0" stroke="#000000" stroke-width="1" fill="none"></path></g><g transform="translate(295.740119582646 415.57953145371806) rotate(62.300527191945065 35.5 18)"><text x="35.5" y="14" font-family="Helvetica, Segoe UI Emoji" font-size="16px" fill="#000000" text-anchor="middle" style="white-space: pre;" direction="ltr">managing</text><text x="35.5" y="32" font-family="Helvetica, Segoe UI Emoji" font-size="16px" fill="#000000" text-anchor="middle" style="white-space: pre;" direction="ltr">products</text></g><g stroke-linecap="round" transform="translate(174.06237623130255 164.30176246432472) rotate(30.68038445778768 65.5 28)"><path d="M14.64 1.47 L122.76 2.31 L129.65 7.31 L132.53 11.77 L131.92 48.13 L126.29 53.64 L117.49 54.1 L9.19 55.55 L0.64 50.13 L-0.04 43.39 L0.25 11.99 L2.03 4.07 L7.4 3.17 L15.98 -0.86" stroke="none" stroke-width="0" fill="#e1f9bd"></path><path d="M14 0 M14 0 C42.19 0.77, 68.58 -0.56, 117 0 M14 0 C55.63 0.03, 96.13 0.08, 117 0 M117 0 C127.27 -1.36, 132.37 4.47, 131 14 M117 0 C125.83 -2.25, 132.89 3.16, 131 14 M131 14 C130 19.85, 131.33 30.38, 131 42 M131 14 C130.95 25.53, 131.42 35.94, 131 42 M131 42 C132.2 50.35, 128.05 57.66, 117 56 M131 42 C132.94 52.59, 127.06 56.35, 117 56 M117 56 C93.11 56.2, 70.09 55.92, 14 56 M117 56 C76.8 56.21, 33.84 55.97, 14 56 M14 56 C5.07 56.18, -0.55 51.07, 0 42 M14 56 C6.13 58.14, -1.82 53.13, 0 42 M0 42 C-0.26 34.61, -1.77 26.87, 0 14 M0 42 C0.21 31.14, 0.01 21.09, 0 14 M0 14 C1.55 5.35, 3.61 1.78, 14 0 M0 14 C-0.07 3.97, 6.69 -1.22, 14 0" stroke="#000000" stroke-width="1" fill="none"></path></g><g transform="translate(182.56237623130255 183.30176246432472) rotate(30.68038445778768 57 9)"><text x="57" y="14" font-family="Helvetica, Segoe UI Emoji" font-size="16px" fill="#000000" text-anchor="middle" style="white-space: pre;" direction="ltr">REST controller</text></g><g stroke-linecap="round" transform="translate(117.1821050039971 411.7490290020413) rotate(351.2091614899079 66 28)"><path d="M13.63 1.44 L124.74 2.72 L130.25 4.55 L133.58 10.73 L131.88 47.74 L127.02 52.14 L119.31 56.43 L6.55 54.73 L1.71 48.64 L0.25 46.55 L0.28 9.32 L3.9 6.67 L7.45 1.11 L13.42 -1.2" stroke="none" stroke-width="0" fill="#e1f9bd"></path><path d="M14 0 M14 0 C48.7 -0.73, 87.75 1.17, 118 0 M14 0 C41.46 0.06, 68.14 -0.26, 118 0 M118 0 C128.7 -0.19, 131.56 2.71, 132 14 M118 0 C129.22 -1.51, 131.39 2.98, 132 14 M132 14 C132.43 22.43, 133.83 29.64, 132 42 M132 14 C132.24 21.82, 132.55 29.75, 132 42 M132 42 C133.72 52.99, 129.02 57.09, 118 56 M132 42 C132.73 51.68, 125.84 57, 118 56 M118 56 C81.72 55.04, 44.44 57, 14 56 M118 56 C88.85 56.76, 61.49 56.6, 14 56 M14 56 C4.12 55.74, 1.27 53.19, 0 42 M14 56 C2.85 57.79, -1.2 50.84, 0 42 M0 42 C-1.78 33.69, 1.18 28.72, 0 14 M0 42 C0.03 30.06, 0.68 20.32, 0 14 M0 14 C-1.05 6.45, 4.61 -0.6, 14 0 M0 14 C2.03 3.45, 4.66 -1.53, 14 0" stroke="#000000" stroke-width="1" fill="none"></path></g><g transform="translate(133.1821050039971 430.7490290020413) rotate(351.2091614899079 50 9)"><text x="50" y="14" font-family="Helvetica, Segoe UI Emoji" font-size="16px" fill="#000000" text-anchor="middle" style="white-space: pre;" direction="ltr">GUI controller</text></g><g stroke-linecap="round" transform="translate(617.0709811033039 167.64372270898673) rotate(327.3287856669776 65.5 28)"><path d="M14.61 1.85 L124.87 1.93 L130.83 5.48 L131.54 10.33 L130.61 46.23 L126.84 54.46 L115.67 55.6 L7.61 53.24 L2 51.8 L0.28 43.88 L2.15 11.92 L3.95 4.61 L4.89 0.77 L14.91 0.29" stroke="none" stroke-width="0" fill="#e1f9bd"></path><path d="M14 0 M14 0 C53.17 1.85, 87.68 1.81, 117 0 M14 0 C41.24 -0.31, 68.23 0.27, 117 0 M117 0 C125.89 -1.96, 132.64 3.35, 131 14 M117 0 C125.72 -1.69, 130.14 3.75, 131 14 M131 14 C133.02 20.79, 130.88 25.37, 131 42 M131 14 C131.68 23.04, 131.94 33.9, 131 42 M131 42 C132.68 52.42, 126.96 56.3, 117 56 M131 42 C129.51 52.33, 127.79 56.36, 117 56 M117 56 C90.4 56.85, 59.26 57.6, 14 56 M117 56 C81.28 56.35, 44.88 56.13, 14 56 M14 56 C5.93 57.86, -1.58 52.89, 0 42 M14 56 C3.47 55.5, -1.11 50.97, 0 42 M0 42 C1.39 35.06, 2.12 27.1, 0 14 M0 42 C0.74 36.39, -0.56 30.99, 0 14 M0 14 C-0.06 4.06, 6.43 -1.06, 14 0 M0 14 C0 3.13, 6.06 -1.11, 14 0" stroke="#000000" stroke-width="1" fill="none"></path></g><g transform="translate(651.7095549958049 177.64372270898673) rotate(327.3287856669776 34.5 18)"><text x="34.5" y="14" font-family="Helvetica, Segoe UI Emoji" font-size="16px" fill="#000000" text-anchor="middle" style="white-space: pre;" direction="ltr">Postgres </text><text x="34.5" y="32" font-family="Helvetica, Segoe UI Emoji" font-size="16px" fill="#000000" text-anchor="middle" style="white-space: pre;" direction="ltr">adapter</text></g><g stroke-linecap="round"><g transform="translate(300.1823140553479 225.26778664457055) rotate(4.134611657818539 16.96695223722122 7.463773434546596)"><path d="M0 0 C13.14 5.78, 26.29 11.56, 33.93 14.93" stroke="#000000" stroke-width="1.5" fill="none" stroke-dasharray="8 9"></path></g><g transform="translate(300.1823140553479 225.26778664457055) rotate(4.134611657818539 16.96695223722122 7.463773434546596)"><path d="M15.44 13.72 C22.6 14.19, 29.77 14.65, 33.93 14.93" stroke="#000000" stroke-width="1.5" fill="none"></path></g><g transform="translate(300.1823140553479 225.26778664457055) rotate(4.134611657818539 16.96695223722122 7.463773434546596)"><path d="M20.54 2.11 C25.73 7.08, 30.92 12.04, 33.93 14.93" stroke="#000000" stroke-width="1.5" fill="none"></path></g></g><mask></mask><g stroke-linecap="round"><g transform="translate(253.34239577331982 431.4587879083311) rotate(4.39687667608063 19.886445065520547 -5.51601784600723)"><path d="M0 0 C14.03 -3.89, 28.05 -7.78, 39.77 -11.03" stroke="#000000" stroke-width="1.5" fill="none" stroke-dasharray="8 9"></path></g><g transform="translate(253.34239577331982 431.4587879083311) rotate(4.39687667608063 19.886445065520547 -5.51601784600723)"><path d="M22.97 0.95 C28.9 -3.27, 34.82 -7.5, 39.77 -11.03" stroke="#000000" stroke-width="1.5" fill="none"></path></g><g transform="translate(253.34239577331982 431.4587879083311) rotate(4.39687667608063 19.886445065520547 -5.51601784600723)"><path d="M19.2 -12.65 C26.45 -12.08, 33.71 -11.51, 39.77 -11.03" stroke="#000000" stroke-width="1.5" fill="none"></path></g></g><mask></mask><g stroke-linecap="round" transform="translate(658.1892175689909 249.91558762955208) rotate(349.27028931707304 65.5 28)"><path d="M15.8 0.01 L123.88 0.49 L129.52 3.57 L132.09 11.14 L128.8 47.73 L125.27 52.14 L117.03 57.27 L7.93 53.72 L3.9 51.73 L2.2 44.42 L-0.36 9.52 L2.88 5.76 L6.7 0.75 L13.91 1.91" stroke="none" stroke-width="0" fill="#e1f9bd"></path><path d="M14 0 M14 0 C53.41 0.34, 93.7 0.02, 117 0 M117 0 C124.97 1.37, 130.81 4.22, 131 14 M131 14 C130.7 18.2, 130.48 24.53, 131 42 M131 42 C129.19 51.87, 127.4 57.95, 117 56 M117 56 C82.15 56.39, 45.05 57.02, 14 56 M14 56 C3.68 57.72, 1.66 53.02, 0 42 M0 42 C-1.39 32.94, 1.18 22.46, 0 14 M0 14 C-0.45 6.17, 3.94 2, 14 0" stroke="#000000" stroke-width="1.5" fill="none" stroke-dasharray="8 9"></path></g><g transform="translate(671.1471415779279 268.9155876295521) rotate(349.27028931707304 55 9)"><text x="55" y="14" font-family="Helvetica, Segoe UI Emoji" font-size="16px" fill="#000000" text-anchor="middle" style="white-space: pre;" direction="ltr">Mock database</text></g><g stroke-linecap="round"><g transform="translate(650.7386811977967 295.68416244544756) rotate(345.90382865364427 -17.843607338105357 -0.36978498654991654)"><path d="M0 0 C-12.06 -0.25, -24.12 -0.5, -35.69 -0.74" stroke="#000000" stroke-width="1.5" fill="none" stroke-dasharray="8 9"></path></g><g transform="translate(650.7386811977967 295.68416244544756) rotate(345.90382865364427 -17.843607338105357 -0.36978498654991654)"><path d="M-35.69 -0.74 L-21.96 -6.8 L-22.23 5.88 L-35.69 -0.74" stroke="none" stroke-width="0" fill="#000000" fill-rule="evenodd"></path><path d="M-35.69 -0.74 C-31.05 -2.79, -26.41 -4.83, -21.96 -6.8 M-21.96 -6.8 C-22.06 -2.19, -22.16 2.42, -22.23 5.88 M-22.23 5.88 C-27.1 3.49, -31.97 1.09, -35.69 -0.74 M-35.69 -0.74 C-35.69 -0.74, -35.69 -0.74, -35.69 -0.74" stroke="#000000" stroke-width="1.5" fill="none"></path></g></g><mask></mask><g stroke-linecap="round"><g transform="translate(623.999678641314 233.39879665963616) rotate(0 -16.521109759385126 12.392053114557172)"><path d="M0 0 C-9.27 6.96, -18.55 13.91, -33.04 24.78" stroke="#000000" stroke-width="1.5" fill="none" stroke-dasharray="8 9"></path></g><g transform="translate(623.999678641314 233.39879665963616) rotate(0 -16.521109759385126 12.392053114557172)"><path d="M-33.04 24.78 L-25.97 11.56 L-18.36 21.7 L-33.04 24.78" stroke="none" stroke-width="0" fill="#000000" fill-rule="evenodd"></path><path d="M-33.04 24.78 C-31.06 21.07, -29.07 17.36, -25.97 11.56 M-25.97 11.56 C-23.67 14.63, -21.36 17.7, -18.36 21.7 M-18.36 21.7 C-21.87 22.44, -25.38 23.17, -33.04 24.78 M-33.04 24.78 C-33.04 24.78, -33.04 24.78, -33.04 24.78" stroke="#000000" stroke-width="1.5" fill="none"></path></g></g><mask></mask><g stroke-linecap="round" transform="translate(129.80610255472948 238.38437196396126) rotate(14.784092831421008 65.5 28)"><path d="M14.49 -1.9 L124.44 1.3 L127.7 5.07 L130.52 8.83 L130.16 49.39 L125.59 52.63 L118.93 57.2 L9.86 54.26 L1.39 49.33 L1.13 45.57 L1.45 9.5 L1.88 7.38 L7.28 1.13 L15.77 -0.8" stroke="none" stroke-width="0" fill="#e1f9bd"></path><path d="M14 0 M14 0 C49.98 0.88, 88.49 -0.92, 117 0 M117 0 C124.38 1.64, 129.69 4.14, 131 14 M131 14 C129.08 20.88, 131.97 28.64, 131 42 M131 42 C131.93 51.14, 125.97 56.81, 117 56 M117 56 C82.16 58.34, 50.94 58.3, 14 56 M14 56 C5.76 56.63, 0.3 50.03, 0 42 M0 42 C-0.62 33.89, -0.91 24.77, 0 14 M0 14 C1.23 4.12, 6.64 0.98, 14 0" stroke="#000000" stroke-width="1.5" fill="none" stroke-dasharray="8 9"></path></g><g transform="translate(141.31705811640586 257.38437196396126) rotate(14.784092831421008 54.5 9)"><text x="54.5" y="14" font-family="Helvetica, Segoe UI Emoji" font-size="16px" fill="#000000" text-anchor="middle" style="white-space: pre;" direction="ltr">Test framework</text></g><g stroke-linecap="round"><g transform="translate(267.00262551630703 283.83438707174537) rotate(351.8754818300091 15.781481330478073 7.251082644189978)"><path d="M0 0 C11.54 5.3, 23.07 10.6, 31.56 14.5" stroke="#000000" stroke-width="1.5" fill="none" stroke-dasharray="8 9"></path></g><g transform="translate(267.00262551630703 283.83438707174537) rotate(351.8754818300091 15.781481330478073 7.251082644189978)"><path d="M14.25 13.09 C20.58 13.6, 26.91 14.12, 31.56 14.5" stroke="#000000" stroke-width="1.5" fill="none"></path></g><g transform="translate(267.00262551630703 283.83438707174537) rotate(351.8754818300091 15.781481330478073 7.251082644189978)"><path d="M19.21 2.29 C23.73 6.75, 28.24 11.22, 31.56 14.5" stroke="#000000" stroke-width="1.5" fill="none"></path></g></g><mask></mask><g stroke-linecap="round" transform="translate(674.4057809244159 394.24947723323965) rotate(3.7017290695415466 63.5 31)"><path d="M15.93 -1.33 L111.1 -0.26 L119.06 2.21 L126.09 6.11 L125.36 13.8 L128.2 48.48 L123.96 55.36 L119.75 60.73 L111.79 63.23 L14.28 61.91 L7.97 61.63 L1.34 57.71 L-0.56 51.38 L-0.47 12.8 L2.52 5.24 L8.53 0.53 L13.54 1.64" stroke="none" stroke-width="0" fill="#e1f9bd"></path><path d="M15.5 0 M15.5 0 C37.26 -0.09, 58.7 1.24, 111.5 0 M15.5 0 C49.34 -0.62, 83.78 -0.16, 111.5 0 M111.5 0 C121.22 1.2, 126.02 6.89, 127 15.5 M111.5 0 C123.74 1.94, 128.25 5.89, 127 15.5 M127 15.5 C128.06 25.58, 126.35 36.54, 127 46.5 M127 15.5 C127.04 24.66, 127.8 31.04, 127 46.5 M127 46.5 C127.5 57.24, 122.01 61.45, 111.5 62 M127 46.5 C126.7 58.29, 123.97 60.18, 111.5 62 M111.5 62 C74.25 61.48, 38.47 59.97, 15.5 62 M111.5 62 C89.67 62.72, 65.09 62.52, 15.5 62 M15.5 62 C3.3 63.55, 0.68 55.78, 0 46.5 M15.5 62 C7.22 61.93, -0.7 58.86, 0 46.5 M0 46.5 C1.21 37.88, -0.41 31.27, 0 15.5 M0 46.5 C-0.54 34.13, -0.65 23.83, 0 15.5 M0 15.5 C-1.72 5.08, 6.13 -0.52, 15.5 0 M0 15.5 C0.91 6.17, 6.76 1.82, 15.5 0" stroke="#000000" stroke-width="1" fill="none"></path></g><g transform="translate(689.7125297969769 416.24947723323965) rotate(3.7017290695415466 50 9)"><text x="50" y="14" font-family="Helvetica, Segoe UI Emoji" font-size="16px" fill="#000000" text-anchor="middle" style="white-space: pre;" direction="ltr">Email adapter</text></g><g stroke-linecap="round"><g transform="translate(666.1666973950082 422.9680020535372) rotate(354.691823420662 -21.75122553228175 -3.745896360712578)"><path d="M0 0 C-12.18 -2.1, -24.36 -4.2, -43.5 -7.49" stroke="#000000" stroke-width="1.5" fill="none" stroke-dasharray="8 9"></path></g><g transform="translate(666.1666973950082 422.9680020535372) rotate(354.691823420662 -21.75122553228175 -3.745896360712578)"><path d="M-43.5 -7.49 L-29.03 -11.43 L-31.18 1.06 L-43.5 -7.49" stroke="none" stroke-width="0" fill="#000000" fill-rule="evenodd"></path><path d="M-43.5 -7.49 C-39.45 -8.6, -35.4 -9.7, -29.03 -11.43 M-29.03 -11.43 C-29.61 -8.05, -30.19 -4.66, -31.18 1.06 M-31.18 1.06 C-34.38 -1.16, -37.59 -3.38, -43.5 -7.49 M-43.5 -7.49 C-43.5 -7.49, -43.5 -7.49, -43.5 -7.49" stroke="#000000" stroke-width="1.5" fill="none"></path></g></g><mask></mask><g stroke-linecap="round" transform="translate(636.9858487185138 481.4092181043173) rotate(26.265722874364837 63.5 31)"><path d="M15.24 -1.89 L111.53 1.27 L121 0.78 L126.75 7.26 L128.74 11.01 L126.42 45.3 L125.73 56.23 L122.18 58.6 L111.41 63.91 L17.31 61.16 L7.82 59.02 L3.43 55.23 L1.18 48.77 L1.61 11.67 L3.43 1.92 L10.36 -0.34 L14.97 -1.47" stroke="none" stroke-width="0" fill="#e1f9bd"></path><path d="M15.5 0 M15.5 0 C41.26 1.94, 67.89 1.79, 111.5 0 M111.5 0 C121.64 -0.36, 127.81 5.74, 127 15.5 M127 15.5 C128.91 25.51, 128.87 33.28, 127 46.5 M127 46.5 C127.63 57.14, 120.53 62.87, 111.5 62 M111.5 62 C78.13 61.06, 43.75 63.02, 15.5 62 M15.5 62 C4.62 63.98, 0.98 55.24, 0 46.5 M0 46.5 C-0.61 36.16, 1.21 28.2, 0 15.5 M0 15.5 C-1.58 6.73, 4.12 -0.43, 15.5 0" stroke="#000000" stroke-width="1.5" fill="none" stroke-dasharray="8 9"></path></g><g transform="translate(656.2925975910748 503.4092181043173) rotate(26.265722874364837 46 9)"><text x="46" y="14" font-family="Helvetica, Segoe UI Emoji" font-size="16px" fill="#000000" text-anchor="middle" style="white-space: pre;" direction="ltr">Mock notifier</text></g><g stroke-linecap="round"><g transform="translate(636.0969473099235 484.00888639981594) rotate(10.082827420387847 -19.808525830482722 -5.335529065666094)"><path d="M0 0 C-11.95 -3.22, -23.9 -6.44, -39.62 -10.67" stroke="#000000" stroke-width="1.5" fill="none" stroke-dasharray="8 9"></path></g><g transform="translate(636.0969473099235 484.00888639981594) rotate(10.082827420387847 -19.808525830482722 -5.335529065666094)"><path d="M-39.62 -10.67 L-24.84 -13.26 L-28.14 -1.01 L-39.62 -10.67" stroke="none" stroke-width="0" fill="#000000" fill-rule="evenodd"></path><path d="M-39.62 -10.67 C-35.16 -11.45, -30.7 -12.23, -24.84 -13.26 M-24.84 -13.26 C-25.88 -9.41, -26.91 -5.56, -28.14 -1.01 M-28.14 -1.01 C-32.12 -4.36, -36.1 -7.71, -39.62 -10.67 M-39.62 -10.67 C-39.62 -10.67, -39.62 -10.67, -39.62 -10.67" stroke="#000000" stroke-width="1.5" fill="none"></path></g></g><mask></mask><g stroke-linecap="round" transform="translate(156.07486580352088 493.53233129261076) rotate(330.4069959267462 66 29.49999999999997)"><path d="M16.02 0.06 L122.3 2.85 L131.13 7.75 L130.91 10.71 L129.88 51.61 L126.53 58.16 L116.03 58.91 L10.21 59.89 L2.85 57.08 L-0.57 48.96 L-0.48 12.23 L2.33 5.05 L8.1 0.48 L12.79 1.64" stroke="none" stroke-width="0" fill="#e1f9bd"></path><path d="M14.75 0 M14.75 0 C38.03 -0.04, 60.99 1.29, 117.25 0 M117.25 0 C128.15 1.95, 132.93 4.72, 132 14.75 M132 14.75 C131.51 24.27, 131.14 33.11, 132 44.25 M132 44.25 C133.66 55.77, 128.17 59.63, 117.25 59 M117.25 59 C86.22 59.76, 52.21 60.94, 14.75 59 M14.75 59 C4.19 61, 1.23 53.54, 0 44.25 M0 44.25 C0.36 32.89, 0.04 20.17, 0 14.75 M0 14.75 C-0.26 6.18, 6.78 -1.58, 14.75 0" stroke="#000000" stroke-width="1.5" fill="none" stroke-dasharray="8 9"></path></g><g transform="translate(163.13034454068338 514.0323312926107) rotate(330.4069959267462 54.5 9)"><text x="54.5" y="14" font-family="Helvetica, Segoe UI Emoji" font-size="16px" fill="#000000" text-anchor="middle" style="white-space: pre;" direction="ltr">Test framework</text></g><g stroke-linecap="round"><g transform="translate(281.8387861659685 487.4598642654096) rotate(352.16274994535183 19.04945134420427 -8.844997814424602)"><path d="M0 0 C8.76 -4.07, 17.52 -8.14, 38.1 -17.69" stroke="#000000" stroke-width="1.5" fill="none" stroke-dasharray="8 9"></path></g><g transform="translate(281.8387861659685 487.4598642654096) rotate(352.16274994535183 19.04945134420427 -8.844997814424602)"><path d="M23.22 -2.86 C26.64 -6.27, 30.07 -9.68, 38.1 -17.69" stroke="#000000" stroke-width="1.5" fill="none"></path></g><g transform="translate(281.8387861659685 487.4598642654096) rotate(352.16274994535183 19.04945134420427 -8.844997814424602)"><path d="M17.17 -15.89 C21.99 -16.31, 26.8 -16.72, 38.1 -17.69" stroke="#000000" stroke-width="1.5" fill="none"></path></g></g><mask></mask><g transform="translate(10 89.49361670098813) rotate(0 73.5 23)"><text x="73.5" y="18" font-family="Helvetica, Segoe UI Emoji" font-size="20px" fill="#000000" text-anchor="middle" style="white-space: pre;" direction="ltr">Primary (driving)</text><text x="73.5" y="41" font-family="Helvetica, Segoe UI Emoji" font-size="20px" fill="#000000" text-anchor="middle" style="white-space: pre;" direction="ltr">adapters</text></g><g transform="translate(756.253933408927 89.49361670098813) rotate(0 84.5 23)"><text x="84.5" y="18" font-family="Helvetica, Segoe UI Emoji" font-size="20px" fill="#000000" text-anchor="middle" style="white-space: pre;" direction="ltr">Secondary (driven)</text><text x="84.5" y="41" font-family="Helvetica, Segoe UI Emoji" font-size="20px" fill="#000000" text-anchor="middle" style="white-space: pre;" direction="ltr">adapters</text></g><g transform="translate(774.7993879543965 604.1445679427384) rotate(0 68 9)"><text x="68" y="14" font-family="Helvetica, Segoe UI Emoji" font-size="16px" fill="#000000" text-anchor="middle" style="white-space: pre;" direction="ltr">use case boundary</text></g><g stroke-linecap="round"><g transform="translate(760.7993879543965 612.5055681474887) rotate(0 -124.56865123584862 -38.65053171627912)"><path d="M-0.79 0.57 C-14.37 0.68, -52.16 3.32, -82.61 -0.5 C-113.06 -4.32, -155.84 -9.29, -183.47 -22.35 C-211.09 -35.41, -237.47 -69.32, -248.35 -78.86" stroke="#000000" stroke-width="1.5" fill="none" stroke-dasharray="8 9"></path></g><g transform="translate(760.7993879543965 612.5055681474887) rotate(0 -124.56865123584862 -38.65053171627912)"><path d="M-220.37 -66.85 C-225.36 -67.82, -230.69 -70.31, -247.51 -78.39" stroke="#000000" stroke-width="1.5" fill="none"></path></g><g transform="translate(760.7993879543965 612.5055681474887) rotate(0 -124.56865123584862 -38.65053171627912)"><path d="M-235.07 -52.53 C-236.88 -56.36, -239.18 -61.81, -247.51 -78.39" stroke="#000000" stroke-width="1.5" fill="none"></path></g></g><mask></mask></svg>