<svg version="1.1" xmlns="http://www.w3.org/2000/svg" viewBox="0 0 899.7619910774247 295.03950637437083" width="899.7619910774247" height="295.03950637437083">
  <!-- svg-source:excalidraw -->
  
  <defs>
    <style class="style-fonts">
      @font-face {
        font-family: "Virgil";
        src: url("https://excalidraw.com/Virgil.woff2");
      }
      @font-face {
        font-family: "Cascadia";
        src: url("https://excalidraw.com/Cascadia.woff2");
      }
    </style>
  </defs>
  <rect x="0" y="0" width="899.7619910774247" height="295.03950637437083" fill="#ffffff"></rect><g stroke-linecap="round"><g transform="translate(382.7173392633176 32.19798409577652) rotate(0 67.17197150505399 125.45180333701637)" fill-rule="evenodd"><path d="M-1.36 -0.4 L-74.7 126.04 L-6.57 253.55 L146.68 249.83 L208.88 124.2 L134.5 0.95 L-1.57 -1.92" stroke="none" stroke-width="0" fill="#fcecbc" fill-rule="evenodd"></path><path d="M-0.38 -1.84 C-29.33 48.45, -56.74 95.55, -74.4 125.59 M-0.69 0.77 C-15.71 25.93, -30.43 52.05, -75.4 126.84 M-73.63 128.07 C-52.12 169.39, -30.5 211.01, -10.15 251.9 M-74.29 126.08 C-54.19 165.52, -34.49 204.33, -8.7 251.25 M-9.11 252.64 C29.01 250.93, 69.45 249.69, 147.39 252.29 M-8.63 252.84 C45.44 252.56, 101.88 252.64, 146.46 251.75 M147.33 251.47 C170.63 207.06, 194.42 160.28, 209.74 124.68 M148.35 251.29 C164.07 219.42, 179.12 189.4, 209.64 124.69 M207.75 126.46 C191.47 95.61, 172.79 70, 135.26 0.12 M208.69 125.05 C184.21 83.46, 158.33 41.01, 134.49 0.53 M132.04 -0.36 C99.69 -0.13, 68.61 -1.89, -1.53 -1.94 M134.05 0.35 C101.98 0.9, 68.72 0.99, -0.17 0.34 M0 0 C0 0, 0 0, 0 0 M0 0 C0 0, 0 0, 0 0" stroke="#000000" stroke-width="1" fill="none"></path></g></g><mask></mask><g transform="translate(403.1547881137458 144.60707500486743) rotate(0 49.5 11.5)"><text x="0" y="18" font-family="Helvetica, Segoe UI Emoji" font-size="20px" fill="#000000" text-anchor="start" style="white-space: pre;" direction="ltr">Application</text></g><g stroke-linecap="round" transform="translate(149.84713915168686 58.890874387622034) rotate(0 65.5 28)"><path d="M12.31 -0.38 L121.28 0.1 L129.4 5.99 L129.53 10.79 L129.33 46.28 L126.63 53.47 L115.62 57.55 L6.03 54.84 L1.65 49.93 L-1.64 46.22 L1.02 10.83 L2.6 6.31 L7.16 1.73 L14.49 -1.13" stroke="none" stroke-width="0" fill="#e1f9bd"></path><path d="M14 0 M14 0 C41.81 0.25, 68.04 0.41, 117 0 M14 0 C41.17 0.34, 69.26 -1.01, 117 0 M117 0 C125.28 -0.29, 131.54 3.83, 131 14 M117 0 C127.06 -1.41, 130.46 5.48, 131 14 M131 14 C132.01 18.79, 129.48 25.82, 131 42 M131 14 C131.64 24.74, 129.77 36.01, 131 42 M131 42 C132.38 52.18, 124.53 55.89, 117 56 M131 42 C131.26 52.43, 128.53 58.27, 117 56 M117 56 C75.86 54.72, 36.76 57.73, 14 56 M117 56 C86.26 55.45, 54.82 55, 14 56 M14 56 C3.17 57, -1.69 49.96, 0 42 M14 56 C6.5 55.89, -0.79 49.22, 0 42 M0 42 C0.5 32.47, -1 19.71, 0 14 M0 42 C0.01 32.6, 0.32 23.95, 0 14 M0 14 C-1.04 2.83, 3.89 -1.86, 14 0 M0 14 C-1.28 3.53, 4.47 1.34, 14 0" stroke="#000000" stroke-width="1" fill="none"></path></g><g transform="translate(164.34713915168686 77.89087438762203) rotate(0 51 9)"><text x="51" y="14" font-family="Helvetica, Segoe UI Emoji" font-size="16px" fill="#000000" text-anchor="middle" style="white-space: pre;" direction="ltr">REST adapter</text></g><g stroke-linecap="round"><g transform="translate(290.45250255942483 82.01281680338562) rotate(342.19235394521064 24.026733876013623 6.780573290171887)"><path d="M0.52 -1.25 C9.97 2.11, 18.02 7, 47.34 13.01 M-0.16 -0.3 C17.02 5.97, 36.43 10.99, 48.21 14.81" stroke="#000000" stroke-width="1" fill="none"></path></g><g transform="translate(290.45250255942483 82.01281680338562) rotate(342.19235394521064 24.026733876013623 6.780573290171887)"><path d="M23.77 14.92 C28.51 15.05, 31.79 16.66, 47.65 13.43 M23.09 15.87 C31.75 16.16, 42.51 15.24, 48.53 15.23" stroke="#000000" stroke-width="1" fill="none"></path></g><g transform="translate(290.45250255942483 82.01281680338562) rotate(342.19235394521064 24.026733876013623 6.780573290171887)"><path d="M28.74 -1.45 C32.38 2.09, 34.63 7.11, 47.65 13.43 M28.06 -0.5 C34.7 5.96, 43.57 11.22, 48.53 15.23" stroke="#000000" stroke-width="1" fill="none"></path></g></g><mask></mask><g stroke-linecap="round" transform="translate(10 55.55132749935228) rotate(0 38.98856205403035 25.612736467724257)"><path d="M-1.25 0.07 C19.59 -2.04, 41.87 -0.76, 76.6 1.55 M-0.3 -0.93 C16.66 0.52, 32.45 0.44, 78.4 0.85 M77.35 -1.87 C78 14.89, 78.3 28.19, 78.33 50.63 M78.58 -0.42 C77.36 14.33, 77.96 29.98, 77.56 51.54 M76.45 51.18 C60.39 52.52, 39.25 49.98, -0.71 52.91 M77.96 50.25 C62.27 52.61, 45.99 51.02, -0.05 51.34 M1.78 51.85 C-0.68 32.33, -1.67 15.47, 1.83 0.09 M0.27 51.74 C0.22 31.44, 0.91 12.3, -0.69 0.8" stroke="#000000" stroke-width="1" fill="none"></path></g><g stroke-linecap="round" transform="translate(10.159029790549539 55.56939926054247) rotate(0 38.73874015758656 2.3797337609999243)"><path d="M-0.69 -1.84 L79.13 1.36 L76.85 5.45 L1.18 3.95" stroke="none" stroke-width="0" fill="#bdddf0"></path><path d="M0.07 -0.79 C22.82 1.59, 48.76 -0.9, 79.03 -1.85 M-0.93 0.47 C22.54 0.29, 44.59 0.65, 78.32 -0.12 M77.03 -0.02 C77.48 1.59, 77.13 3.17, 77.34 4.71 M77.38 -0.18 C77.32 1.51, 77.51 3, 77.55 4.61 M77.43 5.81 C57.06 2.7, 33.09 3.46, 1.68 2.92 M76.5 5.26 C57.66 5.17, 35.57 4.7, 0.11 5.24 M0.15 4.71 C-0.3 2.6, -0.08 1.43, 0.02 0.34 M0.12 4.72 C-0.21 3.83, -0.23 2.5, 0.19 -0.01" stroke="#000000" stroke-width="1" fill="none"></path></g><g stroke-linecap="round" transform="translate(13.206558984977164 63.96790509521543) rotate(0 35.184224218610325 2.4782959996857095)"><path d="M0 0 C0 0, 0 0, 0 0 M0 0 C0 0, 0 0, 0 0 M-0.28 5.25 C2.18 4.17, 3.84 1.61, 5.5 0.08 M0.51 5.44 C1.79 3.67, 3.48 2.44, 5.05 0.54 M5.5 5.44 C6.86 3.41, 9.35 2.33, 10.58 0.09 M5.8 5.01 C6.93 4.13, 7.91 3.35, 10.9 -0.17 M11.23 5.68 C11.54 3.74, 12.67 2.85, 15.86 -0.15 M11.29 5.72 C12.05 3.9, 13.4 2.5, 15.72 0.05 M16.3 5.43 C18.24 3.92, 19.36 2.64, 21.34 0.09 M16.48 5.53 C18.58 3.01, 19.84 1.62, 21.41 -0.16 M21.54 6.19 C22.62 3.98, 23.26 3.06, 26.37 0.73 M21.42 5.41 C22.95 3.44, 24.98 1.9, 26.21 0.53 M27.89 5.76 C28.61 3.86, 29.28 3.28, 32.57 -0.65 M27.26 4.87 C28.77 3.4, 29.81 2.16, 32.23 -0.43 M32.92 5.95 C32.6 5.04, 33.51 3.07, 37.52 0.32 M32.53 5.43 C33.79 3.79, 35.6 1.5, 36.83 0.28 M37.9 5.52 C39.43 3.57, 40.88 1.25, 41.86 -0.72 M37.82 5.47 C38.66 4.33, 40.13 2.85, 42.24 -0.28 M42.9 5.04 C45.09 3.15, 46.67 1.86, 47.15 0.67 M42.84 5.75 C44.02 3.9, 45.7 2.15, 47.67 0.47 M48.28 5.45 C50.5 3.48, 51.88 1.91, 53.21 -0.57 M48.28 4.96 C49.99 3.63, 50.6 2.03, 53.27 -0.03 M53.99 5.9 C54.64 3.48, 56.51 2.8, 58.79 -0.11 M53.52 5.29 C54.8 3.7, 56.5 1.58, 57.89 0.2 M59.66 5.12 C59.82 4, 60.91 3.36, 64.44 0.28 M59.24 5.19 C60.33 3.81, 61.06 2.96, 63.75 -0.26 M63.9 4.9 C65.4 3.65, 65.73 3.13, 69.08 0.48 M64.44 5.54 C65.21 3.84, 66.62 2.51, 68.53 0.03 M69.29 5.31 C69.81 4.71, 71.26 3.81, 72.27 1.53 M69.07 5.97 C70.1 4.7, 71.14 3.49, 72.38 1.85" stroke="#868e96" stroke-width="0.5" fill="none"></path><path d="M-0.79 -1.84 C24.05 -0.58, 44.52 1.53, 68.52 -0.29 M0.47 0.4 C20.05 0.97, 40.42 1.5, 70.25 0.25 M70.34 0.03 C70.4 0.87, 70.44 2.27, 70.32 5.08 M70.18 -0.13 C70.36 1.22, 70.3 2.39, 70.22 4.9 M71.41 5.97 C45.3 3.42, 22.48 6.62, -1.84 4.25 M70.87 5.65 C43.39 3.37, 15.51 4.38, 0.48 5.91 M-0.05 4.69 C-0.34 2.95, 0.41 1.03, 0.36 -0.39 M-0.05 4.77 C0.11 2.96, -0.18 1.58, -0.01 -0.09" stroke="#c8c8c8" stroke-width="1" fill="none"></path></g><g stroke-linecap="round" transform="translate(14.236679748508323 72.17043943467434) rotate(0 6.072807651625681 15.857288038994731)"><path d="M0 0 C0 0, 0 0, 0 0 M0 0 C0 0, 0 0, 0 0 M-0.71 6.5 C1.34 5.29, 1.69 4.47, 4.66 0.45 M-0.5 6.36 C0.86 4.9, 2.84 2.99, 5.2 0.4 M0.57 10.7 C3.14 9.25, 7.87 4.03, 10.92 -1.47 M-0.41 11.88 C3.28 8.35, 7.2 5.48, 10.33 -0.6 M0.07 16.87 C2.16 12.27, 7.22 9.54, 12.94 1.36 M0.19 17.68 C2.89 13.54, 6.74 10.12, 13.51 1.22 M0.89 25.6 C5.65 19.45, 11.04 11.81, 14.48 9.38 M1.17 24.77 C2.91 19.71, 7.85 16.46, 13.78 7.76 M1.78 30.04 C4.75 22.28, 11.41 18.26, 15.68 15.11 M-0.47 29.56 C4.98 24.3, 11.61 17.62, 15.11 13.16 M3.86 34.44 C4.82 30.23, 9.12 29.26, 12.76 20.44 M1.56 34.06 C6.25 28.19, 11.53 24.92, 13.33 19.42 M8.6 32.54 C10.59 30.42, 11.07 30.3, 14.66 26.82 M7.86 33.11 C10.84 30.33, 12.9 27.86, 14.61 26.16" stroke="#868e96" stroke-width="0.5" fill="none"></path><path d="M-1.12 0.67 C2.55 -0.79, 6.71 -1.07, 11.97 -0.19 M0.24 0.03 C3.47 0.2, 7.07 -0.13, 12.29 -0.34 M12.27 0.2 C10.51 8.88, 11.25 16.85, 12.65 30.38 M11.62 -0.14 C12.28 11.02, 12.33 22.26, 11.91 32.07 M12.76 30.82 C8.51 31.35, 7.73 30.66, -0.43 32.8 M12.57 31.97 C7.97 31.74, 4.96 32.06, 0.58 32.31 M-1.08 30.53 C-0.23 21.21, -0.01 8.48, -1.59 1.2 M-0.75 32.21 C-1.01 20.67, 0.63 10.95, -0.34 -0.92" stroke="#c8c8c8" stroke-width="1" fill="none"></path></g><g stroke-linecap="round" transform="translate(30.702908702976856 73.0422875030722) rotate(0 26.16962746386571 4.949194516969179)"><path d="M0 0 C0 0, 0 0, 0 0 M0 0 C0 0, 0 0, 0 0 M-0.16 6.84 C1.09 4.76, 2.72 3.41, 5.07 0.25 M-0.3 6.01 C1.45 4.8, 2.76 3.22, 5.02 0.48 M0.28 10.14 C5.31 7.99, 7.04 4.29, 9.38 -0.03 M1.3 10.45 C3.56 8.71, 6.38 5.36, 10.14 -0.12 M5.34 9.55 C7.9 7.36, 11.79 4.3, 15.28 -0.29 M5.9 10.35 C8.2 7.87, 11.02 5.18, 15.19 1 M12.56 11.12 C15 8.35, 16.32 6.18, 22.12 -0.72 M11.94 10.59 C14.15 8.14, 17.73 4.15, 20.91 0.53 M16.75 10.32 C18.29 8.12, 22.45 5.75, 27.11 1.51 M16.42 10.35 C19.38 8.66, 21.35 6.44, 25.75 -0.2 M22.53 10.91 C23.79 9.65, 27.77 4.93, 32.03 0.82 M22.22 10.94 C24.81 7.97, 29.57 2.8, 31.18 -0.35 M26.4 12 C29.1 6.86, 34.63 4.29, 38.14 1.15 M27.19 11.43 C29.69 8.07, 32.62 5.04, 37.21 0.9 M32.59 11.71 C34.77 7.75, 36.27 4.12, 41.33 -0.25 M32.08 11.9 C35.73 8.1, 37.43 4.68, 43.24 0.2 M39.08 10.22 C40.95 9.19, 42.28 6.39, 47.49 -1.1 M37.69 10.65 C40.25 8.04, 42.52 6.8, 47.5 0.65 M44.52 11.01 C47 8.2, 48.31 4.74, 51.96 1.45 M43.84 10.96 C45.44 7.45, 49.04 5.27, 52.28 0.06 M48.8 10.24 C50.2 9.83, 51.25 8.44, 53.13 6.03 M48.67 10.78 C49.9 9.25, 50.97 8.23, 52.64 6.32" stroke="#868e96" stroke-width="0.5" fill="none"></path><path d="M1.1 -0.56 C14.5 2.03, 29.92 0.2, 52.02 -0.6 M0.06 0.32 C11.27 0.64, 21.57 0.04, 51.77 -0.31 M52.44 -0.66 C52.51 1.75, 52.24 4.34, 51.68 10.5 M52.27 0.13 C52.06 2.71, 51.96 4.99, 52.51 9.52 M50.87 8.38 C36.04 11.85, 19.33 9.46, 1.79 9.87 M52.76 9 C41.69 10.37, 31.63 11.22, 0.99 10.79 M-0.58 9.83 C0.91 6.66, 0.72 2.56, 0.6 0.26 M0.25 9.48 C-0.32 6.81, -0.01 2.77, -0.45 0.41" stroke="#c8c8c8" stroke-width="1" fill="none"></path></g><g stroke-linecap="round" transform="translate(30.50074420679084 86.55120414435441) rotate(0 26.389125601312116 8.46585993046262)"><path d="M0 0 C0 0, 0 0, 0 0 M0 0 C0 0, 0 0, 0 0 M0.18 6.52 C0.51 5.75, 1.58 4.03, 4.88 0.23 M-0.65 6.65 C1.61 4.46, 3.49 2.4, 5.11 0.38 M-0.32 13.15 C3.26 9.3, 5.08 5.29, 10.64 -1.07 M0.04 11.91 C3.33 9.89, 4.77 5.91, 10.53 -0.3 M-1.39 16.33 C4.47 12.78, 9.1 5.87, 14.74 -0.83 M-0.25 17.15 C5.52 11.58, 11.02 4.14, 16.58 -0.3 M5.99 18.87 C9.6 13.11, 14.02 9.75, 20.39 -0.05 M5.29 16.9 C10.24 13.35, 13.16 8.18, 22.05 -0.28 M10.4 15.72 C15.7 13.11, 20.79 9.09, 27.99 -1.04 M10.44 17.8 C15.1 13.63, 18.96 8.97, 25.54 -0.49 M16.39 16.8 C23.82 12.47, 26.68 4.05, 33.12 0.79 M16.44 16.4 C22.1 13.15, 24.78 6.19, 31.56 0.02 M23.47 15.67 C26.73 12.81, 33.67 5.97, 38.15 -0.2 M22.65 16.94 C27.62 11.18, 33.06 5.39, 37.79 -0.2 M28.14 16.66 C31.14 10.19, 34.61 5.36, 42.37 -0.75 M28.39 17.71 C31.4 11.88, 34.97 8.95, 42.97 -0.6 M31.61 18.01 C38.49 11.31, 42.82 7.12, 45.62 -1.59 M32.22 17.55 C35.84 13.34, 41.42 8.03, 48.12 -0.14 M37.87 18.93 C41.72 12.72, 44.68 7.27, 54.39 -0.3 M37.79 16.25 C40.55 13.6, 45.2 9.12, 52.4 -0.93 M41.75 18.52 C46.86 14.86, 49.48 9.96, 52.39 5.95 M43.1 17.13 C45.36 13.8, 48.89 10.4, 53.12 6.32 M48.76 16.92 C50.64 16.08, 51.99 13.36, 52.72 12.94 M48.62 17.04 C50.11 15.68, 51.12 13.98, 52.73 12.86" stroke="#868e96" stroke-width="0.5" fill="none"></path><path d="M-0.56 -1.38 C15.3 -2.14, 27.21 -0.61, 52.18 -1.86 M0.32 0.42 C19.15 -0.15, 36.85 -0.6, 52.47 -0.94 M51.64 0.3 C52.29 4.83, 53.22 8.86, 53.8 16.22 M53.01 -0.35 C52.96 3.29, 52.49 7.92, 52.13 16.91 M51.26 16.22 C35.87 14.7, 14.89 18.33, -0.02 14.98 M51.88 16.88 C34.43 17.63, 16.81 18.14, 0.89 17.24 M-0.11 18.48 C0.16 13.23, -1.26 8.11, 0.45 0.87 M-0.71 16.35 C0.8 12.12, -0.16 6.61, 0.7 0.58" stroke="#c8c8c8" stroke-width="1" fill="none"></path></g><g transform="translate(16.67138311220333 111.80632321846133) rotate(0 32.5 9)"><text x="32.5" y="14" font-family="Helvetica, Segoe UI Emoji" font-size="16px" fill="#000000" text-anchor="middle" style="white-space: pre;" direction="ltr">Web app</text></g><g stroke-linecap="round"><g transform="translate(94.05755054363726 88.9011095660311) rotate(0 25.217382818016176 0.4182554417810671)"><path d="M-0.83 0.93 C7.25 0.93, 40.65 -0.07, 49.13 -0.31 M0.94 0.37 C9.31 0.6, 43.22 1.1, 51.26 1.14" stroke="#000000" stroke-width="1" fill="none"></path></g><g transform="translate(94.05755054363726 88.9011095660311) rotate(0 25.217382818016176 0.4182554417810671)"><path d="M29.11 7.62 C35.72 6.36, 43.82 1.86, 52.2 1.94 M28.41 9.35 C35.03 6.26, 41.71 3.34, 51.21 1.2" stroke="#000000" stroke-width="1" fill="none"></path></g><g transform="translate(94.05755054363726 88.9011095660311) rotate(0 25.217382818016176 0.4182554417810671)"><path d="M29.3 -9.56 C35.79 -4.72, 43.83 -3.12, 52.2 1.94 M28.6 -7.83 C35.21 -5.67, 41.84 -3.34, 51.21 1.2" stroke="#000000" stroke-width="1" fill="none"></path></g></g><mask></mask><g stroke-linecap="round" transform="translate(316.9885620540299 82.67882535890669) rotate(300.2756897768884 49 23)"><path d="M13.05 -1.85 L86.21 -0.32 L92.91 -0.24 L98.75 9.61 L98.11 35.13 L97.23 43.2 L93.27 44.87 L85.37 45.38 L9.63 45.9 L4.61 44.58 L-1.16 37.55 L-0.41 8.61 L3.38 1.54 L12.71 -0.84" stroke="none" stroke-width="0" fill="#ffffff"></path><path d="M11.5 0 M11.5 0 C28.92 -0.73, 45.9 -1.11, 86.5 0 M11.5 0 C32.23 1.09, 53.51 -0.17, 86.5 0 M86.5 0 C92.65 -0.71, 99.68 1.99, 98 11.5 M86.5 0 C93.35 2.06, 97.97 1.59, 98 11.5 M98 11.5 C96.36 19.44, 98.38 28.54, 98 34.5 M98 11.5 C98.54 20.5, 97.69 29.1, 98 34.5 M98 34.5 C97.87 43.99, 94.25 47.43, 86.5 46 M98 34.5 C96.17 43.55, 94.78 47.18, 86.5 46 M86.5 46 C63.68 45, 45.84 46.27, 11.5 46 M86.5 46 C67.25 46.31, 46.99 47.21, 11.5 46 M11.5 46 C3.02 45.14, 0.37 44.16, 0 34.5 M11.5 46 C4.82 46.66, -1.13 43.54, 0 34.5 M0 34.5 C-0.66 26.25, -0.99 20.74, 0 11.5 M0 34.5 C-0.9 26.83, -0.7 21.23, 0 11.5 M0 11.5 C1.1 4.13, 3.02 1.45, 11.5 0 M0 11.5 C-0.93 4.08, 3.52 -0.39, 11.5 0" stroke="#000000" stroke-width="1" fill="none"></path></g><g transform="translate(351.4885620540299 96.67882535890669) rotate(300.2756897768884 14.5 9)"><text x="14.5" y="14" font-family="Helvetica, Segoe UI Emoji" font-size="16px" fill="#000000" text-anchor="middle" style="white-space: pre;" direction="ltr">port</text></g><g stroke-linecap="round" transform="translate(626.6696330432187 58.890874387622034) rotate(0 65.5 28)"><path d="M13.71 -0.32 L122.53 -0.98 L129.97 6.27 L130.89 11.35 L130.97 49.82 L125.3 54.52 L115.87 55.38 L6 55.02 L2.09 50.73 L-1.12 45.64 L-0.37 10.52 L2.48 4.13 L6.68 1.12 L12.5 -1.05" stroke="none" stroke-width="0" fill="#e1f9bd"></path><path d="M14 0 M14 0 C44.06 -0.79, 72.39 1.13, 117 0 M14 0 C37.56 -1.28, 59.35 -0.89, 117 0 M117 0 C128.02 -1.84, 130.29 6.45, 131 14 M117 0 C126.3 -2.24, 132.14 6.26, 131 14 M131 14 C130.97 24.55, 132.66 35.16, 131 42 M131 14 C130.55 24.3, 131.02 36.69, 131 42 M131 42 C131.09 52.77, 124.74 57.2, 117 56 M131 42 C131.61 52.51, 125.91 54.28, 117 56 M117 56 C82.57 55.19, 44.27 53.46, 14 56 M117 56 C77.93 56.27, 37.75 55.25, 14 56 M14 56 C5.03 57.99, 0.86 51.91, 0 42 M14 56 C3.54 57.37, -0.51 50.14, 0 42 M0 42 C-1 35.19, -0.06 31.51, 0 14 M0 42 C-0.35 36.18, 0.76 30.25, 0 14 M0 14 C-0.81 6.12, 3.85 0.22, 14 0 M0 14 C-0.31 4.28, 5.46 -1.36, 14 0" stroke="#000000" stroke-width="1" fill="none"></path></g><g transform="translate(658.8082069357206 68.89087438762203) rotate(0 37 18)"><text x="37" y="14" font-family="Helvetica, Segoe UI Emoji" font-size="16px" fill="#000000" text-anchor="middle" style="white-space: pre;" direction="ltr">Database </text><text x="37" y="32" font-family="Helvetica, Segoe UI Emoji" font-size="16px" fill="#000000" text-anchor="middle" style="white-space: pre;" direction="ltr">adapter</text></g><g stroke-linecap="round"><g transform="translate(833.7494894940482 60.56298497417765) rotate(359.99999999999994 22.416645823077488 23.555810260435972)" fill-rule="evenodd"><path d="M-0.71 1.79 L-0.08 46.41 L3.28 51.76 L11.08 50.38 L23.54 52.97 L37.43 53.76 L45.26 51.48 L45 48.13 L43.25 -1.84 L38.73 -1.16 L21.59 -3.14 L4.06 -1.77 L0.53 1.03" stroke="none" stroke-width="0" fill="#bdddf0" fill-rule="evenodd"></path><path d="M0.56 0.48 C0.66 7.95, 0.22 35.57, 0.21 43.7 C0.21 51.83, 0.19 48.1, 0.51 49.27 C0.83 50.43, 0.64 50.25, 2.15 50.68 C3.65 51.1, 6.15 51.48, 9.55 51.81 C12.95 52.15, 18.03 52.66, 22.53 52.69 C27.03 52.71, 33.22 52.43, 36.55 51.97 C39.87 51.51, 41.26 50.62, 42.48 49.92 C43.71 49.22, 43.53 48.91, 43.89 47.78 C44.26 46.65, 44.5 50.57, 44.69 43.13 C44.87 35.68, 45.26 10.45, 45 3.13 C44.75 -4.19, 43.81 0.05, 43.14 -0.81 C42.48 -1.66, 42.43 -1.59, 41.02 -1.98 C39.61 -2.37, 38.06 -2.67, 34.68 -3.15 C31.31 -3.63, 24.72 -4.56, 20.77 -4.85 C16.81 -5.14, 14.1 -5.47, 10.95 -4.87 C7.8 -4.26, 3.6 -1.89, 1.87 -1.23 C0.15 -0.57, 1.05 -1.04, 0.59 -0.91 C0.12 -0.78, -0.98 -0.39, -0.91 -0.43 M-0.6 -0.31 C-0.63 6.88, -0.8 33.81, -0.7 41.78 C-0.6 49.74, -0.49 45.76, 0.01 47.46 C0.52 49.15, 0.42 51.18, 2.32 51.93 C4.21 52.69, 7.88 52.06, 11.38 52 C14.89 51.95, 19.04 51.84, 23.35 51.61 C27.66 51.39, 33.67 51, 37.23 50.68 C40.79 50.36, 43.28 50.41, 44.7 49.69 C46.11 48.96, 45.54 47.57, 45.69 46.33 C45.85 45.09, 45.61 49.33, 45.62 42.25 C45.62 35.17, 45.82 11.15, 45.71 3.85 C45.59 -3.46, 45.67 -0.48, 44.92 -1.56 C44.16 -2.64, 43.02 -2.37, 41.16 -2.63 C39.29 -2.9, 37.12 -2.66, 33.71 -3.14 C30.31 -3.63, 24.29 -5.4, 20.71 -5.55 C17.13 -5.71, 15.56 -4.99, 12.21 -4.09 C8.86 -3.19, 2.7 -0.66, 0.61 -0.15 C-1.49 0.36, -0.43 -0.97, -0.38 -1.01 C-0.33 -1.05, 1.1 -0.6, 0.89 -0.4" stroke="#000000" stroke-width="1" fill="none"></path></g></g><mask></mask><g stroke-linecap="round" transform="translate(833.9069263085639 55.381072443412904) rotate(359.99999999999994 22.061565822587454 4.461785711643634)"><path d="M30.99 1.06 C35.18 1.37, 40.49 2.52, 42.5 3.17 C44.52 3.82, 44.35 4.26, 43.07 4.95 C41.79 5.65, 38.86 6.53, 34.85 7.32 C30.84 8.11, 23.8 9.71, 19.01 9.69 C14.22 9.68, 9.42 7.89, 6.1 7.21 C2.79 6.53, -0.67 6.54, -0.87 5.59 C-1.07 4.64, 1.93 2.33, 4.93 1.52 C7.93 0.71, 12.38 0.93, 17.12 0.72 C21.87 0.51, 30.3 0.04, 33.38 0.25 C36.45 0.47, 35.63 1.83, 35.57 2.01 M15.92 -1.24 C19.96 -1.7, 26.88 -1.47, 31.12 -0.95 C35.36 -0.42, 39.36 0.65, 41.37 1.9 C43.37 3.15, 44.52 5.71, 43.15 6.56 C41.77 7.41, 37.25 6.76, 33.11 7.01 C28.98 7.26, 22.78 7.83, 18.33 8.06 C13.88 8.29, 9.42 9.04, 6.41 8.39 C3.4 7.74, 0.47 5.37, 0.28 4.17 C0.09 2.98, 2.52 1.94, 5.28 1.23 C8.05 0.53, 14.98 0.01, 16.86 -0.07 C18.73 -0.15, 16.63 0.66, 16.55 0.74" stroke="none" stroke-width="0" fill="#fff"></path><path d="M25.42 0.3 C29.74 0.2, 35.2 0.55, 38.16 1.23 C41.12 1.9, 43 3.32, 43.18 4.34 C43.36 5.36, 42.18 6.59, 39.25 7.37 C36.31 8.15, 30.27 8.87, 25.57 9.02 C20.87 9.17, 15.02 8.87, 11.04 8.26 C7.07 7.66, 3.25 6.33, 1.71 5.39 C0.17 4.44, 0.44 3.46, 1.82 2.58 C3.19 1.7, 5.45 0.45, 9.97 0.11 C14.5 -0.24, 25.33 0.37, 28.99 0.5 C32.64 0.64, 32.09 0.94, 31.89 0.93 M26.71 0.83 C31.19 0.75, 35.07 -0.35, 37.88 0.46 C40.69 1.28, 43.64 4.67, 43.59 5.73 C43.54 6.79, 40.29 6.29, 37.56 6.81 C34.82 7.32, 31.87 8.46, 27.2 8.84 C22.53 9.22, 13.68 9.44, 9.53 9.07 C5.39 8.7, 3.95 7.66, 2.36 6.62 C0.76 5.58, -1.49 3.73, -0.01 2.85 C1.47 1.96, 6.67 1.53, 11.23 1.31 C15.79 1.09, 24.7 1.66, 27.36 1.55 C30.02 1.44, 27.51 0.93, 27.19 0.62" stroke="#000000" stroke-width="1" fill="none"></path></g><g transform="translate(819.7619910774247 117.99090571092756) rotate(359.99999999999994 35 9)"><text x="35" y="14" font-family="Helvetica, Segoe UI Emoji" font-size="16px" fill="#000000" text-anchor="middle" style="white-space: pre;" direction="ltr">Database</text></g><g stroke-linecap="round"><g transform="translate(564.6879465314723 101.82762150253002) rotate(29.999999999999964 24.953573067273737 -14.87320962816333)"><path d="M0.38 0.51 C8.76 -4.55, 42.51 -25.04, 50.79 -30.25 M-0.88 -0.27 C7.39 -5.14, 41.98 -23.86, 50.37 -28.79" stroke="#000000" stroke-width="1" fill="none"></path></g><g transform="translate(564.6879465314723 101.82762150253002) rotate(29.999999999999964 24.953573067273737 -14.87320962816333)"><path d="M32.25 -5.05 C37.61 -13.81, 43.16 -22.42, 48.5 -28.89 M31.58 -7.03 C37.09 -13.11, 42.33 -19.5, 49.95 -29.54" stroke="#000000" stroke-width="1" fill="none"></path></g><g transform="translate(564.6879465314723 101.82762150253002) rotate(29.999999999999964 24.953573067273737 -14.87320962816333)"><path d="M22.51 -22.4 C31.19 -25.29, 40.06 -28, 48.5 -28.89 M21.85 -24.38 C30.35 -25.08, 38.57 -26.17, 49.95 -29.54" stroke="#000000" stroke-width="1" fill="none"></path></g></g><mask></mask><g stroke-linecap="round"><g transform="translate(769.0693928080527 99.83941926588722) rotate(29.999999999999964 24.73053825671286 -14.713439256619154)"><path d="M0.51 1.02 C8.85 -3.79, 41.96 -23.45, 50.15 -28.47 M-0.69 0.5 C7.48 -4.72, 40.93 -25.69, 49.13 -30.44" stroke="#000000" stroke-width="1" fill="none"></path></g><g transform="translate(769.0693928080527 99.83941926588722) rotate(29.999999999999964 24.73053825671286 -14.713439256619154)"><path d="M32.7 -8.08 C36.96 -15.96, 41.39 -23.61, 49.03 -30.32 M30.71 -7.94 C37.02 -15.54, 42.99 -22.3, 48.38 -30.97" stroke="#000000" stroke-width="1" fill="none"></path></g><g transform="translate(769.0693928080527 99.83941926588722) rotate(29.999999999999964 24.73053825671286 -14.713439256619154)"><path d="M22.41 -25.01 C29.87 -27.76, 37.44 -30.23, 49.03 -30.32 M20.42 -24.88 C29.81 -27.25, 38.96 -28.76, 48.38 -30.97" stroke="#000000" stroke-width="1" fill="none"></path></g></g><mask></mask><g stroke-linecap="round" transform="translate(482.7205265027824 81.37736782065281) rotate(58.13402230639639 49 23)"><path d="M12.34 1.69 L86.26 0.49 L92.38 0.99 L95.95 8.7 L98.12 34.7 L95.04 41.86 L92.91 44.18 L87.01 44.66 L12.71 45.16 L2.99 43.33 L-0.11 37.73 L-0.66 9.44 L1.65 2.41 L12.2 -1.52" stroke="none" stroke-width="0" fill="#ffffff"></path><path d="M11.5 0 M11.5 0 C32.36 -1.9, 55.45 1.3, 86.5 0 M11.5 0 C27.07 -1.65, 43.17 0.02, 86.5 0 M86.5 0 C95.02 -1.8, 97.89 4.06, 98 11.5 M86.5 0 C95.26 2.2, 100.27 5.88, 98 11.5 M98 11.5 C96.8 18.98, 99.8 26.81, 98 34.5 M98 11.5 C98.08 20.56, 97.63 27.85, 98 34.5 M98 34.5 C99 40.48, 92.79 47.59, 86.5 46 M98 34.5 C97.89 41.38, 92.05 47.9, 86.5 46 M86.5 46 C60.07 45.45, 30.41 46.63, 11.5 46 M86.5 46 C56.04 46.81, 26.35 45.7, 11.5 46 M11.5 46 C2 45.22, -1.86 41.05, 0 34.5 M11.5 46 C2.7 45.8, 1.34 40.15, 0 34.5 M0 34.5 C0.48 30.46, 0.52 23.42, 0 11.5 M0 34.5 C-0.04 25.76, 0.44 16.76, 0 11.5 M0 11.5 C-0.21 1.88, 5.08 0.4, 11.5 0 M0 11.5 C0.42 5.04, 4.05 0.69, 11.5 0" stroke="#000000" stroke-width="1" fill="none"></path></g><g transform="translate(517.2205265027824 95.37736782065281) rotate(58.13402230639639 14.5 9)"><text x="14.5" y="14" font-family="Helvetica, Segoe UI Emoji" font-size="16px" fill="#000000" text-anchor="middle" style="white-space: pre;" direction="ltr">port</text></g><g stroke-linecap="round"><g transform="translate(155.3932333009452 186.95959595959314) rotate(0 300.08266066594706 23.827241919033014)"><path d="M1.95 -0.4 C85.77 -0.66, 403.31 -2.23, 504.24 0.64 C605.16 3.52, 607.49 8.79, 607.52 16.86 C607.54 24.94, 606.28 44.19, 504.4 49.1 C402.51 54, 81.32 46.33, -3.79 46.31 M-0.43 -3.08 C82.94 -3.09, 401.36 0.32, 502.32 4.13 C603.29 7.93, 605 13.09, 605.35 19.75 C605.7 26.4, 606.53 39.48, 504.41 44.05 C402.29 48.63, 77.45 46.55, -7.35 47.2" stroke="#000000" stroke-width="2" fill="none"></path></g><g transform="translate(155.3932333009452 186.95959595959314) rotate(0 300.08266066594706 23.827241919033014)"><path d="M20.26 37.77 C10.8 39.94, 0.77 42.97, -4.75 46.97 M20.34 38.32 C11.58 39.08, 2.93 43.86, -8.31 49.04" stroke="#000000" stroke-width="2" fill="none"></path></g><g transform="translate(155.3932333009452 186.95959595959314) rotate(0 300.08266066594706 23.827241919033014)"><path d="M20.28 58.29 C10.48 53.31, 0.45 49.19, -4.75 46.97 M20.35 58.84 C11.99 53.48, 3.32 52.16, -8.31 49.04" stroke="#000000" stroke-width="2" fill="none"></path></g></g><mask></mask><g transform="translate(406.3023242100371 200.86868686868408) rotate(0 50 9)"><text x="50" y="14" font-family="Helvetica, Segoe UI Emoji" font-size="16px" fill="#000000" text-anchor="middle" style="white-space: pre;" direction="ltr">flow of control</text></g><g transform="translate(93.92881424269763 18) rotate(0 45.5 9)"><text x="45.5" y="14" font-family="Helvetica, Segoe UI Emoji" font-size="16px" fill="#000000" text-anchor="middle" style="white-space: pre;" direction="ltr">POST /order</text></g><g stroke-linecap="round" transform="translate(53.29727370499313 11) rotate(0 16 16)"><path d="M15.85 -0.03 C18.99 -0.59, 22.9 0.71, 25.64 2.71 C28.39 4.7, 31.73 8.62, 32.32 11.95 C32.91 15.28, 30.97 19.61, 29.21 22.67 C27.44 25.74, 24.64 28.86, 21.73 30.35 C18.82 31.84, 14.96 32.63, 11.76 31.61 C8.56 30.58, 4.34 27.23, 2.55 24.19 C0.76 21.15, 0.69 16.61, 1.02 13.37 C1.36 10.13, 2.1 6.93, 4.57 4.76 C7.04 2.58, 13.91 1.18, 15.84 0.32 C17.78 -0.54, 16.32 -0.51, 16.2 -0.39 M12 1.05 C15.12 -0.14, 20.36 -0.58, 23.61 0.82 C26.86 2.23, 30.13 6.22, 31.47 9.47 C32.82 12.71, 32.68 17.11, 31.66 20.31 C30.64 23.5, 28.37 26.67, 25.35 28.63 C22.34 30.6, 16.92 32.25, 13.56 32.09 C10.2 31.93, 7.41 30.29, 5.18 27.68 C2.96 25.07, 0.58 19.98, 0.21 16.43 C-0.17 12.89, 0.9 9.23, 2.96 6.43 C5.02 3.64, 10.86 0.38, 12.59 -0.34 C14.31 -1.06, 13.29 1.81, 13.3 2.1" stroke="#000000" stroke-width="1" fill="none"></path></g><g transform="translate(64.29727370499313 18) rotate(0 5 9)"><text x="5" y="14" font-family="Helvetica, Segoe UI Emoji" font-size="16px" fill="#000000" text-anchor="middle" style="white-space: pre;" direction="ltr">1</text></g><g transform="translate(273.247744179911 18.937798586338886) rotate(0 41.5 9)"><text x="41.5" y="14" font-family="Helvetica, Segoe UI Emoji" font-size="16px" fill="#000000" text-anchor="middle" style="white-space: pre;" direction="ltr">Place order</text></g><g stroke-linecap="round" transform="translate(233.29727370499313 11.937798586338886) rotate(0 16 16)"><path d="M19.79 0.4 C22.92 0.87, 26.32 3.36, 28.41 6.33 C30.5 9.3, 32.5 14.79, 32.32 18.21 C32.14 21.63, 29.9 24.52, 27.32 26.85 C24.74 29.17, 20.13 31.69, 16.83 32.15 C13.53 32.61, 10.35 31.7, 7.53 29.61 C4.7 27.52, 1.05 23.02, -0.11 19.62 C-1.27 16.22, -1.06 12.09, 0.57 9.21 C2.21 6.33, 5.94 3.69, 9.7 2.37 C13.46 1.05, 20.22 1.05, 23.12 1.29 C26.02 1.53, 27.28 3.39, 27.11 3.8 M16.74 -1.19 C20.19 -1.4, 25.34 1.12, 27.8 3.4 C30.26 5.68, 31.26 9.18, 31.51 12.51 C31.75 15.85, 30.97 20.09, 29.25 23.41 C27.54 26.73, 24.53 30.94, 21.19 32.42 C17.85 33.9, 12.48 33.74, 9.22 32.31 C5.96 30.87, 3.3 26.93, 1.61 23.82 C-0.09 20.71, -1.58 16.8, -0.95 13.65 C-0.33 10.49, 2.59 7.38, 5.33 4.88 C8.07 2.39, 13.66 -0.77, 15.46 -1.32 C17.26 -1.87, 16.21 1.01, 16.15 1.57" stroke="#000000" stroke-width="1" fill="none"></path></g><g transform="translate(244.29727370499313 18.937798586338886) rotate(0 5 9)"><text x="5" y="14" font-family="Helvetica, Segoe UI Emoji" font-size="16px" fill="#000000" text-anchor="middle" style="white-space: pre;" direction="ltr">2</text></g><g transform="translate(585.772508942453 19) rotate(0 39.5 9)"><text x="39.5" y="14" font-family="Helvetica, Segoe UI Emoji" font-size="16px" fill="#000000" text-anchor="middle" style="white-space: pre;" direction="ltr">Save order</text></g><g stroke-linecap="round" transform="translate(544.8220384675333 12) rotate(0 16 16)"><path d="M21.48 0.42 C24.6 1.31, 28.85 5.02, 30.44 8 C32.04 10.98, 31.7 14.87, 31.06 18.28 C30.42 21.69, 29.14 26.3, 26.6 28.47 C24.06 30.63, 19.18 31.13, 15.8 31.28 C12.42 31.42, 8.75 31.5, 6.31 29.33 C3.88 27.17, 2.02 21.79, 1.19 18.3 C0.35 14.82, -0.3 11.35, 1.3 8.43 C2.9 5.51, 6.93 1.82, 10.79 0.78 C14.66 -0.25, 22.18 1.89, 24.49 2.22 C26.8 2.54, 24.84 2.39, 24.64 2.71 M11.89 0.58 C15.22 -0.03, 20.05 1.12, 23.2 2.87 C26.35 4.61, 29.29 7.86, 30.8 11.06 C32.32 14.26, 33.43 18.76, 32.29 22.08 C31.14 25.39, 27.1 29.43, 23.96 30.94 C20.81 32.46, 16.82 31.88, 13.42 31.18 C10.03 30.48, 5.86 29.34, 3.58 26.74 C1.3 24.13, 0.01 18.77, -0.26 15.55 C-0.53 12.33, -0.36 9.7, 1.97 7.42 C4.29 5.13, 11.66 2.98, 13.67 1.85 C15.68 0.72, 13.89 0.53, 14.01 0.62" stroke="#000000" stroke-width="1" fill="none"></path></g><g transform="translate(555.8220384675333 19) rotate(0 5 9)"><text x="5" y="14" font-family="Helvetica, Segoe UI Emoji" font-size="16px" fill="#000000" text-anchor="middle" style="white-space: pre;" direction="ltr">3</text></g><g transform="translate(772.772508942453 10) rotate(0 50.5 18)"><text x="50.5" y="14" font-family="Helvetica, Segoe UI Emoji" font-size="16px" fill="#000000" text-anchor="middle" style="white-space: pre;" direction="ltr">INSERT INTO</text><text x="50.5" y="32" font-family="Helvetica, Segoe UI Emoji" font-size="16px" fill="#000000" text-anchor="middle" style="white-space: pre;" direction="ltr">`Order` ...</text></g><g stroke-linecap="round" transform="translate(731.8220384675333 12) rotate(0 16 16)"><path d="M8.45 2.51 C11.38 0.81, 16.29 0.29, 19.52 0.93 C22.76 1.57, 25.84 3.62, 27.84 6.34 C29.84 9.07, 31.67 13.98, 31.53 17.25 C31.38 20.52, 29.24 23.57, 26.99 25.98 C24.73 28.39, 21.3 31.14, 18 31.7 C14.69 32.26, 10.14 31.05, 7.14 29.32 C4.14 27.59, 1 24.54, -0.01 21.31 C-1.01 18.08, -0.56 13.24, 1.11 9.92 C2.78 6.61, 8.31 2.72, 10.02 1.42 C11.73 0.11, 11.4 2.01, 11.38 2.09 M15.87 -0.27 C18.94 -0.95, 22.93 0.81, 25.58 3.07 C28.24 5.32, 30.97 9.76, 31.81 13.27 C32.64 16.77, 32.09 21.08, 30.6 24.09 C29.12 27.1, 25.95 29.91, 22.89 31.32 C19.84 32.74, 15.36 33.39, 12.26 32.59 C9.16 31.79, 6.47 29.72, 4.28 26.54 C2.1 23.36, -1.09 17.33, -0.83 13.49 C-0.57 9.66, 3.15 5.84, 5.85 3.53 C8.55 1.22, 14.11 0.32, 15.38 -0.36 C16.66 -1.04, 13.76 -0.65, 13.49 -0.54" stroke="#000000" stroke-width="1" fill="none"></path></g><g transform="translate(742.8220384675333 19) rotate(0 5 9)"><text x="5" y="14" font-family="Helvetica, Segoe UI Emoji" font-size="16px" fill="#000000" text-anchor="middle" style="white-space: pre;" direction="ltr">4</text></g></svg>