<svg version="1.1" xmlns="http://www.w3.org/2000/svg" viewBox="0 0 497 303" width="497" height="303">
  <!-- svg-source:excalidraw -->
  
  <defs>
    <style class="style-fonts">
      @font-face {
        font-family: "Virgil";
        src: url("https://excalidraw.com/Virgil.woff2");
      }
      @font-face {
        font-family: "Cascadia";
        src: url("https://excalidraw.com/Cascadia.woff2");
      }
    </style>
  </defs>
  <rect x="0" y="0" width="497" height="303" fill="#ffffff"></rect><g stroke-linecap="round" transform="translate(10 10) rotate(0 238 31)"><path d="M14.29 -1.02 L463.55 0.43 L470.6 2.22 L474.2 7.85 L476.78 50.45 L474.09 57.83 L467.79 60 L462.34 61.53 L11.81 60.2 L5.8 60.08 L0.22 54.21 L-0.39 15.14 L0.28 7.43 L4.14 3.34 L10.65 -0.93 L14.99 1.59" stroke="none" stroke-width="0" fill="#e1f9bd"></path><path d="M15.5 0 M15.5 0 C190.83 1.6, 366.88 1.92, 460.5 0 M15.5 0 C159.52 0.12, 304.08 -0.55, 460.5 0 M460.5 0 C471.44 0.46, 474.68 6.28, 476 15.5 M460.5 0 C468.83 0.17, 475.18 3.52, 476 15.5 M476 15.5 C475.45 23.82, 473.91 28.96, 476 46.5 M476 15.5 C476.39 22.75, 476.48 32.72, 476 46.5 M476 46.5 C474.68 56.33, 472.65 60.94, 460.5 62 M476 46.5 C477.56 56.96, 469.83 60.75, 460.5 62 M460.5 62 C293.95 64.2, 127.91 64.14, 15.5 62 M460.5 62 C283.69 60.6, 106.52 61.1, 15.5 62 M15.5 62 C6.79 62.58, -1.35 57.99, 0 46.5 M15.5 62 C6.82 61.15, -1.36 55.24, 0 46.5 M0 46.5 C0.04 36.54, 1.77 30.6, 0 15.5 M0 46.5 C-0.1 37.93, 0.49 28.5, 0 15.5 M0 15.5 C-0.34 4.95, 5.56 1.16, 15.5 0 M0 15.5 C-1.07 7.42, 5.95 -1.63, 15.5 0" stroke="#000000" stroke-width="1" fill="none"></path></g><g transform="translate(191 29.5) rotate(0 57 11.5)"><text x="57" y="18" font-family="Helvetica, Segoe UI Emoji" font-size="20px" fill="#000000" text-anchor="middle" style="white-space: pre;" direction="ltr">Presentation</text></g><g stroke-linecap="round" transform="translate(11 123) rotate(0 236 31)"><path d="M16.28 -1.87 L458.5 -0.5 L469.39 4.94 L471.42 6.93 L472.32 51.98 L466.8 57.62 L465.1 59.98 L457.86 62.11 L10.99 60.67 L7.55 58.96 L2.49 53.64 L1.08 17.23 L1.94 10.67 L2.94 2.95 L9.11 -0.61 L14.82 0.44" stroke="none" stroke-width="0" fill="#fcecbc"></path><path d="M15.5 0 M15.5 0 C184.08 2.2, 351.14 0.89, 456.5 0 M15.5 0 C116.79 -1.48, 218.49 -1.05, 456.5 0 M456.5 0 C468.18 -0.4, 472.32 5.23, 472 15.5 M456.5 0 C466.71 0.27, 473.23 3.7, 472 15.5 M472 15.5 C473.12 23.34, 473.93 33.72, 472 46.5 M472 15.5 C471.88 21.76, 471.88 29.37, 472 46.5 M472 46.5 C472.5 56.52, 468.5 62.2, 456.5 62 M472 46.5 C471.45 54.68, 465.48 61.01, 456.5 62 M456.5 62 C355.92 63.36, 257.29 63.52, 15.5 62 M456.5 62 C294.73 60.67, 133.76 61.29, 15.5 62 M15.5 62 C4.98 60.73, 0.24 55.42, 0 46.5 M15.5 62 C5.75 61.34, -1.97 55.47, 0 46.5 M0 46.5 C1.63 37.4, -1.72 26.35, 0 15.5 M0 46.5 C0.93 37.9, -0.29 29.06, 0 15.5 M0 15.5 C-1.56 4.13, 4.19 1.92, 15.5 0 M0 15.5 C-2.19 6.17, 4.39 -2.06, 15.5 0" stroke="#000000" stroke-width="1" fill="none"></path></g><g transform="translate(182 142.5) rotate(0 65 11.5)"><text x="65" y="18" font-family="Helvetica, Segoe UI Emoji" font-size="20px" fill="#000000" text-anchor="middle" style="white-space: pre;" direction="ltr">Business logic</text></g><g stroke-linecap="round" transform="translate(11 231) rotate(0 238 31)"><path d="M16.94 -1.53 L465.06 -0.25 L472.24 3.53 L476.93 8.59 L475.22 49.41 L470.56 57.09 L466.31 62.95 L458.6 62.88 L11.19 59.97 L5.39 61.61 L2.76 54.15 L-0.44 17.44 L1.76 9.36 L2.99 5.49 L8.38 -0.66 L16.78 1.18" stroke="none" stroke-width="0" fill="#f6c7b9"></path><path d="M15.5 0 M15.5 0 C119.02 -0.86, 222.14 0.32, 460.5 0 M15.5 0 C187.12 1.61, 358.75 2.06, 460.5 0 M460.5 0 C471.4 -0.34, 477.41 6.75, 476 15.5 M460.5 0 C470.67 -2.05, 477.72 5.03, 476 15.5 M476 15.5 C475.69 21.73, 474.21 31.81, 476 46.5 M476 15.5 C476.87 21.67, 475.05 27.87, 476 46.5 M476 46.5 C475.66 56.39, 472.02 60.14, 460.5 62 M476 46.5 C475.72 55.92, 471.83 64.29, 460.5 62 M460.5 62 C313.29 62.47, 167.35 61.19, 15.5 62 M460.5 62 C370.2 61.37, 279.98 61.2, 15.5 62 M15.5 62 C5.41 62.05, -0.54 57.26, 0 46.5 M15.5 62 C4.74 63.78, -0.83 57.32, 0 46.5 M0 46.5 C2.17 37.07, 0.88 30.9, 0 15.5 M0 46.5 C-0.55 35.48, -0.11 23.82, 0 15.5 M0 15.5 C0.61 3.3, 6.67 0.79, 15.5 0 M0 15.5 C0.13 3.48, 6.43 -1.09, 15.5 0" stroke="#000000" stroke-width="1" fill="none"></path></g><g transform="translate(193 250.5) rotate(0 56 11.5)"><text x="56" y="18" font-family="Helvetica, Segoe UI Emoji" font-size="20px" fill="#000000" text-anchor="middle" style="white-space: pre;" direction="ltr">Data access</text></g><g stroke-linecap="round"><g transform="translate(242.7407874052858 77) rotate(0 -0.10792095184825712 21.5)"><path d="M0 0 C-0.04 7.17, -0.18 35.83, -0.22 43 M0 0 C-0.04 7.17, -0.18 35.83, -0.22 43" stroke="#000000" stroke-width="1" fill="none"></path></g><g transform="translate(242.7407874052858 77) rotate(0 -0.10792095184825712 21.5)"><path d="M-7.47 22.76 C-4.94 29.8, -2.42 36.85, -0.22 43 M-7.47 22.76 C-4.79 30.24, -2.11 37.72, -0.22 43" stroke="#000000" stroke-width="1" fill="none"></path></g><g transform="translate(242.7407874052858 77) rotate(0 -0.10792095184825712 21.5)"><path d="M7.24 22.83 C4.64 29.85, 2.05 36.87, -0.22 43 M7.24 22.83 C4.48 30.28, 1.73 37.74, -0.22 43" stroke="#000000" stroke-width="1" fill="none"></path></g></g><mask></mask><g stroke-linecap="round"><g transform="translate(239.4218053412999 190) rotate(0 0.3012105889858674 17.5)"><path d="M0 0 C0.1 5.83, 0.5 29.17, 0.6 35 M0 0 C0.1 5.83, 0.5 29.17, 0.6 35" stroke="#000000" stroke-width="1" fill="none"></path></g><g transform="translate(239.4218053412999 190) rotate(0 0.3012105889858674 17.5)"><path d="M-5.67 18.66 C-3.82 23.48, -1.97 28.3, 0.6 35 M-5.67 18.66 C-3.28 24.89, -0.89 31.12, 0.6 35" stroke="#000000" stroke-width="1" fill="none"></path></g><g transform="translate(239.4218053412999 190) rotate(0 0.3012105889858674 17.5)"><path d="M6.3 18.45 C4.62 23.33, 2.94 28.21, 0.6 35 M6.3 18.45 C4.13 24.76, 1.96 31.07, 0.6 35" stroke="#000000" stroke-width="1" fill="none"></path></g></g><mask></mask></svg>