<svg version="1.1" xmlns="http://www.w3.org/2000/svg" viewBox="0 0 500.5454545454545 303" width="500.5454545454545" height="303">
  <!-- svg-source:excalidraw -->
  
  <defs>
    <style class="style-fonts">
      @font-face {
        font-family: "Virgil";
        src: url("https://excalidraw.com/Virgil.woff2");
      }
      @font-face {
        font-family: "Cascadia";
        src: url("https://excalidraw.com/Cascadia.woff2");
      }
    </style>
  </defs>
  <rect x="0" y="0" width="500.5454545454545" height="303" fill="#ffffff"></rect><g stroke-linecap="round" transform="translate(185.5454545454545 10) rotate(0 70 31)"><path d="M14.22 0.37 L129.67 -1.03 L139.07 7.13 L140.39 10.5 L139.78 53.35 L135.2 60.31 L126.45 60.07 L8.05 60.48 L3.16 59.22 L1.88 48.82 L1.1 12.36 L2.5 4.59 L9.2 1.88 L15.95 -0.67" stroke="none" stroke-width="0" fill="#e1f9bd"></path><path d="M15.5 0 M15.5 0 C56.81 1.01, 100.79 1.09, 124.5 0 M15.5 0 C37.75 0.06, 59.62 0.7, 124.5 0 M124.5 0 C134.84 -0.24, 138.49 6.14, 140 15.5 M124.5 0 C133.94 0.42, 138.55 3.67, 140 15.5 M140 15.5 C139.05 26.28, 141.86 39.24, 140 46.5 M140 15.5 C140.79 25.1, 140.64 34.58, 140 46.5 M140 46.5 C140.25 55.78, 135.73 61.93, 124.5 62 M140 46.5 C139.92 57.93, 134.92 61.65, 124.5 62 M124.5 62 C97.88 63.71, 71.36 61.93, 15.5 62 M124.5 62 C101.86 61.98, 81.06 61.53, 15.5 62 M15.5 62 C3.26 60.55, -0.18 57.96, 0 46.5 M15.5 62 C7.46 61.32, 1.26 54.95, 0 46.5 M0 46.5 C1.03 36.94, 1.2 28.46, 0 15.5 M0 46.5 C0.1 34.56, 0.01 21.32, 0 15.5 M0 15.5 C-0.31 6.75, 6.74 -1.99, 15.5 0 M0 15.5 C-0.35 7.17, 5.14 -0.7, 15.5 0" stroke="#000000" stroke-width="1" fill="none"></path></g><g transform="translate(198.0454545454545 32) rotate(0 57.5 9)"><text x="57.5" y="14" font-family="Helvetica, Segoe UI Emoji" font-size="16px" fill="#000000" text-anchor="middle" style="white-space: pre;" direction="ltr">REST controller</text></g><g stroke-linecap="round" transform="translate(18.545454545454504 123) rotate(0 236 31)"><path d="M13.89 -1.99 L461.38 1.31 L468.76 2.5 L471.78 8.79 L473.02 50.62 L470.07 56.19 L462.62 60.48 L455.78 63.09 L13.51 60.45 L6.91 60.31 L-0.4 54 L0.48 16.41 L1.42 8.05 L5.52 4.19 L9.65 0.62 L17.02 1.97" stroke="none" stroke-width="0" fill="#fcecbc"></path><path d="M15.5 0 M15.5 0 C182.26 0.96, 349.77 0.41, 456.5 0 M15.5 0 C141.89 0.51, 268.84 0.36, 456.5 0 M456.5 0 C465.57 -1.3, 473.58 7.13, 472 15.5 M456.5 0 C467.85 -1.44, 470.89 6.96, 472 15.5 M472 15.5 C471.5 27, 471.79 36.39, 472 46.5 M472 15.5 C472.49 23.63, 472 32.3, 472 46.5 M472 46.5 C472.08 56.53, 465.74 60.17, 456.5 62 M472 46.5 C473.68 56.96, 467.88 62.36, 456.5 62 M456.5 62 C342.55 60.74, 231.04 62.01, 15.5 62 M456.5 62 C306.57 60.69, 157.22 60.26, 15.5 62 M15.5 62 C6.27 60.36, -0.62 55.23, 0 46.5 M15.5 62 C6.8 62.9, -1.4 57.93, 0 46.5 M0 46.5 C-0.49 39.63, 0.53 32.25, 0 15.5 M0 46.5 C0.83 37.68, -0.11 31.73, 0 15.5 M0 15.5 C-0.03 4.56, 6.1 0.15, 15.5 0 M0 15.5 C-1.95 6.53, 7.13 1.11, 15.5 0" stroke="#000000" stroke-width="1" fill="none"></path></g><g transform="translate(189.5454545454545 142.5) rotate(0 65 11.5)"><text x="65" y="18" font-family="Helvetica, Segoe UI Emoji" font-size="20px" fill="#000000" text-anchor="middle" style="white-space: pre;" direction="ltr">Business logic</text></g><g stroke-linecap="round" transform="translate(187.5454545454545 231) rotate(0 69 31)"><path d="M16.75 1.07 L129.92 -0.4 L136.57 6.12 L139.02 12.35 L138.98 51.35 L131.28 59.27 L121.78 63.09 L10.36 59.72 L4.73 58.62 L-1.13 50.85 L0.73 12.78 L4.32 3.2 L10.36 1.28 L16.43 -0.35" stroke="none" stroke-width="0" fill="#f6c7b9"></path><path d="M15.5 0 M15.5 0 C53.83 -1.89, 94.42 -1.2, 122.5 0 M15.5 0 C39.38 0.01, 62.5 0.62, 122.5 0 M122.5 0 C132.05 0.36, 136.74 3.86, 138 15.5 M122.5 0 C134.65 2.26, 139.02 3.72, 138 15.5 M138 15.5 C138.52 22.54, 137.69 32.92, 138 46.5 M138 15.5 C138.36 23.88, 138.68 33.29, 138 46.5 M138 46.5 C137.93 57.79, 132.91 61.69, 122.5 62 M138 46.5 C136.74 54.73, 134.51 62.13, 122.5 62 M122.5 62 C83.59 60.91, 46.98 60.39, 15.5 62 M122.5 62 C80.36 61.7, 40.04 62.99, 15.5 62 M15.5 62 C7.16 61.41, 1.1 55.2, 0 46.5 M15.5 62 C4.45 60.16, 1.63 57.73, 0 46.5 M0 46.5 C1.82 39.49, -0.33 32, 0 15.5 M0 46.5 C-0.17 36.7, 0.76 24.33, 0 15.5 M0 15.5 C-0.31 6.91, 5.14 -0.61, 15.5 0 M0 15.5 C1.07 5.34, 3.22 1.36, 15.5 0" stroke="#000000" stroke-width="1" fill="none"></path></g><g transform="translate(225.5454545454545 253) rotate(0 31 9)"><text x="31" y="14" font-family="Helvetica, Segoe UI Emoji" font-size="16px" fill="#000000" text-anchor="middle" style="white-space: pre;" direction="ltr">Email lib</text></g><g stroke-linecap="round"><g transform="translate(250.7069753320045 78) rotate(0 0.21076396454830615 21)"><path d="M0 0 C0.07 7, 0.35 35, 0.42 42 M0 0 C0.07 7, 0.35 35, 0.42 42" stroke="#000000" stroke-width="1" fill="none"></path></g><g transform="translate(250.7069753320045 78) rotate(0 0.21076396454830615 21)"><path d="M-6.96 22.34 C-4.51 28.86, -2.06 35.39, 0.42 42 M-6.96 22.34 C-4.34 29.31, -1.72 36.29, 0.42 42" stroke="#000000" stroke-width="1" fill="none"></path></g><g transform="translate(250.7069753320045 78) rotate(0 0.21076396454830615 21)"><path d="M7.41 22.19 C5.09 28.77, 2.77 35.34, 0.42 42 M7.41 22.19 C4.93 29.22, 2.45 36.24, 0.42 42" stroke="#000000" stroke-width="1" fill="none"></path></g></g><mask></mask><g stroke-linecap="round"><g transform="translate(250.87773671092077 191) rotate(0 0.25844559553965496 17)"><path d="M0 0 C0.09 5.67, 0.43 28.33, 0.52 34 M0 0 C0.09 5.67, 0.43 28.33, 0.52 34" stroke="#000000" stroke-width="1" fill="none"></path></g><g transform="translate(250.87773671092077 191) rotate(0 0.25844559553965496 17)"><path d="M-5.54 18.11 C-4.14 21.79, -2.74 25.47, 0.52 34 M-5.54 18.11 C-3.23 24.18, -0.91 30.25, 0.52 34" stroke="#000000" stroke-width="1" fill="none"></path></g><g transform="translate(250.87773671092077 191) rotate(0 0.25844559553965496 17)"><path d="M6.09 17.94 C4.8 21.65, 3.51 25.37, 0.52 34 M6.09 17.94 C3.96 24.07, 1.83 30.21, 0.52 34" stroke="#000000" stroke-width="1" fill="none"></path></g></g><mask></mask><g stroke-linecap="round" transform="translate(345.5454545454545 10) rotate(0 70 31)"><path d="M16.25 0.07 L132.54 1.45 L139.77 4.12 L139.09 11.31 L138.31 54.38 L135.58 58.51 L125.36 62.49 L7.35 61.75 L4.36 59.03 L0.69 49.46 L1.89 12.18 L4.81 3.53 L10.24 2.94 L17.1 -1.89" stroke="none" stroke-width="0" fill="#e1f9bd"></path><path d="M15.5 0 M15.5 0 C41.04 -1.27, 69.4 0.19, 124.5 0 M15.5 0 C46.48 -0.35, 77.61 -1.18, 124.5 0 M124.5 0 C136.41 1.97, 140.89 3.91, 140 15.5 M124.5 0 C133.72 1.79, 140.29 5.48, 140 15.5 M140 15.5 C139.66 25.13, 139.18 31.99, 140 46.5 M140 15.5 C140.1 23.64, 140.18 30.68, 140 46.5 M140 46.5 C138.9 55, 136.3 62.11, 124.5 62 M140 46.5 C141.05 57.19, 133.83 59.76, 124.5 62 M124.5 62 C96.92 62.79, 66.73 59.47, 15.5 62 M124.5 62 C100.7 62.32, 75.46 61.8, 15.5 62 M15.5 62 C4.55 60.4, 1.42 57.61, 0 46.5 M15.5 62 C3.76 63.1, -1.57 59.1, 0 46.5 M0 46.5 C0.86 36.72, -0.93 26.36, 0 15.5 M0 46.5 C-0.4 35.62, -0.26 22.7, 0 15.5 M0 15.5 C0.93 5.32, 3.47 1.18, 15.5 0 M0 15.5 C1.96 6.28, 4.26 0.81, 15.5 0" stroke="#000000" stroke-width="1" fill="none"></path></g><g transform="translate(357.5454545454545 32) rotate(0 58 9)"><text x="58" y="14" font-family="Helvetica, Segoe UI Emoji" font-size="16px" fill="#000000" text-anchor="middle" style="white-space: pre;" direction="ltr">Message queue</text></g><g stroke-linecap="round" transform="translate(22.545454545454504 10) rotate(0 70 31)"><path d="M16.76 0.49 L133.23 -0.97 L137.15 5.5 L139.04 12.96 L140.67 51.97 L134.8 60.31 L123.13 62.72 L9.2 61.94 L4.32 57.45 L1.89 50.44 L1.17 11.52 L5.39 5.85 L10.32 -0.92 L14.47 -1.51" stroke="none" stroke-width="0" fill="#e1f9bd"></path><path d="M15.5 0 M15.5 0 C46.08 0.79, 76.91 -0.71, 124.5 0 M15.5 0 C52.89 -0.85, 92.33 0.79, 124.5 0 M124.5 0 C135.72 -1.26, 139.04 6.73, 140 15.5 M124.5 0 C135.12 0.31, 139.12 4.54, 140 15.5 M140 15.5 C139.23 27.86, 138.91 40.61, 140 46.5 M140 15.5 C140.03 24.54, 139.44 32.97, 140 46.5 M140 46.5 C141.46 56.94, 135.74 62.31, 124.5 62 M140 46.5 C139 54.59, 134.11 60.17, 124.5 62 M124.5 62 C98.83 60.86, 70.11 62.59, 15.5 62 M124.5 62 C86.21 60.86, 46.51 60.88, 15.5 62 M15.5 62 C6.58 62.78, -1.22 57.79, 0 46.5 M15.5 62 C3.6 64.26, 0.46 56.62, 0 46.5 M0 46.5 C-1.08 36.4, 1.45 28.48, 0 15.5 M0 46.5 C0.03 39.98, 0.51 34.15, 0 15.5 M0 15.5 C-1.7 6.35, 6.87 0.97, 15.5 0 M0 15.5 C-0.91 5.97, 2.87 1.9, 15.5 0" stroke="#000000" stroke-width="1" fill="none"></path></g><g transform="translate(42.045454545454504 32) rotate(0 50.5 9)"><text x="50.5" y="14" font-family="Helvetica, Segoe UI Emoji" font-size="16px" fill="#000000" text-anchor="middle" style="white-space: pre;" direction="ltr">GUI controller</text></g><g stroke-linecap="round"><g transform="translate(92.83469058090623 76) rotate(0 -0.28923603545169385 21.5)"><path d="M0 0 C-0.1 7.17, -0.48 35.83, -0.58 43 M0 0 C-0.1 7.17, -0.48 35.83, -0.58 43" stroke="#000000" stroke-width="1" fill="none"></path></g><g transform="translate(92.83469058090623 76) rotate(0 -0.28923603545169385 21.5)"><path d="M-7.66 22.7 C-4.85 30.77, -2.03 38.84, -0.58 43 M-7.66 22.7 C-5.28 29.51, -2.9 36.33, -0.58 43" stroke="#000000" stroke-width="1" fill="none"></path></g><g transform="translate(92.83469058090623 76) rotate(0 -0.28923603545169385 21.5)"><path d="M7.05 22.9 C4.02 30.89, 0.99 38.88, -0.58 43 M7.05 22.9 C4.49 29.65, 1.93 36.4, -0.58 43" stroke="#000000" stroke-width="1" fill="none"></path></g></g><mask></mask><g stroke-linecap="round"><g transform="translate(414.8346905809062 74.5) rotate(0 0.21076396454827773 21)"><path d="M0 0 C0.07 7, 0.35 35, 0.42 42 M0 0 C0.07 7, 0.35 35, 0.42 42" stroke="#000000" stroke-width="1" fill="none"></path></g><g transform="translate(414.8346905809062 74.5) rotate(0 0.21076396454827773 21)"><path d="M-6.96 22.34 C-5.46 26.34, -3.96 30.33, 0.42 42 M-6.96 22.34 C-4.57 28.71, -2.17 35.09, 0.42 42" stroke="#000000" stroke-width="1" fill="none"></path></g><g transform="translate(414.8346905809062 74.5) rotate(0 0.21076396454827773 21)"><path d="M7.41 22.19 C5.99 26.22, 4.57 30.25, 0.42 42 M7.41 22.19 C5.14 28.61, 2.88 35.04, 0.42 42" stroke="#000000" stroke-width="1" fill="none"></path></g></g><mask></mask><g stroke-linecap="round" transform="translate(20.545454545454504 230) rotate(0 69 31)"><path d="M14.83 -0.55 L128.56 2.06 L137.46 4.74 L138.62 12.36 L135.66 54 L132.43 60.73 L122.95 61.33 L10.36 61.34 L4.81 57.78 L1.76 52.11 L1.84 9.98 L2.84 2.36 L8.37 -0.57 L14.05 -0.25" stroke="none" stroke-width="0" fill="#f6c7b9"></path><path d="M15.5 0 M15.5 0 C48.59 0.03, 80.09 -0.46, 122.5 0 M15.5 0 C41.06 -1.68, 65.26 -0.27, 122.5 0 M122.5 0 C133.08 0.27, 137.24 4.62, 138 15.5 M122.5 0 C134.92 -0.29, 139.74 4.32, 138 15.5 M138 15.5 C137.77 25.12, 138.79 34.95, 138 46.5 M138 15.5 C138.56 24.38, 138.28 33.3, 138 46.5 M138 46.5 C137.13 54.88, 132.21 60.41, 122.5 62 M138 46.5 C136.68 58.79, 134.46 62.92, 122.5 62 M122.5 62 C101.72 63.9, 78.1 63, 15.5 62 M122.5 62 C99.87 61.53, 75.21 61.62, 15.5 62 M15.5 62 C3.81 63.97, 0.4 56.65, 0 46.5 M15.5 62 C5.53 62.96, 0.16 55.74, 0 46.5 M0 46.5 C-2.24 37.37, 1.5 28.82, 0 15.5 M0 46.5 C-0.99 38.74, 0.71 30.28, 0 15.5 M0 15.5 C-0.79 5.87, 3.17 1.65, 15.5 0 M0 15.5 C1.17 3.51, 4.61 1.13, 15.5 0" stroke="#000000" stroke-width="1" fill="none"></path></g><g transform="translate(59.545454545454504 252) rotate(0 30 9)"><text x="30" y="14" font-family="Helvetica, Segoe UI Emoji" font-size="16px" fill="#000000" text-anchor="middle" style="white-space: pre;" direction="ltr">ORM lib</text></g><g stroke-linecap="round" transform="translate(348.5454545454545 230) rotate(0 69 31)"><path d="M14.78 1.09 L130.92 -0.34 L136.68 6.55 L136.39 12.58 L137.51 54.19 L132.39 59.15 L124.14 62.31 L9.65 60.68 L5.39 60.1 L1.84 48.25 L-0.79 10.35 L3.53 2.34 L7.27 0.72 L15.5 -0.24" stroke="none" stroke-width="0" fill="#f6c7b9"></path><path d="M15.5 0 M15.5 0 C39.9 -0.85, 62.28 2, 122.5 0 M15.5 0 C57.63 1.45, 100.85 0.81, 122.5 0 M122.5 0 C132.07 -0.55, 139.81 4.92, 138 15.5 M122.5 0 C134.58 -0.84, 138.29 3.95, 138 15.5 M138 15.5 C138.94 26.26, 137.68 35.77, 138 46.5 M138 15.5 C138.68 22.12, 137.79 27.45, 138 46.5 M138 46.5 C137.37 55.24, 131.69 63.7, 122.5 62 M138 46.5 C139.62 57.75, 130.64 60.33, 122.5 62 M122.5 62 C90.76 64.16, 58.56 62.44, 15.5 62 M122.5 62 C98.34 62.9, 74.72 63.4, 15.5 62 M15.5 62 C5.57 61.82, 0.32 57.66, 0 46.5 M15.5 62 C5.32 60.9, -0.35 58.65, 0 46.5 M0 46.5 C2.05 34.74, -0.3 23.96, 0 15.5 M0 46.5 C1.11 37.45, -0.13 27.78, 0 15.5 M0 15.5 C-1.99 6.82, 6.18 -1.44, 15.5 0 M0 15.5 C-0.56 6.29, 7.18 -1.51, 15.5 0" stroke="#000000" stroke-width="1" fill="none"></path></g><g transform="translate(385.5454545454545 252) rotate(0 32 9)"><text x="32" y="14" font-family="Helvetica, Segoe UI Emoji" font-size="16px" fill="#000000" text-anchor="middle" style="white-space: pre;" direction="ltr">HTTP lib</text></g><g stroke-linecap="round"><g transform="translate(90.78700894991482 192.5) rotate(0 0.25844559553965496 17)"><path d="M0 0 C0.09 5.67, 0.43 28.33, 0.52 34 M0 0 C0.09 5.67, 0.43 28.33, 0.52 34" stroke="#000000" stroke-width="1" fill="none"></path></g><g transform="translate(90.78700894991482 192.5) rotate(0 0.25844559553965496 17)"><path d="M-5.54 18.11 C-3.23 24.18, -0.91 30.25, 0.52 34 M-5.54 18.11 C-3.63 23.13, -1.72 28.14, 0.52 34" stroke="#000000" stroke-width="1" fill="none"></path></g><g transform="translate(90.78700894991482 192.5) rotate(0 0.25844559553965496 17)"><path d="M6.09 17.94 C3.96 24.07, 1.83 30.21, 0.52 34 M6.09 17.94 C4.33 23.01, 2.57 28.08, 0.52 34" stroke="#000000" stroke-width="1" fill="none"></path></g></g><mask></mask><g stroke-linecap="round"><g transform="translate(416.78700894991493 191.5) rotate(0 0.2584455955396834 17)"><path d="M0 0 C0.09 5.67, 0.43 28.33, 0.52 34 M0 0 C0.09 5.67, 0.43 28.33, 0.52 34" stroke="#000000" stroke-width="1" fill="none"></path></g><g transform="translate(416.78700894991493 191.5) rotate(0 0.2584455955396834 17)"><path d="M-5.54 18.11 C-4.12 21.84, -2.7 25.56, 0.52 34 M-5.54 18.11 C-3.44 23.62, -1.34 29.12, 0.52 34" stroke="#000000" stroke-width="1" fill="none"></path></g><g transform="translate(416.78700894991493 191.5) rotate(0 0.2584455955396834 17)"><path d="M6.09 17.94 C4.78 21.7, 3.48 25.47, 0.52 34 M6.09 17.94 C4.16 23.5, 2.23 29.07, 0.52 34" stroke="#000000" stroke-width="1" fill="none"></path></g></g><mask></mask><g stroke-linecap="round" transform="translate(338.60606060606096 241.75) rotate(0 15.939393939393767 6.5)"><path d="M4.17 0.1 L29.96 0.56 L31.61 1.82 L31.78 9.86 L30.4 12.76 L3.67 11.53 L-1.61 11.15 L-0.98 4.62 L1.05 -0.31 L2.09 -0.81" stroke="none" stroke-width="0" fill="#fff"></path><path d="M3.25 0 M3.25 0 C9.15 -2.22, 12.23 1.64, 28.63 0 M3.25 0 C11.36 0.53, 22.32 0.64, 28.63 0 M28.63 0 C29.68 -0.97, 33.71 -0.86, 31.88 3.25 M28.63 0 C28.63 -1.64, 31.16 -0.57, 31.88 3.25 M31.88 3.25 C32.04 5.31, 31.96 6.2, 31.88 9.75 M31.88 3.25 C31.91 4.97, 31.97 7.28, 31.88 9.75 M31.88 9.75 C31.42 10.38, 31.26 14.3, 28.63 13 M31.88 9.75 C32.69 13.36, 31.89 12.12, 28.63 13 M28.63 13 C21.8 12.39, 15.58 14.12, 3.25 13 M28.63 13 C18.89 13.71, 9.81 12.1, 3.25 13 M3.25 13 C1.26 13.67, 1.1 13.66, 0 9.75 M3.25 13 C-0.61 14.97, 0.59 11.92, 0 9.75 M0 9.75 C0.59 8.25, -0.46 6.07, 0 3.25 M0 9.75 C0.14 7.15, 0.02 4.68, 0 3.25 M0 3.25 C1.7 1.08, -0.69 0.61, 3.25 0 M0 3.25 C1.97 0.96, -1.2 -0.63, 3.25 0" stroke="#000000" stroke-width="1" fill="none"></path></g><g stroke-linecap="round" transform="translate(338 264.25) rotate(0 16.545454545454504 6.5)"><path d="M3.35 -0.09 L31.62 0.13 L32.88 1.94 L31.58 12.94 L29.6 14.84 L0.56 10.99 L0.18 10.19 L1.37 3.49 L-0.31 -0.34 L2.44 -1.71" stroke="none" stroke-width="0" fill="#fff"></path><path d="M3.25 0 M3.25 0 C9.75 -1.96, 22.07 1.09, 29.84 0 M3.25 0 C12.25 1.17, 20.9 -0.3, 29.84 0 M29.84 0 C31.04 1.83, 31.15 -0.8, 33.09 3.25 M29.84 0 C30.37 -0.71, 31.44 -0.24, 33.09 3.25 M33.09 3.25 C33.59 4.76, 32.91 6.04, 33.09 9.75 M33.09 3.25 C32.8 5.21, 33.12 6.89, 33.09 9.75 M33.09 9.75 C31.55 12.38, 33.3 13.71, 29.84 13 M33.09 9.75 C34.54 13.01, 31.13 11.36, 29.84 13 M29.84 13 C19.48 11.42, 11.6 13.91, 3.25 13 M29.84 13 C22.43 11.85, 12.58 12.88, 3.25 13 M3.25 13 C1.76 14.1, 1.74 10.44, 0 9.75 M3.25 13 C3.05 13.59, 0.01 10.73, 0 9.75 M0 9.75 C0.15 7.33, -0.41 6.31, 0 3.25 M0 9.75 C-0.17 8.16, -0.21 6.88, 0 3.25 M0 3.25 C-0.01 -0.69, 1.69 1.71, 3.25 0 M0 3.25 C-0.12 -1.2, 0.46 -0.08, 3.25 0" stroke="#000000" stroke-width="1" fill="none"></path></g><g stroke-linecap="round" transform="translate(176.60606060606096 242.75) rotate(0 15.939393939393767 6.5)"><path d="M1.76 -1.8 L29.17 1.69 L30.55 1.81 L33.11 12.5 L27.11 11.4 L0.1 11.43 L-1.5 12.62 L1.92 2.82 L-0.22 1.25 L1.64 -0.42" stroke="none" stroke-width="0" fill="#fff"></path><path d="M3.25 0 M3.25 0 C11.38 -0.02, 20.61 -1.78, 28.63 0 M3.25 0 C13.42 0.26, 21.83 0.96, 28.63 0 M28.63 0 C29.97 1.72, 31.74 -0.8, 31.88 3.25 M28.63 0 C31.47 -1.09, 33.85 0.75, 31.88 3.25 M31.88 3.25 C32.24 5.18, 32.09 6.44, 31.88 9.75 M31.88 3.25 C31.72 4.96, 31.6 7.26, 31.88 9.75 M31.88 9.75 C31.12 11.04, 30.53 14.94, 28.63 13 M31.88 9.75 C30.19 10.92, 29.67 12.88, 28.63 13 M28.63 13 C24.36 11.2, 17.87 11.25, 3.25 13 M28.63 13 C19.29 12.66, 8.96 12.73, 3.25 13 M3.25 13 C0 14.79, 1.35 10.25, 0 9.75 M3.25 13 C0.93 14.45, 0.57 12.12, 0 9.75 M0 9.75 C-0.01 7.46, -0.1 4.33, 0 3.25 M0 9.75 C-0.18 8.09, 0.02 6.02, 0 3.25 M0 3.25 C0.92 2.79, 2.53 1.86, 3.25 0 M0 3.25 C-0.92 1.89, -0.64 -1.59, 3.25 0" stroke="#000000" stroke-width="1" fill="none"></path></g><g stroke-linecap="round" transform="translate(176 265.25) rotate(0 16.545454545454504 6.5)"><path d="M1.45 -0.88 L32.75 -0.93 L32.87 3.26 L34.22 9.65 L28.24 11.27 L0.46 11.1 L1.65 13.09 L-0.43 2.22 L1.25 -0.8 L2.83 0.83" stroke="none" stroke-width="0" fill="#fff"></path><path d="M3.25 0 M3.25 0 C13.76 0.1, 22.61 1.36, 29.84 0 M3.25 0 C11.3 -0.16, 19.83 -0.65, 29.84 0 M29.84 0 C33.72 -0.14, 31.21 1.67, 33.09 3.25 M29.84 0 C30.92 1.97, 32.75 -1, 33.09 3.25 M33.09 3.25 C33.67 5.37, 33.56 7.11, 33.09 9.75 M33.09 3.25 C32.76 4.57, 33.05 6.26, 33.09 9.75 M33.09 9.75 C32.22 11.65, 33.95 11.53, 29.84 13 M33.09 9.75 C32.09 10.79, 31.88 10.76, 29.84 13 M29.84 13 C18.73 12.64, 9.28 14.52, 3.25 13 M29.84 13 C21.81 12.13, 14.19 12.47, 3.25 13 M3.25 13 C2.87 14.35, -1.67 11.78, 0 9.75 M3.25 13 C2.54 13.57, 0.2 13.8, 0 9.75 M0 9.75 C0.23 7.84, -0.42 6.11, 0 3.25 M0 9.75 C0.3 8.19, 0.14 6.81, 0 3.25 M0 3.25 C1.71 2.53, 2.94 -0.8, 3.25 0 M0 3.25 C0.8 -0.64, -0.51 -1.24, 3.25 0" stroke="#000000" stroke-width="1" fill="none"></path></g><g stroke-linecap="round" transform="translate(10.606060606060964 242.75) rotate(0 15.939393939393767 6.5)"><path d="M5.01 0.68 L31.48 0.42 L30.49 1.41 L30.95 9.24 L27.15 12.81 L1.07 11.92 L-0.06 13.12 L-1.47 2.38 L-0.17 0.71 L1.3 1.14" stroke="none" stroke-width="0" fill="#fff"></path><path d="M3.25 0 M3.25 0 C8.62 -1.37, 16.34 -0.01, 28.63 0 M3.25 0 C9.94 -0.18, 17.87 0.98, 28.63 0 M28.63 0 C32.15 -1.67, 31.74 2.35, 31.88 3.25 M28.63 0 C31.36 0.2, 33.76 0.53, 31.88 3.25 M31.88 3.25 C31.76 4.31, 31.83 5.88, 31.88 9.75 M31.88 3.25 C31.82 4.64, 31.98 6.16, 31.88 9.75 M31.88 9.75 C33.33 13.77, 29.99 13.7, 28.63 13 M31.88 9.75 C30.16 10.33, 29.55 15.25, 28.63 13 M28.63 13 C21.47 13.19, 11.85 12.15, 3.25 13 M28.63 13 C19.07 12.99, 8.4 12.97, 3.25 13 M3.25 13 C-0.37 12.47, -0.44 12.38, 0 9.75 M3.25 13 C1.6 13.48, 1.81 14.17, 0 9.75 M0 9.75 C0.69 6.65, -0.14 4.52, 0 3.25 M0 9.75 C-0.17 8.37, -0.09 6.29, 0 3.25 M0 3.25 C1.83 0.73, 2.34 0.45, 3.25 0 M0 3.25 C1.91 -0.02, 0.85 0.78, 3.25 0" stroke="#000000" stroke-width="1" fill="none"></path></g><g stroke-linecap="round" transform="translate(10 265.25) rotate(0 16.545454545454504 6.5)"><path d="M3.93 1.43 L31.48 -0.98 L32.47 1.1 L30.96 9.69 L29.65 12.24 L0.95 12.53 L2.15 9.71 L-0.87 2.27 L0.71 -1.13 L4.39 -1.39" stroke="none" stroke-width="0" fill="#fff"></path><path d="M3.25 0 M3.25 0 C10.81 1.46, 21.3 0.04, 29.84 0 M3.25 0 C11.09 -0.31, 20.35 0.91, 29.84 0 M29.84 0 C30.34 -0.13, 34.35 1.58, 33.09 3.25 M29.84 0 C32.21 1.88, 32.54 -0.45, 33.09 3.25 M33.09 3.25 C32.65 5.13, 32.71 6.48, 33.09 9.75 M33.09 3.25 C33.21 4.91, 33.42 6.5, 33.09 9.75 M33.09 9.75 C34.95 11.11, 32.71 11.5, 29.84 13 M33.09 9.75 C31.5 10.68, 34.26 12.85, 29.84 13 M29.84 13 C21.39 11.16, 11.85 14.84, 3.25 13 M29.84 13 C22.93 12.68, 16.02 12.36, 3.25 13 M3.25 13 C0.55 12.56, 0.46 12.37, 0 9.75 M3.25 13 C1.56 14.81, 2.25 14.21, 0 9.75 M0 9.75 C-0.51 8.2, -0.04 6.79, 0 3.25 M0 9.75 C0.38 7.49, -0.01 5.65, 0 3.25 M0 3.25 C-0.35 2.34, 1.54 1.66, 3.25 0 M0 3.25 C-1.11 0.85, 1.86 -2.29, 3.25 0" stroke="#000000" stroke-width="1" fill="none"></path></g></svg>